<svg width="466" height="490" viewBox="0 0 466 490" fill="none" xmlns="http://www.w3.org/2000/svg">
<rect width="466" height="490" fill="#F8F9FA"/>
<path d="M187.114 256V238.545H191.227V256H187.114ZM189.182 236.068C188.53 236.068 187.97 235.852 187.5 235.42C187.03 234.981 186.795 234.455 186.795 233.841C186.795 233.22 187.03 232.693 187.5 232.261C187.97 231.822 188.53 231.602 189.182 231.602C189.841 231.602 190.402 231.822 190.864 232.261C191.333 232.693 191.568 233.22 191.568 233.841C191.568 234.455 191.333 234.981 190.864 235.42C190.402 235.852 189.841 236.068 189.182 236.068ZM195.457 256V238.545H199.389V241.511H199.594C199.957 240.511 200.56 239.731 201.401 239.17C202.241 238.602 203.245 238.318 204.412 238.318C205.594 238.318 206.59 238.606 207.401 239.182C208.219 239.75 208.795 240.527 209.128 241.511H209.31C209.696 240.542 210.348 239.769 211.264 239.193C212.188 238.61 213.283 238.318 214.548 238.318C216.154 238.318 217.465 238.826 218.48 239.841C219.495 240.856 220.003 242.337 220.003 244.284V256H215.878V244.92C215.878 243.837 215.59 243.045 215.014 242.545C214.438 242.038 213.734 241.784 212.901 241.784C211.908 241.784 211.132 242.095 210.571 242.716C210.018 243.33 209.741 244.129 209.741 245.114V256H205.707V244.75C205.707 243.848 205.435 243.129 204.889 242.591C204.351 242.053 203.647 241.784 202.776 241.784C202.185 241.784 201.647 241.936 201.162 242.239C200.677 242.534 200.291 242.955 200.003 243.5C199.715 244.038 199.571 244.667 199.571 245.386V256H195.457ZM229.199 256.352C228.093 256.352 227.097 256.155 226.21 255.761C225.331 255.36 224.634 254.769 224.119 253.989C223.612 253.208 223.358 252.246 223.358 251.102C223.358 250.117 223.54 249.303 223.903 248.659C224.267 248.015 224.763 247.5 225.392 247.114C226.021 246.727 226.729 246.436 227.517 246.239C228.313 246.034 229.134 245.886 229.983 245.795C231.006 245.689 231.835 245.595 232.472 245.511C233.108 245.42 233.57 245.284 233.858 245.102C234.153 244.913 234.301 244.621 234.301 244.227V244.159C234.301 243.303 234.047 242.64 233.54 242.17C233.032 241.701 232.301 241.466 231.347 241.466C230.339 241.466 229.54 241.686 228.949 242.125C228.366 242.564 227.972 243.083 227.767 243.682L223.926 243.136C224.229 242.076 224.729 241.189 225.426 240.477C226.123 239.758 226.975 239.22 227.983 238.864C228.991 238.5 230.104 238.318 231.324 238.318C232.165 238.318 233.002 238.417 233.835 238.614C234.669 238.811 235.43 239.136 236.119 239.591C236.809 240.038 237.362 240.648 237.778 241.42C238.203 242.193 238.415 243.159 238.415 244.318V256H234.46V253.602H234.324C234.074 254.087 233.722 254.542 233.267 254.966C232.82 255.383 232.256 255.72 231.574 255.977C230.9 256.227 230.108 256.352 229.199 256.352ZM230.267 253.33C231.093 253.33 231.809 253.167 232.415 252.841C233.021 252.508 233.487 252.068 233.812 251.523C234.146 250.977 234.312 250.383 234.312 249.739V247.682C234.184 247.788 233.964 247.886 233.653 247.977C233.35 248.068 233.009 248.148 232.631 248.216C232.252 248.284 231.877 248.345 231.506 248.398C231.134 248.451 230.813 248.496 230.54 248.534C229.926 248.617 229.377 248.754 228.892 248.943C228.407 249.133 228.025 249.398 227.744 249.739C227.464 250.072 227.324 250.504 227.324 251.034C227.324 251.792 227.6 252.364 228.153 252.75C228.706 253.136 229.411 253.33 230.267 253.33ZM250.142 262.909C248.665 262.909 247.396 262.708 246.335 262.307C245.275 261.913 244.422 261.383 243.778 260.716C243.134 260.049 242.688 259.311 242.438 258.5L246.142 257.602C246.309 257.943 246.551 258.28 246.869 258.614C247.188 258.955 247.616 259.235 248.153 259.455C248.699 259.682 249.384 259.795 250.21 259.795C251.377 259.795 252.343 259.511 253.108 258.943C253.873 258.383 254.256 257.458 254.256 256.17V252.864H254.051C253.839 253.288 253.528 253.723 253.119 254.17C252.718 254.617 252.184 254.992 251.517 255.295C250.858 255.598 250.028 255.75 249.028 255.75C247.688 255.75 246.472 255.436 245.381 254.807C244.297 254.17 243.434 253.223 242.79 251.966C242.153 250.701 241.835 249.117 241.835 247.216C241.835 245.299 242.153 243.682 242.79 242.364C243.434 241.038 244.301 240.034 245.392 239.352C246.483 238.663 247.699 238.318 249.04 238.318C250.063 238.318 250.903 238.492 251.562 238.841C252.229 239.182 252.759 239.595 253.153 240.08C253.547 240.557 253.847 241.008 254.051 241.432H254.278V238.545H258.335V256.284C258.335 257.777 257.979 259.011 257.267 259.989C256.555 260.966 255.581 261.697 254.347 262.182C253.112 262.667 251.71 262.909 250.142 262.909ZM250.176 252.523C251.047 252.523 251.79 252.311 252.403 251.886C253.017 251.462 253.483 250.852 253.801 250.057C254.119 249.261 254.278 248.307 254.278 247.193C254.278 246.095 254.119 245.133 253.801 244.307C253.491 243.481 253.028 242.841 252.415 242.386C251.809 241.924 251.063 241.693 250.176 241.693C249.259 241.693 248.494 241.932 247.881 242.409C247.267 242.886 246.805 243.542 246.494 244.375C246.184 245.201 246.028 246.14 246.028 247.193C246.028 248.261 246.184 249.197 246.494 250C246.813 250.795 247.278 251.417 247.892 251.864C248.513 252.303 249.275 252.523 250.176 252.523ZM270.278 256.341C268.528 256.341 267.017 255.977 265.744 255.25C264.479 254.515 263.506 253.477 262.824 252.136C262.142 250.788 261.801 249.201 261.801 247.375C261.801 245.58 262.142 244.004 262.824 242.648C263.513 241.284 264.475 240.223 265.71 239.466C266.945 238.701 268.396 238.318 270.062 238.318C271.138 238.318 272.153 238.492 273.108 238.841C274.07 239.182 274.919 239.712 275.653 240.432C276.396 241.152 276.979 242.068 277.403 243.182C277.828 244.288 278.04 245.606 278.04 247.136V248.398H263.733V245.625H274.097C274.089 244.837 273.919 244.136 273.585 243.523C273.252 242.902 272.786 242.413 272.188 242.057C271.597 241.701 270.907 241.523 270.119 241.523C269.278 241.523 268.54 241.727 267.903 242.136C267.267 242.538 266.771 243.068 266.415 243.727C266.066 244.379 265.888 245.095 265.881 245.875V248.295C265.881 249.311 266.066 250.182 266.438 250.909C266.809 251.629 267.328 252.182 267.994 252.568C268.661 252.947 269.441 253.136 270.335 253.136C270.934 253.136 271.475 253.053 271.96 252.886C272.445 252.712 272.866 252.458 273.222 252.125C273.578 251.792 273.847 251.379 274.028 250.886L277.869 251.318C277.627 252.333 277.165 253.22 276.483 253.977C275.809 254.727 274.945 255.311 273.892 255.727C272.839 256.136 271.634 256.341 270.278 256.341Z" fill="black"/>
</svg>
