<svg width="270" height="444" viewBox="0 0 270 444" fill="none" xmlns="http://www.w3.org/2000/svg">
<g clip-path="url(#clip0_5548_5512)">
<rect width="270" height="444" rx="8" fill="white"/>
<path d="M17.7216 39V21.5455H28.9034V24.196H20.8835V28.9347H28.1364V31.5852H20.8835V39H17.7216ZM31.6477 39V25.9091H34.733V39H31.6477ZM33.1989 24.0511C32.7102 24.0511 32.2898 23.8892 31.9375 23.5653C31.5852 23.2358 31.4091 22.8409 31.4091 22.3807C31.4091 21.9148 31.5852 21.5199 31.9375 21.196C32.2898 20.8665 32.7102 20.7017 33.1989 20.7017C33.6932 20.7017 34.1136 20.8665 34.4602 21.196C34.8125 21.5199 34.9886 21.9148 34.9886 22.3807C34.9886 22.8409 34.8125 23.2358 34.4602 23.5653C34.1136 23.8892 33.6932 24.0511 33.1989 24.0511ZM40.9908 21.5455V39H37.9055V21.5455H40.9908ZM50.7003 25.9091V28.2955H43.1747V25.9091H50.7003ZM45.0327 22.7727H48.1179V35.0625C48.1179 35.4773 48.1804 35.7955 48.3054 36.017C48.4361 36.233 48.6065 36.3807 48.8168 36.4602C49.027 36.5398 49.2599 36.5795 49.5156 36.5795C49.7088 36.5795 49.8849 36.5653 50.044 36.5369C50.2088 36.5085 50.3338 36.483 50.419 36.4602L50.9389 38.8722C50.7741 38.929 50.5384 38.9915 50.2315 39.0597C49.9304 39.1278 49.5611 39.1676 49.1236 39.179C48.3509 39.2017 47.6548 39.0852 47.0355 38.8295C46.4162 38.5682 45.9247 38.1648 45.5611 37.6193C45.2031 37.0739 45.027 36.392 45.0327 35.5739V22.7727ZM58.9354 39.2557C57.6229 39.2557 56.4893 38.983 55.5348 38.4375C54.5859 37.8864 53.8558 37.108 53.3445 36.1023C52.8331 35.0909 52.5774 33.9006 52.5774 32.5312C52.5774 31.1847 52.8331 30.0028 53.3445 28.9858C53.8615 27.9631 54.5831 27.1676 55.5092 26.5994C56.4354 26.0256 57.5234 25.7386 58.7734 25.7386C59.5803 25.7386 60.3416 25.8693 61.0575 26.1307C61.7791 26.3864 62.4155 26.7841 62.9666 27.3239C63.5234 27.8636 63.9609 28.5511 64.2791 29.3864C64.5973 30.2159 64.7564 31.2045 64.7564 32.3523V33.2983H54.0263V31.2188H61.799C61.7933 30.6278 61.6655 30.1023 61.4155 29.642C61.1655 29.1761 60.8161 28.8097 60.3672 28.5426C59.924 28.2756 59.407 28.142 58.8161 28.142C58.1854 28.142 57.6314 28.2955 57.1541 28.6023C56.6768 28.9034 56.3047 29.3011 56.0376 29.7955C55.7763 30.2841 55.6428 30.821 55.6371 31.4062V33.2216C55.6371 33.983 55.7763 34.6364 56.0547 35.1818C56.3331 35.7216 56.7223 36.1364 57.2223 36.4261C57.7223 36.7102 58.3075 36.8523 58.978 36.8523C59.4268 36.8523 59.8331 36.7898 60.1967 36.6648C60.5604 36.5341 60.8757 36.3438 61.1428 36.0938C61.4098 35.8438 61.6115 35.5341 61.7479 35.1648L64.6286 35.4886C64.4467 36.25 64.1001 36.9148 63.5888 37.483C63.0831 38.0455 62.4354 38.483 61.6456 38.7955C60.8558 39.1023 59.9524 39.2557 58.9354 39.2557ZM67.3665 39V25.9091H70.358V28.0909H70.4943C70.733 27.3352 71.142 26.7528 71.7216 26.3438C72.3068 25.929 72.9744 25.7216 73.7244 25.7216C73.8949 25.7216 74.0852 25.7301 74.2955 25.7472C74.5114 25.7585 74.6903 25.7784 74.8324 25.8068V28.6449C74.7017 28.5994 74.4943 28.5597 74.2102 28.5256C73.9318 28.4858 73.6619 28.4659 73.4006 28.4659C72.8381 28.4659 72.3324 28.5881 71.8835 28.8324C71.4403 29.071 71.0909 29.4034 70.8352 29.8295C70.5795 30.2557 70.4517 30.7472 70.4517 31.304V39H67.3665ZM87.2287 29.3693L84.4162 29.6761C84.3366 29.392 84.1974 29.125 83.9986 28.875C83.8054 28.625 83.544 28.4233 83.2145 28.2699C82.8849 28.1165 82.4815 28.0398 82.0043 28.0398C81.3622 28.0398 80.8224 28.179 80.3849 28.4574C79.9531 28.7358 79.7401 29.0966 79.7457 29.5398C79.7401 29.9205 79.8793 30.2301 80.1634 30.4688C80.4531 30.7074 80.9304 30.9034 81.5952 31.0568L83.8281 31.5341C85.0668 31.8011 85.9872 32.2244 86.5895 32.804C87.1974 33.3835 87.5043 34.142 87.5099 35.0795C87.5043 35.9034 87.2628 36.6307 86.7855 37.2614C86.3139 37.8864 85.6577 38.375 84.8168 38.7273C83.9759 39.0795 83.0099 39.2557 81.919 39.2557C80.3168 39.2557 79.027 38.9205 78.0497 38.25C77.0724 37.5739 76.4901 36.6335 76.3026 35.429L79.3111 35.1392C79.4474 35.7301 79.7372 36.1761 80.1804 36.4773C80.6236 36.7784 81.2003 36.929 81.9105 36.929C82.6435 36.929 83.2315 36.7784 83.6747 36.4773C84.1236 36.1761 84.348 35.804 84.348 35.3608C84.348 34.9858 84.2031 34.6761 83.9134 34.4318C83.6293 34.1875 83.1861 34 82.5838 33.8693L80.3509 33.4006C79.0952 33.1392 78.1662 32.6989 77.5639 32.0795C76.9616 31.4545 76.6634 30.6648 76.669 29.7102C76.6634 28.9034 76.8821 28.2045 77.3253 27.6136C77.7741 27.017 78.3963 26.5568 79.1918 26.233C79.9929 25.9034 80.9162 25.7386 81.9616 25.7386C83.4957 25.7386 84.7031 26.0653 85.5838 26.7188C86.4702 27.3722 87.0185 28.2557 87.2287 29.3693Z" fill="#343A40"/>
<g clip-path="url(#clip1_5548_5512)">
<mask id="path-3-inside-1_5548_5512" fill="white">
<path d="M0 61H270V160H0V61Z"/>
</mask>
<path d="M0 61H270V160H0V61Z" fill="white"/>
<rect width="306" height="35" transform="translate(0 69)" fill="white"/>
<path d="M17.1477 92V80.3636H21.5114C22.4053 80.3636 23.1553 80.5303 23.7614 80.8636C24.3712 81.197 24.8314 81.6553 25.142 82.2386C25.4564 82.8182 25.6136 83.4773 25.6136 84.2159C25.6136 84.9621 25.4564 85.625 25.142 86.2045C24.8277 86.7841 24.3636 87.2405 23.75 87.5739C23.1364 87.9034 22.3807 88.0682 21.483 88.0682H18.5909V86.3352H21.1989C21.7216 86.3352 22.1496 86.2443 22.483 86.0625C22.8163 85.8807 23.0625 85.6307 23.2216 85.3125C23.3845 84.9943 23.4659 84.6288 23.4659 84.2159C23.4659 83.803 23.3845 83.4394 23.2216 83.125C23.0625 82.8106 22.8144 82.5663 22.4773 82.392C22.1439 82.214 21.714 82.125 21.1875 82.125H19.2557V92H17.1477ZM31.0923 92.1705C30.2173 92.1705 29.4616 91.9886 28.8253 91.625C28.1927 91.2576 27.706 90.7386 27.3651 90.0682C27.0241 89.3939 26.8537 88.6004 26.8537 87.6875C26.8537 86.7898 27.0241 86.0019 27.3651 85.3239C27.7098 84.642 28.1908 84.1117 28.8082 83.733C29.4257 83.3504 30.151 83.1591 30.9844 83.1591C31.5223 83.1591 32.0298 83.2462 32.5071 83.4205C32.9882 83.5909 33.4124 83.8561 33.7798 84.2159C34.151 84.5758 34.4427 85.0341 34.6548 85.5909C34.867 86.1439 34.973 86.803 34.973 87.5682V88.1989H27.8196V86.8125H33.0014C32.9976 86.4186 32.9124 86.0682 32.7457 85.7614C32.5791 85.4508 32.3461 85.2064 32.0469 85.0284C31.7514 84.8504 31.4067 84.7614 31.0128 84.7614C30.5923 84.7614 30.223 84.8636 29.9048 85.0682C29.5866 85.2689 29.3385 85.5341 29.1605 85.8636C28.9863 86.1894 28.8973 86.5473 28.8935 86.9375V88.1477C28.8935 88.6553 28.9863 89.0909 29.1719 89.4545C29.3575 89.8144 29.617 90.0909 29.9503 90.2841C30.2836 90.4735 30.6738 90.5682 31.1207 90.5682C31.42 90.5682 31.6908 90.5265 31.9332 90.4432C32.1757 90.3561 32.3859 90.2292 32.5639 90.0625C32.742 89.8958 32.8764 89.6894 32.9673 89.4432L34.8878 89.6591C34.7666 90.1667 34.5355 90.6098 34.1946 90.9886C33.8575 91.3636 33.4257 91.6553 32.8991 91.8636C32.3726 92.0682 31.7704 92.1705 31.0923 92.1705ZM41.071 83.2727V84.8636H36.054V83.2727H41.071ZM37.2926 81.1818H39.3494V89.375C39.3494 89.6515 39.3911 89.8636 39.4744 90.0114C39.5616 90.1553 39.6752 90.2538 39.8153 90.3068C39.9555 90.3598 40.1108 90.3864 40.2812 90.3864C40.41 90.3864 40.5275 90.3769 40.6335 90.358C40.7434 90.339 40.8267 90.322 40.8835 90.3068L41.2301 91.9148C41.1203 91.9527 40.9631 91.9943 40.7585 92.0398C40.5578 92.0852 40.3116 92.1117 40.0199 92.1193C39.5047 92.1345 39.0407 92.0568 38.6278 91.8864C38.215 91.7121 37.8873 91.4432 37.6449 91.0795C37.4063 90.7159 37.2888 90.2614 37.2926 89.7159V81.1818Z" fill="#343A40"/>
<rect x="16.5" y="112.5" width="47" height="31" rx="5.5" fill="white"/>
<rect x="16.5" y="112.5" width="47" height="31" rx="5.5" stroke="#6C757D"/>
<path d="M37.7195 126.254H35.8601C35.8071 125.949 35.7093 125.679 35.5668 125.443C35.4242 125.205 35.2469 125.002 35.0348 124.837C34.8227 124.671 34.5807 124.547 34.3089 124.464C34.0405 124.378 33.7505 124.335 33.4389 124.335C32.8854 124.335 32.3949 124.474 31.9673 124.752C31.5398 125.027 31.205 125.432 30.9631 125.965C30.7211 126.496 30.6001 127.143 30.6001 127.909C30.6001 128.688 30.7211 129.344 30.9631 129.878C31.2083 130.408 31.5431 130.809 31.9673 131.081C32.3949 131.349 32.8838 131.484 33.4339 131.484C33.7389 131.484 34.0239 131.444 34.2891 131.364C34.5575 131.281 34.7978 131.161 35.0099 131.001C35.2254 130.842 35.406 130.647 35.5518 130.415C35.701 130.183 35.8037 129.918 35.8601 129.619L37.7195 129.629C37.6499 130.113 37.4991 130.567 37.267 130.991C37.0384 131.416 36.7384 131.79 36.3672 132.115C35.996 132.437 35.5618 132.688 35.0646 132.871C34.5675 133.05 34.0156 133.139 33.4091 133.139C32.5142 133.139 31.7154 132.932 31.0128 132.518C30.3101 132.103 29.7566 131.505 29.3523 130.723C28.9479 129.941 28.7457 129.003 28.7457 127.909C28.7457 126.812 28.9496 125.874 29.3572 125.095C29.7649 124.313 30.3201 123.715 31.0227 123.3C31.7254 122.886 32.5208 122.679 33.4091 122.679C33.9759 122.679 34.5028 122.759 34.9901 122.918C35.4773 123.077 35.9115 123.31 36.2926 123.619C36.6738 123.924 36.987 124.298 37.2322 124.742C37.4808 125.183 37.6432 125.687 37.7195 126.254ZM41.5265 133.154C41.0426 133.154 40.6067 133.068 40.2189 132.896C39.8345 132.72 39.5295 132.461 39.3042 132.12C39.0821 131.779 38.9711 131.358 38.9711 130.857C38.9711 130.426 39.0506 130.07 39.2097 129.788C39.3688 129.507 39.5859 129.281 39.861 129.112C40.1361 128.943 40.446 128.816 40.7907 128.729C41.1387 128.64 41.4983 128.575 41.8695 128.536C42.3169 128.489 42.6799 128.448 42.9583 128.411C43.2367 128.371 43.4389 128.312 43.5648 128.232C43.6941 128.149 43.7587 128.022 43.7587 127.849V127.82C43.7587 127.445 43.6477 127.155 43.4256 126.95C43.2035 126.744 42.8837 126.641 42.4661 126.641C42.0253 126.641 41.6756 126.737 41.4171 126.93C41.1619 127.122 40.9895 127.349 40.9 127.611L39.2196 127.372C39.3522 126.908 39.571 126.52 39.8759 126.209C40.1808 125.894 40.5537 125.659 40.9945 125.503C41.4353 125.344 41.9225 125.264 42.4561 125.264C42.824 125.264 43.1903 125.307 43.5549 125.393C43.9194 125.48 44.2525 125.622 44.5542 125.821C44.8558 126.017 45.0977 126.283 45.28 126.621C45.4656 126.96 45.5584 127.382 45.5584 127.889V133H43.8283V131.951H43.7686C43.6593 132.163 43.5051 132.362 43.3063 132.548C43.1107 132.73 42.8638 132.877 42.5655 132.99C42.2705 133.099 41.9242 133.154 41.5265 133.154ZM41.9938 131.832C42.3551 131.832 42.6683 131.76 42.9334 131.618C43.1986 131.472 43.4024 131.28 43.5449 131.041C43.6908 130.803 43.7637 130.542 43.7637 130.261V129.361C43.7073 129.407 43.6112 129.45 43.4753 129.49C43.3427 129.53 43.1936 129.565 43.0279 129.594C42.8622 129.624 42.6981 129.651 42.5357 129.674C42.3733 129.697 42.2324 129.717 42.1131 129.734C41.8446 129.77 41.6043 129.83 41.3922 129.913C41.1801 129.996 41.0127 130.112 40.8901 130.261C40.7675 130.406 40.7061 130.595 40.7061 130.827C40.7061 131.159 40.8271 131.409 41.0691 131.578C41.311 131.747 41.6193 131.832 41.9938 131.832ZM51.1813 125.364V126.756H46.7914V125.364H51.1813ZM47.8752 123.534H49.6749V130.703C49.6749 130.945 49.7114 131.131 49.7843 131.26C49.8605 131.386 49.9599 131.472 50.0826 131.518C50.2052 131.565 50.3411 131.588 50.4902 131.588C50.6029 131.588 50.7057 131.58 50.7985 131.563C50.8946 131.547 50.9675 131.532 51.0172 131.518L51.3205 132.925C51.2244 132.959 51.0868 132.995 50.9078 133.035C50.7322 133.075 50.5167 133.098 50.2615 133.104C49.8108 133.118 49.4048 133.05 49.0435 132.901C48.6822 132.748 48.3955 132.513 48.1834 132.195C47.9746 131.876 47.8719 131.479 47.8752 131.001V123.534Z" fill="#6C757D"/>
<rect x="72.5" y="112.5" width="51" height="31" rx="5.5" fill="white"/>
<rect x="72.5" y="112.5" width="51" height="31" rx="5.5" stroke="#6C757D"/>
<path d="M88.4545 133H85.0043V122.818H88.5241C89.535 122.818 90.4034 123.022 91.1293 123.43C91.8584 123.834 92.4186 124.416 92.8097 125.175C93.2008 125.934 93.3963 126.842 93.3963 127.899C93.3963 128.96 93.1991 129.871 92.8047 130.634C92.4136 131.396 91.8485 131.981 91.1094 132.388C90.3736 132.796 89.4886 133 88.4545 133ZM86.8487 131.404H88.3651C89.0743 131.404 89.666 131.275 90.1399 131.016C90.6139 130.754 90.9702 130.365 91.2088 129.848C91.4474 129.328 91.5668 128.678 91.5668 127.899C91.5668 127.12 91.4474 126.474 91.2088 125.96C90.9702 125.443 90.6172 125.057 90.1499 124.802C89.6858 124.543 89.1091 124.414 88.4197 124.414H86.8487V131.404ZM98.4002 133.149C97.6545 133.149 97.0082 132.985 96.4613 132.657C95.9144 132.329 95.4902 131.87 95.1886 131.28C94.8903 130.69 94.7411 130 94.7411 129.212C94.7411 128.423 94.8903 127.732 95.1886 127.138C95.4902 126.545 95.9144 126.085 96.4613 125.756C97.0082 125.428 97.6545 125.264 98.4002 125.264C99.146 125.264 99.7923 125.428 100.339 125.756C100.886 126.085 101.309 126.545 101.607 127.138C101.908 127.732 102.059 128.423 102.059 129.212C102.059 130 101.908 130.69 101.607 131.28C101.309 131.87 100.886 132.329 100.339 132.657C99.7923 132.985 99.146 133.149 98.4002 133.149ZM98.4102 131.707C98.8145 131.707 99.1526 131.596 99.4244 131.374C99.6961 131.149 99.8983 130.847 100.031 130.469C100.167 130.092 100.235 129.671 100.235 129.207C100.235 128.739 100.167 128.317 100.031 127.939C99.8983 127.558 99.6961 127.254 99.4244 127.029C99.1526 126.804 98.8145 126.691 98.4102 126.691C97.9959 126.691 97.6512 126.804 97.3761 127.029C97.1043 127.254 96.9004 127.558 96.7646 127.939C96.632 128.317 96.5657 128.739 96.5657 129.207C96.5657 129.671 96.632 130.092 96.7646 130.469C96.9004 130.847 97.1043 131.149 97.3761 131.374C97.6512 131.596 97.9959 131.707 98.4102 131.707ZM106.908 136.023C106.262 136.023 105.706 135.935 105.242 135.759C104.778 135.587 104.405 135.355 104.124 135.063C103.842 134.772 103.646 134.448 103.537 134.094L105.158 133.701C105.231 133.85 105.337 133.998 105.476 134.143C105.615 134.293 105.802 134.415 106.038 134.511C106.276 134.611 106.576 134.661 106.938 134.661C107.448 134.661 107.871 134.536 108.205 134.288C108.54 134.042 108.708 133.638 108.708 133.075V131.628H108.618C108.525 131.813 108.389 132.004 108.21 132.2C108.035 132.395 107.801 132.559 107.509 132.692C107.221 132.824 106.858 132.891 106.421 132.891C105.834 132.891 105.302 132.753 104.825 132.478C104.351 132.2 103.973 131.785 103.691 131.235C103.413 130.682 103.274 129.989 103.274 129.157C103.274 128.318 103.413 127.611 103.691 127.034C103.973 126.454 104.352 126.015 104.83 125.717C105.307 125.415 105.839 125.264 106.426 125.264C106.873 125.264 107.241 125.34 107.529 125.493C107.821 125.642 108.053 125.823 108.225 126.035C108.398 126.244 108.529 126.441 108.618 126.626H108.718V125.364H110.492V133.124C110.492 133.777 110.337 134.317 110.025 134.745C109.713 135.173 109.288 135.492 108.747 135.705C108.207 135.917 107.594 136.023 106.908 136.023ZM106.923 131.479C107.304 131.479 107.629 131.386 107.897 131.2C108.166 131.015 108.369 130.748 108.509 130.4C108.648 130.052 108.718 129.634 108.718 129.147C108.718 128.666 108.648 128.246 108.509 127.884C108.373 127.523 108.171 127.243 107.902 127.044C107.637 126.842 107.311 126.741 106.923 126.741C106.522 126.741 106.187 126.845 105.919 127.054C105.65 127.263 105.448 127.549 105.312 127.914C105.176 128.275 105.108 128.686 105.108 129.147C105.108 129.614 105.176 130.024 105.312 130.375C105.451 130.723 105.655 130.995 105.923 131.19C106.195 131.383 106.528 131.479 106.923 131.479Z" fill="#6C757D"/>
<rect x="132.5" y="112.5" width="58" height="31" rx="5.5" fill="white"/>
<rect x="132.5" y="112.5" width="58" height="31" rx="5.5" stroke="#6C757D"/>
<path d="M145.004 133V122.818H148.902C149.638 122.818 150.249 122.934 150.737 123.166C151.227 123.395 151.593 123.708 151.835 124.106C152.08 124.504 152.203 124.954 152.203 125.458C152.203 125.872 152.124 126.227 151.964 126.522C151.805 126.814 151.592 127.051 151.323 127.233C151.055 127.415 150.755 127.546 150.423 127.626V127.725C150.785 127.745 151.131 127.856 151.462 128.058C151.797 128.257 152.071 128.539 152.283 128.903C152.495 129.268 152.601 129.709 152.601 130.226C152.601 130.753 152.473 131.227 152.218 131.648C151.963 132.065 151.578 132.395 151.065 132.637C150.551 132.879 149.905 133 149.126 133H145.004ZM146.849 131.459H148.832C149.502 131.459 149.984 131.331 150.279 131.076C150.577 130.817 150.727 130.486 150.727 130.082C150.727 129.78 150.652 129.508 150.503 129.266C150.354 129.021 150.142 128.829 149.866 128.69C149.591 128.547 149.263 128.476 148.882 128.476H146.849V131.459ZM146.849 127.148H148.673C148.991 127.148 149.278 127.09 149.533 126.974C149.789 126.855 149.989 126.688 150.135 126.472C150.284 126.254 150.359 125.995 150.359 125.697C150.359 125.302 150.219 124.978 149.941 124.722C149.666 124.467 149.257 124.339 148.713 124.339H146.849V127.148ZM154.126 133V125.364H155.926V133H154.126ZM155.031 124.28C154.746 124.28 154.5 124.185 154.295 123.996C154.089 123.804 153.987 123.574 153.987 123.305C153.987 123.034 154.089 122.803 154.295 122.614C154.5 122.422 154.746 122.326 155.031 122.326C155.319 122.326 155.564 122.422 155.767 122.614C155.972 122.803 156.075 123.034 156.075 123.305C156.075 123.574 155.972 123.804 155.767 123.996C155.564 124.185 155.319 124.28 155.031 124.28ZM157.776 133V125.364H159.521V126.636H159.601C159.74 126.196 159.979 125.856 160.317 125.617C160.658 125.375 161.048 125.254 161.485 125.254C161.585 125.254 161.696 125.259 161.818 125.269C161.944 125.276 162.049 125.287 162.131 125.304V126.96C162.055 126.933 161.934 126.91 161.768 126.89C161.606 126.867 161.449 126.855 161.296 126.855C160.968 126.855 160.673 126.926 160.411 127.069C160.153 127.208 159.949 127.402 159.8 127.651C159.651 127.899 159.576 128.186 159.576 128.511V133H157.776ZM165.846 133.134C165.247 133.134 164.71 132.98 164.236 132.672C163.762 132.364 163.387 131.916 163.112 131.33C162.837 130.743 162.699 130.03 162.699 129.192C162.699 128.343 162.839 127.627 163.117 127.044C163.399 126.457 163.778 126.015 164.256 125.717C164.733 125.415 165.265 125.264 165.851 125.264C166.299 125.264 166.667 125.34 166.955 125.493C167.243 125.642 167.472 125.823 167.641 126.035C167.81 126.244 167.941 126.441 168.034 126.626H168.108V122.818H169.913V133H168.143V131.797H168.034C167.941 131.982 167.807 132.18 167.631 132.388C167.456 132.594 167.224 132.77 166.935 132.915C166.647 133.061 166.284 133.134 165.846 133.134ZM166.349 131.658C166.73 131.658 167.055 131.555 167.323 131.349C167.591 131.141 167.795 130.851 167.934 130.479C168.074 130.108 168.143 129.676 168.143 129.182C168.143 128.688 168.074 128.259 167.934 127.894C167.799 127.53 167.596 127.246 167.328 127.044C167.063 126.842 166.736 126.741 166.349 126.741C165.948 126.741 165.613 126.845 165.344 127.054C165.076 127.263 164.874 127.551 164.738 127.919C164.602 128.287 164.534 128.708 164.534 129.182C164.534 129.659 164.602 130.085 164.738 130.46C164.877 130.831 165.081 131.124 165.349 131.339C165.621 131.552 165.954 131.658 166.349 131.658ZM177.866 127.382L176.226 127.561C176.179 127.395 176.098 127.24 175.982 127.094C175.87 126.948 175.717 126.83 175.525 126.741C175.333 126.651 175.097 126.607 174.819 126.607C174.444 126.607 174.129 126.688 173.874 126.85C173.622 127.013 173.498 127.223 173.501 127.482C173.498 127.704 173.579 127.884 173.745 128.023C173.914 128.163 174.192 128.277 174.58 128.366L175.883 128.645C176.605 128.801 177.142 129.048 177.494 129.386C177.848 129.724 178.027 130.166 178.031 130.713C178.027 131.194 177.886 131.618 177.608 131.986C177.333 132.35 176.95 132.635 176.46 132.841C175.969 133.046 175.406 133.149 174.769 133.149C173.835 133.149 173.082 132.954 172.512 132.562C171.942 132.168 171.602 131.62 171.493 130.917L173.248 130.748C173.327 131.093 173.496 131.353 173.755 131.528C174.013 131.704 174.35 131.792 174.764 131.792C175.192 131.792 175.535 131.704 175.793 131.528C176.055 131.353 176.186 131.136 176.186 130.877C176.186 130.658 176.102 130.478 175.933 130.335C175.767 130.193 175.508 130.083 175.157 130.007L173.854 129.734C173.122 129.581 172.58 129.324 172.229 128.963C171.877 128.598 171.703 128.138 171.707 127.581C171.703 127.11 171.831 126.703 172.089 126.358C172.351 126.01 172.714 125.741 173.178 125.553C173.646 125.36 174.184 125.264 174.794 125.264C175.689 125.264 176.393 125.455 176.907 125.836C177.424 126.217 177.744 126.732 177.866 127.382Z" fill="#6C757D"/>
<rect x="199.5" y="112.5" width="52" height="31" rx="5.5" fill="white"/>
<rect x="199.5" y="112.5" width="52" height="31" rx="5.5" stroke="#6C757D"/>
<path d="M212.004 133V122.818H218.527V124.364H213.849V127.129H218.08V128.675H213.849V133H212.004ZM220.128 133V125.364H221.928V133H220.128ZM221.033 124.28C220.748 124.28 220.502 124.185 220.297 123.996C220.091 123.804 219.989 123.574 219.989 123.305C219.989 123.034 220.091 122.803 220.297 122.614C220.502 122.422 220.748 122.326 221.033 122.326C221.321 122.326 221.566 122.422 221.768 122.614C221.974 122.803 222.077 123.034 222.077 123.305C222.077 123.574 221.974 123.804 221.768 123.996C221.566 124.185 221.321 124.28 221.033 124.28ZM229.814 127.382L228.173 127.561C228.127 127.395 228.046 127.24 227.93 127.094C227.817 126.948 227.664 126.83 227.472 126.741C227.28 126.651 227.045 126.607 226.766 126.607C226.392 126.607 226.077 126.688 225.822 126.85C225.57 127.013 225.445 127.223 225.449 127.482C225.445 127.704 225.527 127.884 225.692 128.023C225.861 128.163 226.14 128.277 226.528 128.366L227.83 128.645C228.553 128.801 229.09 129.048 229.441 129.386C229.796 129.724 229.974 130.166 229.978 130.713C229.974 131.194 229.834 131.618 229.555 131.986C229.28 132.35 228.897 132.635 228.407 132.841C227.916 133.046 227.353 133.149 226.716 133.149C225.782 133.149 225.029 132.954 224.459 132.562C223.889 132.168 223.55 131.62 223.44 130.917L225.195 130.748C225.275 131.093 225.444 131.353 225.702 131.528C225.961 131.704 226.297 131.792 226.711 131.792C227.139 131.792 227.482 131.704 227.741 131.528C228.002 131.353 228.133 131.136 228.133 130.877C228.133 130.658 228.049 130.478 227.88 130.335C227.714 130.193 227.456 130.083 227.104 130.007L225.802 129.734C225.069 129.581 224.527 129.324 224.176 128.963C223.825 128.598 223.651 128.138 223.654 127.581C223.651 127.11 223.778 126.703 224.037 126.358C224.299 126.01 224.662 125.741 225.126 125.553C225.593 125.36 226.131 125.264 226.741 125.264C227.636 125.264 228.34 125.455 228.854 125.836C229.371 126.217 229.691 126.732 229.814 127.382ZM233.262 128.526V133H231.462V122.818H233.222V126.661H233.311C233.49 126.23 233.767 125.891 234.142 125.642C234.519 125.39 235 125.264 235.583 125.264C236.114 125.264 236.576 125.375 236.97 125.597C237.365 125.819 237.67 126.144 237.885 126.572C238.104 126.999 238.213 127.521 238.213 128.138V133H236.414V128.416C236.414 127.902 236.281 127.503 236.016 127.218C235.754 126.93 235.386 126.786 234.912 126.786C234.594 126.786 234.309 126.855 234.057 126.994C233.808 127.13 233.613 127.327 233.47 127.586C233.331 127.844 233.262 128.158 233.262 128.526Z" fill="#6C757D"/>
</g>
<path d="M270 159H0V161H270V159Z" fill="#DEE2E6" mask="url(#path-3-inside-1_5548_5512)"/>
<g clip-path="url(#clip2_5548_5512)">
<mask id="path-14-inside-2_5548_5512" fill="white">
<path d="M0 160H270V339H0V160Z"/>
</mask>
<path d="M0 160H270V339H0V160Z" fill="white"/>
<rect width="306" height="35" transform="translate(0 168)" fill="white"/>
<path d="M27.108 183.29H24.983C24.9223 182.941 24.8106 182.633 24.6477 182.364C24.4848 182.091 24.2822 181.86 24.0398 181.67C23.7973 181.481 23.5208 181.339 23.2102 181.244C22.9034 181.146 22.572 181.097 22.2159 181.097C21.5833 181.097 21.0227 181.256 20.5341 181.574C20.0455 181.888 19.6629 182.35 19.3864 182.96C19.1098 183.566 18.9716 184.307 18.9716 185.182C18.9716 186.072 19.1098 186.822 19.3864 187.432C19.6667 188.038 20.0492 188.496 20.5341 188.807C21.0227 189.114 21.5814 189.267 22.2102 189.267C22.5587 189.267 22.8845 189.222 23.1875 189.131C23.4943 189.036 23.7689 188.898 24.0114 188.716C24.2576 188.534 24.464 188.311 24.6307 188.045C24.8011 187.78 24.9186 187.477 24.983 187.136L27.108 187.148C27.0284 187.701 26.8561 188.22 26.5909 188.705C26.3295 189.189 25.9867 189.617 25.5625 189.989C25.1383 190.356 24.642 190.644 24.0739 190.852C23.5057 191.057 22.875 191.159 22.1818 191.159C21.1591 191.159 20.2462 190.922 19.4432 190.449C18.6402 189.975 18.0076 189.292 17.5455 188.398C17.0833 187.504 16.8523 186.432 16.8523 185.182C16.8523 183.928 17.0852 182.856 17.5511 181.966C18.017 181.072 18.6515 180.388 19.4545 179.915C20.2576 179.441 21.1667 179.205 22.1818 179.205C22.8295 179.205 23.4318 179.295 23.9886 179.477C24.5455 179.659 25.0417 179.926 25.4773 180.278C25.9129 180.627 26.2708 181.055 26.5511 181.562C26.8352 182.066 27.0208 182.642 27.108 183.29ZM31.4588 191.176C30.9058 191.176 30.4077 191.078 29.9645 190.881C29.5251 190.68 29.1766 190.384 28.919 189.994C28.6652 189.604 28.5384 189.123 28.5384 188.551C28.5384 188.059 28.6293 187.652 28.8111 187.33C28.9929 187.008 29.241 186.75 29.5554 186.557C29.8698 186.364 30.224 186.218 30.6179 186.119C31.0156 186.017 31.4266 185.943 31.8509 185.898C32.3622 185.845 32.777 185.797 33.0952 185.756C33.4134 185.71 33.6444 185.642 33.7884 185.551C33.9361 185.456 34.0099 185.311 34.0099 185.114V185.08C34.0099 184.652 33.883 184.32 33.6293 184.085C33.3755 183.85 33.0099 183.733 32.5327 183.733C32.0289 183.733 31.6293 183.843 31.3338 184.062C31.0421 184.282 30.8452 184.542 30.7429 184.841L28.8224 184.568C28.974 184.038 29.224 183.595 29.5724 183.239C29.9209 182.879 30.3471 182.61 30.8509 182.432C31.3546 182.25 31.9115 182.159 32.5213 182.159C32.9418 182.159 33.3603 182.208 33.777 182.307C34.1937 182.405 34.5743 182.568 34.919 182.795C35.2637 183.019 35.5402 183.324 35.7486 183.71C35.9607 184.097 36.0668 184.58 36.0668 185.159V191H34.0895V189.801H34.0213C33.8963 190.044 33.7202 190.271 33.4929 190.483C33.2694 190.691 32.9872 190.86 32.6463 190.989C32.3092 191.114 31.9134 191.176 31.4588 191.176ZM31.9929 189.665C32.4058 189.665 32.7637 189.583 33.0668 189.42C33.3698 189.254 33.6027 189.034 33.7656 188.761C33.9323 188.489 34.0156 188.191 34.0156 187.869V186.841C33.9512 186.894 33.8414 186.943 33.6861 186.989C33.5346 187.034 33.3641 187.074 33.1747 187.108C32.9853 187.142 32.7978 187.172 32.6122 187.199C32.4266 187.225 32.2656 187.248 32.1293 187.267C31.8224 187.309 31.5478 187.377 31.3054 187.472C31.063 187.566 30.8717 187.699 30.7315 187.869C30.5914 188.036 30.5213 188.252 30.5213 188.517C30.5213 188.896 30.6596 189.182 30.9361 189.375C31.2126 189.568 31.5649 189.665 31.9929 189.665ZM42.4929 182.273V183.864H37.4759V182.273H42.4929ZM38.7145 180.182H40.7713V188.375C40.7713 188.652 40.813 188.864 40.8963 189.011C40.9834 189.155 41.0971 189.254 41.2372 189.307C41.3774 189.36 41.5327 189.386 41.7031 189.386C41.8319 189.386 41.9493 189.377 42.0554 189.358C42.1652 189.339 42.2486 189.322 42.3054 189.307L42.652 190.915C42.5421 190.953 42.3849 190.994 42.1804 191.04C41.9796 191.085 41.7334 191.112 41.4418 191.119C40.9266 191.134 40.4626 191.057 40.0497 190.886C39.6368 190.712 39.3092 190.443 39.0668 190.08C38.8281 189.716 38.7107 189.261 38.7145 188.716V180.182ZM47.983 191.17C47.108 191.17 46.3523 190.989 45.7159 190.625C45.0833 190.258 44.5966 189.739 44.2557 189.068C43.9148 188.394 43.7443 187.6 43.7443 186.688C43.7443 185.79 43.9148 185.002 44.2557 184.324C44.6004 183.642 45.0814 183.112 45.6989 182.733C46.3163 182.35 47.0417 182.159 47.875 182.159C48.4129 182.159 48.9205 182.246 49.3977 182.42C49.8788 182.591 50.303 182.856 50.6705 183.216C51.0417 183.576 51.3333 184.034 51.5455 184.591C51.7576 185.144 51.8636 185.803 51.8636 186.568V187.199H44.7102V185.812H49.892C49.8883 185.419 49.803 185.068 49.6364 184.761C49.4697 184.451 49.2367 184.206 48.9375 184.028C48.642 183.85 48.2973 183.761 47.9034 183.761C47.483 183.761 47.1136 183.864 46.7955 184.068C46.4773 184.269 46.2292 184.534 46.0511 184.864C45.8769 185.189 45.7879 185.547 45.7841 185.938V187.148C45.7841 187.655 45.8769 188.091 46.0625 188.455C46.2481 188.814 46.5076 189.091 46.8409 189.284C47.1742 189.473 47.5644 189.568 48.0114 189.568C48.3106 189.568 48.5814 189.527 48.8239 189.443C49.0663 189.356 49.2765 189.229 49.4545 189.062C49.6326 188.896 49.767 188.689 49.858 188.443L51.7784 188.659C51.6572 189.167 51.4261 189.61 51.0852 189.989C50.7481 190.364 50.3163 190.655 49.7898 190.864C49.2633 191.068 48.661 191.17 47.983 191.17ZM57.3991 194.455C56.6605 194.455 56.026 194.354 55.4957 194.153C54.9654 193.956 54.5393 193.691 54.2173 193.358C53.8954 193.025 53.6719 192.655 53.5469 192.25L55.3991 191.801C55.4825 191.972 55.6037 192.14 55.7628 192.307C55.9219 192.477 56.1359 192.617 56.4048 192.727C56.6776 192.841 57.0204 192.898 57.4332 192.898C58.0166 192.898 58.4995 192.756 58.8821 192.472C59.2647 192.191 59.456 191.729 59.456 191.085V189.432H59.3537C59.2476 189.644 59.0923 189.862 58.8878 190.085C58.687 190.309 58.42 190.496 58.0866 190.648C57.7571 190.799 57.3423 190.875 56.8423 190.875C56.1719 190.875 55.5639 190.718 55.0185 190.403C54.4768 190.085 54.045 189.612 53.723 188.983C53.4048 188.35 53.2457 187.559 53.2457 186.608C53.2457 185.65 53.4048 184.841 53.723 184.182C54.045 183.519 54.4787 183.017 55.0241 182.676C55.5696 182.331 56.1776 182.159 56.848 182.159C57.3594 182.159 57.7798 182.246 58.1094 182.42C58.4427 182.591 58.7079 182.797 58.9048 183.04C59.1018 183.278 59.2514 183.504 59.3537 183.716H59.4673V182.273H61.4957V191.142C61.4957 191.888 61.3177 192.506 60.9616 192.994C60.6056 193.483 60.1188 193.848 59.5014 194.091C58.884 194.333 58.1832 194.455 57.3991 194.455ZM57.4162 189.261C57.8518 189.261 58.223 189.155 58.5298 188.943C58.8366 188.731 59.0696 188.426 59.2287 188.028C59.3878 187.631 59.4673 187.153 59.4673 186.597C59.4673 186.047 59.3878 185.566 59.2287 185.153C59.0734 184.741 58.8423 184.42 58.5355 184.193C58.2325 183.962 57.8594 183.847 57.4162 183.847C56.9579 183.847 56.5753 183.966 56.2685 184.205C55.9616 184.443 55.7306 184.771 55.5753 185.188C55.42 185.6 55.3423 186.07 55.3423 186.597C55.3423 187.131 55.42 187.598 55.5753 188C55.7344 188.398 55.9673 188.708 56.2741 188.932C56.5848 189.152 56.9654 189.261 57.4162 189.261ZM67.4105 191.17C66.5582 191.17 65.8196 190.983 65.1946 190.608C64.5696 190.233 64.0848 189.708 63.7401 189.034C63.3991 188.36 63.2287 187.572 63.2287 186.67C63.2287 185.769 63.3991 184.979 63.7401 184.301C64.0848 183.623 64.5696 183.097 65.1946 182.722C65.8196 182.347 66.5582 182.159 67.4105 182.159C68.2628 182.159 69.0014 182.347 69.6264 182.722C70.2514 183.097 70.7344 183.623 71.0753 184.301C71.42 184.979 71.5923 185.769 71.5923 186.67C71.5923 187.572 71.42 188.36 71.0753 189.034C70.7344 189.708 70.2514 190.233 69.6264 190.608C69.0014 190.983 68.2628 191.17 67.4105 191.17ZM67.4219 189.523C67.884 189.523 68.2704 189.396 68.581 189.142C68.8916 188.884 69.1226 188.54 69.2741 188.108C69.4295 187.676 69.5071 187.195 69.5071 186.665C69.5071 186.131 69.4295 185.648 69.2741 185.216C69.1226 184.78 68.8916 184.434 68.581 184.176C68.2704 183.919 67.884 183.79 67.4219 183.79C66.9484 183.79 66.5545 183.919 66.2401 184.176C65.9295 184.434 65.6965 184.78 65.5412 185.216C65.3897 185.648 65.3139 186.131 65.3139 186.665C65.3139 187.195 65.3897 187.676 65.5412 188.108C65.6965 188.54 65.9295 188.884 66.2401 189.142C66.5545 189.396 66.9484 189.523 67.4219 189.523ZM73.3381 191V182.273H75.3324V183.727H75.4233C75.5824 183.223 75.8551 182.835 76.2415 182.562C76.6316 182.286 77.0767 182.148 77.5767 182.148C77.6903 182.148 77.8172 182.153 77.9574 182.165C78.1013 182.172 78.2206 182.186 78.3153 182.205V184.097C78.2282 184.066 78.09 184.04 77.9006 184.017C77.715 183.991 77.535 183.977 77.3608 183.977C76.9858 183.977 76.6487 184.059 76.3494 184.222C76.054 184.381 75.821 184.602 75.6506 184.886C75.4801 185.17 75.3949 185.498 75.3949 185.869V191H73.3381ZM79.6818 191V182.273H81.7386V191H79.6818ZM80.7159 181.034C80.3902 181.034 80.1098 180.926 79.875 180.71C79.6402 180.491 79.5227 180.227 79.5227 179.92C79.5227 179.61 79.6402 179.347 79.875 179.131C80.1098 178.911 80.3902 178.801 80.7159 178.801C81.0455 178.801 81.3258 178.911 81.5568 179.131C81.7917 179.347 81.9091 179.61 81.9091 179.92C81.9091 180.227 81.7917 180.491 81.5568 180.71C81.3258 180.926 81.0455 181.034 80.7159 181.034ZM87.7173 191.17C86.8423 191.17 86.0866 190.989 85.4503 190.625C84.8177 190.258 84.331 189.739 83.9901 189.068C83.6491 188.394 83.4787 187.6 83.4787 186.688C83.4787 185.79 83.6491 185.002 83.9901 184.324C84.3348 183.642 84.8158 183.112 85.4332 182.733C86.0507 182.35 86.776 182.159 87.6094 182.159C88.1473 182.159 88.6548 182.246 89.1321 182.42C89.6132 182.591 90.0374 182.856 90.4048 183.216C90.776 183.576 91.0677 184.034 91.2798 184.591C91.492 185.144 91.598 185.803 91.598 186.568V187.199H84.4446V185.812H89.6264C89.6226 185.419 89.5374 185.068 89.3707 184.761C89.2041 184.451 88.9711 184.206 88.6719 184.028C88.3764 183.85 88.0317 183.761 87.6378 183.761C87.2173 183.761 86.848 183.864 86.5298 184.068C86.2116 184.269 85.9635 184.534 85.7855 184.864C85.6113 185.189 85.5223 185.547 85.5185 185.938V187.148C85.5185 187.655 85.6113 188.091 85.7969 188.455C85.9825 188.814 86.242 189.091 86.5753 189.284C86.9086 189.473 87.2988 189.568 87.7457 189.568C88.045 189.568 88.3158 189.527 88.5582 189.443C88.8007 189.356 89.0109 189.229 89.1889 189.062C89.367 188.896 89.5014 188.689 89.5923 188.443L91.5128 188.659C91.3916 189.167 91.1605 189.61 90.8196 189.989C90.4825 190.364 90.0507 190.655 89.5241 190.864C88.9976 191.068 88.3954 191.17 87.7173 191.17ZM100.236 184.58L98.3608 184.784C98.3078 184.595 98.215 184.417 98.0824 184.25C97.9536 184.083 97.7794 183.949 97.5597 183.847C97.34 183.744 97.071 183.693 96.7528 183.693C96.3248 183.693 95.965 183.786 95.6733 183.972C95.3854 184.157 95.2434 184.398 95.2472 184.693C95.2434 184.947 95.3362 185.153 95.5256 185.312C95.7188 185.472 96.0369 185.602 96.4801 185.705L97.9688 186.023C98.7945 186.201 99.4081 186.483 99.8097 186.869C100.215 187.256 100.42 187.761 100.423 188.386C100.42 188.936 100.259 189.42 99.9403 189.841C99.6259 190.258 99.1884 190.583 98.6278 190.818C98.0672 191.053 97.4233 191.17 96.696 191.17C95.6278 191.17 94.768 190.947 94.1165 190.5C93.465 190.049 93.0767 189.422 92.9517 188.619L94.9574 188.426C95.0483 188.82 95.2415 189.117 95.5369 189.318C95.8324 189.519 96.2169 189.619 96.6903 189.619C97.179 189.619 97.571 189.519 97.8665 189.318C98.1657 189.117 98.3153 188.869 98.3153 188.574C98.3153 188.324 98.2188 188.117 98.0256 187.955C97.8362 187.792 97.5407 187.667 97.1392 187.58L95.6506 187.267C94.8134 187.093 94.1941 186.799 93.7926 186.386C93.3911 185.97 93.1922 185.443 93.196 184.807C93.1922 184.269 93.3381 183.803 93.6335 183.409C93.9328 183.011 94.3475 182.705 94.8778 182.489C95.4119 182.269 96.0275 182.159 96.7244 182.159C97.7472 182.159 98.5521 182.377 99.1392 182.812C99.7301 183.248 100.096 183.837 100.236 184.58Z" fill="#343A40"/>
<rect x="16.5" y="211.5" width="57" height="31" rx="5.5" fill="white"/>
<rect x="16.5" y="211.5" width="57" height="31" rx="5.5" stroke="#6C757D"/>
<path d="M29.0043 232V221.818H35.527V223.364H30.8487V226.129H35.0795V227.675H30.8487V232H29.0043ZM39.8983 232.149C39.1525 232.149 38.5062 231.985 37.9593 231.657C37.4125 231.329 36.9882 230.87 36.6866 230.28C36.3883 229.69 36.2392 229 36.2392 228.212C36.2392 227.423 36.3883 226.732 36.6866 226.138C36.9882 225.545 37.4125 225.085 37.9593 224.756C38.5062 224.428 39.1525 224.264 39.8983 224.264C40.644 224.264 41.2903 224.428 41.8372 224.756C42.3841 225.085 42.8066 225.545 43.1049 226.138C43.4065 226.732 43.5574 227.423 43.5574 228.212C43.5574 229 43.4065 229.69 43.1049 230.28C42.8066 230.87 42.3841 231.329 41.8372 231.657C41.2903 231.985 40.644 232.149 39.8983 232.149ZM39.9082 230.707C40.3126 230.707 40.6506 230.596 40.9224 230.374C41.1942 230.149 41.3964 229.847 41.5289 229.469C41.6648 229.092 41.7328 228.671 41.7328 228.207C41.7328 227.739 41.6648 227.317 41.5289 226.939C41.3964 226.558 41.1942 226.254 40.9224 226.029C40.6506 225.804 40.3126 225.691 39.9082 225.691C39.4939 225.691 39.1492 225.804 38.8741 226.029C38.6023 226.254 38.3985 226.558 38.2626 226.939C38.13 227.317 38.0637 227.739 38.0637 228.207C38.0637 228.671 38.13 229.092 38.2626 229.469C38.3985 229.847 38.6023 230.149 38.8741 230.374C39.1492 230.596 39.4939 230.707 39.9082 230.707ZM48.4158 232.149C47.6701 232.149 47.0238 231.985 46.4769 231.657C45.93 231.329 45.5058 230.87 45.2042 230.28C44.9059 229.69 44.7567 229 44.7567 228.212C44.7567 227.423 44.9059 226.732 45.2042 226.138C45.5058 225.545 45.93 225.085 46.4769 224.756C47.0238 224.428 47.6701 224.264 48.4158 224.264C49.1616 224.264 49.8079 224.428 50.3548 224.756C50.9016 225.085 51.3242 225.545 51.6225 226.138C51.9241 226.732 52.0749 227.423 52.0749 228.212C52.0749 229 51.9241 229.69 51.6225 230.28C51.3242 230.87 50.9016 231.329 50.3548 231.657C49.8079 231.985 49.1616 232.149 48.4158 232.149ZM48.4258 230.707C48.8301 230.707 49.1682 230.596 49.44 230.374C49.7118 230.149 49.9139 229.847 50.0465 229.469C50.1824 229.092 50.2504 228.671 50.2504 228.207C50.2504 227.739 50.1824 227.317 50.0465 226.939C49.9139 226.558 49.7118 226.254 49.44 226.029C49.1682 225.804 48.8301 225.691 48.4258 225.691C48.0115 225.691 47.6668 225.804 47.3917 226.029C47.1199 226.254 46.9161 226.558 46.7802 226.939C46.6476 227.317 46.5813 227.739 46.5813 228.207C46.5813 228.671 46.6476 229.092 46.7802 229.469C46.9161 229.847 47.1199 230.149 47.3917 230.374C47.6668 230.596 48.0115 230.707 48.4258 230.707ZM56.4363 232.134C55.8364 232.134 55.2994 231.98 54.8255 231.672C54.3515 231.364 53.977 230.916 53.7019 230.33C53.4268 229.743 53.2892 229.03 53.2892 228.192C53.2892 227.343 53.4284 226.627 53.7069 226.044C53.9886 225.457 54.3681 225.015 54.8453 224.717C55.3226 224.415 55.8546 224.264 56.4412 224.264C56.8887 224.264 57.2566 224.34 57.5449 224.493C57.8333 224.642 58.062 224.823 58.231 225.035C58.4 225.244 58.531 225.441 58.6238 225.626H58.6983V221.818H60.503V232H58.7331V230.797H58.6238C58.531 230.982 58.3967 231.18 58.2211 231.388C58.0454 231.594 57.8134 231.77 57.525 231.915C57.2367 232.061 56.8738 232.134 56.4363 232.134ZM56.9384 230.658C57.3195 230.658 57.6444 230.555 57.9128 230.349C58.1813 230.141 58.3851 229.851 58.5243 229.479C58.6635 229.108 58.7331 228.676 58.7331 228.182C58.7331 227.688 58.6635 227.259 58.5243 226.894C58.3884 226.53 58.1863 226.246 57.9178 226.044C57.6526 225.842 57.3262 225.741 56.9384 225.741C56.5373 225.741 56.2026 225.845 55.9341 226.054C55.6657 226.263 55.4635 226.551 55.3276 226.919C55.1917 227.287 55.1238 227.708 55.1238 228.182C55.1238 228.659 55.1917 229.085 55.3276 229.46C55.4668 229.831 55.6706 230.124 55.9391 230.339C56.2109 230.552 56.544 230.658 56.9384 230.658Z" fill="#6C757D"/>
<rect x="82.5" y="211.5" width="56" height="31" rx="5.5" fill="white"/>
<rect x="82.5" y="211.5" width="56" height="31" rx="5.5" stroke="#6C757D"/>
<path d="M94.5568 223.364V221.818H102.68V223.364H99.5334V232H97.7038V223.364H94.5568ZM106.39 232.149C105.645 232.149 104.998 231.985 104.452 231.657C103.905 231.329 103.48 230.87 103.179 230.28C102.881 229.69 102.731 229 102.731 228.212C102.731 227.423 102.881 226.732 103.179 226.138C103.48 225.545 103.905 225.085 104.452 224.756C104.998 224.428 105.645 224.264 106.39 224.264C107.136 224.264 107.782 224.428 108.329 224.756C108.876 225.085 109.299 225.545 109.597 226.138C109.899 226.732 110.05 227.423 110.05 228.212C110.05 229 109.899 229.69 109.597 230.28C109.299 230.87 108.876 231.329 108.329 231.657C107.782 231.985 107.136 232.149 106.39 232.149ZM106.4 230.707C106.805 230.707 107.143 230.596 107.415 230.374C107.686 230.149 107.889 229.847 108.021 229.469C108.157 229.092 108.225 228.671 108.225 228.207C108.225 227.739 108.157 227.317 108.021 226.939C107.889 226.558 107.686 226.254 107.415 226.029C107.143 225.804 106.805 225.691 106.4 225.691C105.986 225.691 105.641 225.804 105.366 226.029C105.095 226.254 104.891 226.558 104.755 226.939C104.622 227.317 104.556 227.739 104.556 228.207C104.556 228.671 104.622 229.092 104.755 229.469C104.891 229.847 105.095 230.149 105.366 230.374C105.641 230.596 105.986 230.707 106.4 230.707ZM112.436 234.864C112.191 234.864 111.964 234.844 111.755 234.804C111.549 234.768 111.385 234.724 111.263 234.675L111.68 233.273C111.942 233.349 112.176 233.385 112.381 233.382C112.587 233.379 112.767 233.314 112.923 233.188C113.082 233.066 113.216 232.86 113.326 232.572L113.48 232.159L110.711 224.364H112.62L114.38 230.131H114.459L116.224 224.364H118.138L115.081 232.925C114.938 233.329 114.749 233.675 114.514 233.964C114.279 234.255 113.99 234.478 113.649 234.63C113.311 234.786 112.907 234.864 112.436 234.864ZM125.419 226.382L123.779 226.561C123.732 226.395 123.651 226.24 123.535 226.094C123.422 225.948 123.27 225.83 123.078 225.741C122.885 225.651 122.65 225.607 122.372 225.607C121.997 225.607 121.682 225.688 121.427 225.85C121.175 226.013 121.051 226.223 121.054 226.482C121.051 226.704 121.132 226.884 121.298 227.023C121.467 227.163 121.745 227.277 122.133 227.366L123.436 227.645C124.158 227.801 124.695 228.048 125.046 228.386C125.401 228.724 125.58 229.166 125.583 229.713C125.58 230.194 125.439 230.618 125.161 230.986C124.886 231.35 124.503 231.635 124.012 231.841C123.522 232.046 122.958 232.149 122.322 232.149C121.387 232.149 120.635 231.954 120.065 231.562C119.495 231.168 119.155 230.62 119.046 229.917L120.801 229.748C120.88 230.093 121.049 230.353 121.308 230.528C121.566 230.704 121.903 230.792 122.317 230.792C122.744 230.792 123.088 230.704 123.346 230.528C123.608 230.353 123.739 230.136 123.739 229.877C123.739 229.658 123.654 229.478 123.485 229.335C123.32 229.193 123.061 229.083 122.71 229.007L121.407 228.734C120.675 228.581 120.133 228.324 119.781 227.963C119.43 227.598 119.256 227.138 119.259 226.581C119.256 226.11 119.384 225.703 119.642 225.358C119.904 225.01 120.267 224.741 120.731 224.553C121.198 224.36 121.737 224.264 122.347 224.264C123.242 224.264 123.946 224.455 124.46 224.836C124.977 225.217 125.297 225.732 125.419 226.382Z" fill="#6C757D"/>
<rect x="147.5" y="211.5" width="64" height="31" rx="5.5" fill="white"/>
<rect x="147.5" y="211.5" width="64" height="31" rx="5.5" stroke="#6C757D"/>
<path d="M160.004 232V221.818H163.902C164.638 221.818 165.249 221.934 165.737 222.166C166.227 222.395 166.593 222.708 166.835 223.106C167.08 223.504 167.203 223.954 167.203 224.458C167.203 224.872 167.124 225.227 166.964 225.522C166.805 225.814 166.592 226.051 166.323 226.233C166.055 226.415 165.755 226.546 165.423 226.626V226.725C165.785 226.745 166.131 226.856 166.462 227.058C166.797 227.257 167.071 227.539 167.283 227.903C167.495 228.268 167.601 228.709 167.601 229.226C167.601 229.753 167.473 230.227 167.218 230.648C166.963 231.065 166.578 231.395 166.065 231.637C165.551 231.879 164.905 232 164.126 232H160.004ZM161.849 230.459H163.832C164.502 230.459 164.984 230.331 165.279 230.076C165.577 229.817 165.727 229.486 165.727 229.082C165.727 228.78 165.652 228.508 165.503 228.266C165.354 228.021 165.142 227.829 164.866 227.69C164.591 227.547 164.263 227.476 163.882 227.476H161.849V230.459ZM161.849 226.148H163.673C163.991 226.148 164.278 226.09 164.533 225.974C164.789 225.855 164.989 225.688 165.135 225.472C165.284 225.254 165.359 224.995 165.359 224.697C165.359 224.302 165.219 223.978 164.941 223.722C164.666 223.467 164.257 223.339 163.713 223.339H161.849V226.148ZM172.457 232.149C171.711 232.149 171.065 231.985 170.518 231.657C169.971 231.329 169.547 230.87 169.245 230.28C168.947 229.69 168.798 229 168.798 228.212C168.798 227.423 168.947 226.732 169.245 226.138C169.547 225.545 169.971 225.085 170.518 224.756C171.065 224.428 171.711 224.264 172.457 224.264C173.203 224.264 173.849 224.428 174.396 224.756C174.943 225.085 175.365 225.545 175.664 226.138C175.965 226.732 176.116 227.423 176.116 228.212C176.116 229 175.965 229.69 175.664 230.28C175.365 230.87 174.943 231.329 174.396 231.657C173.849 231.985 173.203 232.149 172.457 232.149ZM172.467 230.707C172.871 230.707 173.209 230.596 173.481 230.374C173.753 230.149 173.955 229.847 174.088 229.469C174.223 229.092 174.291 228.671 174.291 228.207C174.291 227.739 174.223 227.317 174.088 226.939C173.955 226.558 173.753 226.254 173.481 226.029C173.209 225.804 172.871 225.691 172.467 225.691C172.052 225.691 171.708 225.804 171.433 226.029C171.161 226.254 170.957 226.558 170.821 226.939C170.689 227.317 170.622 227.739 170.622 228.207C170.622 228.671 170.689 229.092 170.821 229.469C170.957 229.847 171.161 230.149 171.433 230.374C171.708 230.596 172.052 230.707 172.467 230.707ZM179.001 232L176.843 224.364H178.678L180.02 229.733H180.089L181.462 224.364H183.276L184.648 229.703H184.723L186.045 224.364H187.885L185.722 232H183.848L182.416 226.839H182.312L180.88 232H179.001ZM190.941 221.818V232H189.142V221.818H190.941ZM198.827 226.382L197.187 226.561C197.14 226.395 197.059 226.24 196.943 226.094C196.83 225.948 196.678 225.83 196.486 225.741C196.294 225.651 196.058 225.607 195.78 225.607C195.405 225.607 195.09 225.688 194.835 225.85C194.583 226.013 194.459 226.223 194.462 226.482C194.459 226.704 194.54 226.884 194.706 227.023C194.875 227.163 195.153 227.277 195.541 227.366L196.844 227.645C197.566 227.801 198.103 228.048 198.455 228.386C198.809 228.724 198.988 229.166 198.991 229.713C198.988 230.194 198.847 230.618 198.569 230.986C198.294 231.35 197.911 231.635 197.42 231.841C196.93 232.046 196.366 232.149 195.73 232.149C194.795 232.149 194.043 231.954 193.473 231.562C192.903 231.168 192.563 230.62 192.454 229.917L194.209 229.748C194.288 230.093 194.457 230.353 194.716 230.528C194.974 230.704 195.311 230.792 195.725 230.792C196.153 230.792 196.496 230.704 196.754 230.528C197.016 230.353 197.147 230.136 197.147 229.877C197.147 229.658 197.063 229.478 196.893 229.335C196.728 229.193 196.469 229.083 196.118 229.007L194.815 228.734C194.083 228.581 193.541 228.324 193.19 227.963C192.838 227.598 192.664 227.138 192.668 226.581C192.664 226.11 192.792 225.703 193.05 225.358C193.312 225.01 193.675 224.741 194.139 224.553C194.607 224.36 195.145 224.264 195.755 224.264C196.65 224.264 197.354 224.455 197.868 224.836C198.385 225.217 198.705 225.732 198.827 226.382Z" fill="#6C757D"/>
<rect x="16.5" y="251.5" width="90" height="31" rx="5.5" fill="white"/>
<rect x="16.5" y="251.5" width="90" height="31" rx="5.5" stroke="#6C757D"/>
<path d="M35.8253 265.07C35.7424 264.801 35.6281 264.561 35.4822 264.349C35.3397 264.133 35.1674 263.949 34.9652 263.797C34.7663 263.644 34.5376 263.53 34.2791 263.454C34.0206 263.374 33.7389 263.335 33.4339 263.335C32.8871 263.335 32.3999 263.472 31.9723 263.747C31.5447 264.022 31.2083 264.427 30.9631 264.96C30.7211 265.491 30.6001 266.137 30.6001 266.899C30.6001 267.668 30.7211 268.319 30.9631 268.853C31.205 269.387 31.5414 269.793 31.9723 270.071C32.4032 270.346 32.9036 270.484 33.4737 270.484C33.9908 270.484 34.4382 270.384 34.8161 270.185C35.1972 269.987 35.4905 269.705 35.696 269.34C35.9015 268.972 36.0043 268.541 36.0043 268.048L36.4219 268.112H33.6577V266.67H37.7891V267.893C37.7891 268.765 37.6035 269.519 37.2322 270.156C36.861 270.792 36.3506 271.282 35.701 271.627C35.0514 271.969 34.3056 272.139 33.4638 272.139C32.5258 272.139 31.7022 271.929 30.9929 271.508C30.2869 271.084 29.7351 270.482 29.3374 269.703C28.9429 268.921 28.7457 267.993 28.7457 266.919C28.7457 266.097 28.8617 265.363 29.0938 264.717C29.3291 264.07 29.6572 263.522 30.0781 263.071C30.4991 262.617 30.9929 262.272 31.5597 262.037C32.1264 261.798 32.7429 261.679 33.4091 261.679C33.9725 261.679 34.4979 261.762 34.9851 261.928C35.4723 262.09 35.9048 262.322 36.2827 262.624C36.6638 262.925 36.977 263.283 37.2223 263.697C37.4676 264.112 37.6283 264.569 37.7045 265.07H35.8253ZM39.4931 272V264.364H41.2381V265.636H41.3176C41.4569 265.196 41.6955 264.856 42.0336 264.617C42.3749 264.375 42.7644 264.254 43.2019 264.254C43.3013 264.254 43.4123 264.259 43.535 264.269C43.6609 264.276 43.7653 264.287 43.8482 264.304V265.96C43.772 265.933 43.651 265.91 43.4853 265.89C43.3229 265.867 43.1654 265.855 43.013 265.855C42.6848 265.855 42.3899 265.926 42.128 266.069C41.8695 266.208 41.6657 266.402 41.5165 266.651C41.3674 266.899 41.2928 267.186 41.2928 267.511V272H39.4931ZM48.0604 272.149C47.3146 272.149 46.6683 271.985 46.1214 271.657C45.5746 271.329 45.1503 270.87 44.8487 270.28C44.5504 269.69 44.4013 269 44.4013 268.212C44.4013 267.423 44.5504 266.732 44.8487 266.138C45.1503 265.545 45.5746 265.085 46.1214 264.756C46.6683 264.428 47.3146 264.264 48.0604 264.264C48.8061 264.264 49.4524 264.428 49.9993 264.756C50.5462 265.085 50.9688 265.545 51.267 266.138C51.5687 266.732 51.7195 267.423 51.7195 268.212C51.7195 269 51.5687 269.69 51.267 270.28C50.9688 270.87 50.5462 271.329 49.9993 271.657C49.4524 271.985 48.8061 272.149 48.0604 272.149ZM48.0703 270.707C48.4747 270.707 48.8127 270.596 49.0845 270.374C49.3563 270.149 49.5585 269.847 49.6911 269.469C49.8269 269.092 49.8949 268.671 49.8949 268.207C49.8949 267.739 49.8269 267.317 49.6911 266.939C49.5585 266.558 49.3563 266.254 49.0845 266.029C48.8127 265.804 48.4747 265.691 48.0703 265.691C47.656 265.691 47.3113 265.804 47.0362 266.029C46.7644 266.254 46.5606 266.558 46.4247 266.939C46.2921 267.317 46.2259 267.739 46.2259 268.207C46.2259 268.671 46.2921 269.092 46.4247 269.469C46.5606 269.847 46.7644 270.149 47.0362 270.374C47.3113 270.596 47.656 270.707 48.0703 270.707ZM56.5779 272.149C55.8322 272.149 55.1859 271.985 54.639 271.657C54.0922 271.329 53.6679 270.87 53.3663 270.28C53.068 269.69 52.9189 269 52.9189 268.212C52.9189 267.423 53.068 266.732 53.3663 266.138C53.6679 265.545 54.0922 265.085 54.639 264.756C55.1859 264.428 55.8322 264.264 56.5779 264.264C57.3237 264.264 57.97 264.428 58.5169 264.756C59.0637 265.085 59.4863 265.545 59.7846 266.138C60.0862 266.732 60.237 267.423 60.237 268.212C60.237 269 60.0862 269.69 59.7846 270.28C59.4863 270.87 59.0637 271.329 58.5169 271.657C57.97 271.985 57.3237 272.149 56.5779 272.149ZM56.5879 270.707C56.9922 270.707 57.3303 270.596 57.6021 270.374C57.8739 270.149 58.0761 269.847 58.2086 269.469C58.3445 269.092 58.4125 268.671 58.4125 268.207C58.4125 267.739 58.3445 267.317 58.2086 266.939C58.0761 266.558 57.8739 266.254 57.6021 266.029C57.3303 265.804 56.9922 265.691 56.5879 265.691C56.1736 265.691 55.8289 265.804 55.5538 266.029C55.282 266.254 55.0782 266.558 54.9423 266.939C54.8097 267.317 54.7434 267.739 54.7434 268.207C54.7434 268.671 54.8097 269.092 54.9423 269.469C55.0782 269.847 55.282 270.149 55.5538 270.374C55.8289 270.596 56.1736 270.707 56.5879 270.707ZM61.7646 272V264.364H63.4847V265.661H63.5742C63.7333 265.224 63.9968 264.882 64.3647 264.637C64.7326 264.388 65.1718 264.264 65.6822 264.264C66.1992 264.264 66.6351 264.39 66.9897 264.642C67.3477 264.891 67.5996 265.23 67.7454 265.661H67.8249C67.994 265.237 68.279 264.899 68.68 264.647C69.0844 264.392 69.5633 264.264 70.1168 264.264C70.8195 264.264 71.3929 264.486 71.837 264.93C72.2811 265.375 72.5032 266.022 72.5032 266.874V272H70.6985V267.153C70.6985 266.679 70.5726 266.332 70.3207 266.114C70.0688 265.892 69.7605 265.781 69.396 265.781C68.9618 265.781 68.622 265.916 68.3768 266.188C68.1348 266.457 68.0138 266.806 68.0138 267.237V272H66.2489V267.078C66.2489 266.684 66.1296 266.369 65.891 266.134C65.6557 265.898 65.3474 265.781 64.9663 265.781C64.7077 265.781 64.4724 265.847 64.2603 265.979C64.0482 266.109 63.8791 266.293 63.7532 266.531C63.6272 266.767 63.5643 267.042 63.5643 267.357V272H61.7646ZM74.329 272V264.364H76.1287V272H74.329ZM75.2338 263.28C74.9488 263.28 74.7035 263.185 74.498 262.996C74.2926 262.804 74.1898 262.574 74.1898 262.305C74.1898 262.034 74.2926 261.803 74.498 261.614C74.7035 261.422 74.9488 261.326 75.2338 261.326C75.5222 261.326 75.7675 261.422 75.9696 261.614C76.1751 261.803 76.2779 262.034 76.2779 262.305C76.2779 262.574 76.1751 262.804 75.9696 262.996C75.7675 263.185 75.5222 263.28 75.2338 263.28ZM79.7791 267.526V272H77.9794V264.364H79.6996V265.661H79.7891C79.9647 265.234 80.2448 264.894 80.6293 264.642C81.017 264.39 81.496 264.264 82.0661 264.264C82.593 264.264 83.0521 264.377 83.4432 264.602C83.8376 264.828 84.1425 265.154 84.358 265.582C84.5767 266.009 84.6844 266.528 84.6811 267.138V272H82.8814V267.416C82.8814 266.906 82.7488 266.506 82.4837 266.218C82.2218 265.93 81.8589 265.786 81.3949 265.786C81.08 265.786 80.8 265.855 80.5547 265.994C80.3127 266.13 80.1222 266.327 79.983 266.586C79.8471 266.844 79.7791 267.158 79.7791 267.526ZM89.8317 275.023C89.1854 275.023 88.6302 274.935 88.1662 274.759C87.7022 274.587 87.3293 274.355 87.0476 274.063C86.7659 273.772 86.5703 273.448 86.4609 273.094L88.0817 272.701C88.1546 272.85 88.2607 272.998 88.3999 273.143C88.5391 273.293 88.7263 273.415 88.9616 273.511C89.2003 273.611 89.5002 273.661 89.8615 273.661C90.3719 273.661 90.7945 273.536 91.1293 273.288C91.464 273.042 91.6314 272.638 91.6314 272.075V270.628H91.5419C91.4491 270.813 91.3132 271.004 91.1342 271.2C90.9586 271.395 90.7249 271.559 90.4332 271.692C90.1449 271.824 89.782 271.891 89.3445 271.891C88.7578 271.891 88.2259 271.753 87.7486 271.478C87.2746 271.2 86.8968 270.785 86.6151 270.235C86.3366 269.682 86.1974 268.989 86.1974 268.157C86.1974 267.318 86.3366 266.611 86.6151 266.034C86.8968 265.454 87.2763 265.015 87.7536 264.717C88.2308 264.415 88.7628 264.264 89.3494 264.264C89.7969 264.264 90.1648 264.34 90.4531 264.493C90.7448 264.642 90.9768 264.823 91.1491 265.035C91.3215 265.244 91.4524 265.441 91.5419 265.626H91.6413V264.364H93.4162V272.124C93.4162 272.777 93.2604 273.317 92.9489 273.745C92.6373 274.173 92.2114 274.492 91.6712 274.705C91.1309 274.917 90.5178 275.023 89.8317 275.023ZM89.8466 270.479C90.2277 270.479 90.5526 270.386 90.821 270.2C91.0895 270.015 91.2933 269.748 91.4325 269.4C91.5717 269.052 91.6413 268.634 91.6413 268.147C91.6413 267.666 91.5717 267.246 91.4325 266.884C91.2966 266.523 91.0945 266.243 90.826 266.044C90.5608 265.842 90.2344 265.741 89.8466 265.741C89.4455 265.741 89.1108 265.845 88.8423 266.054C88.5739 266.263 88.3717 266.549 88.2358 266.914C88.0999 267.275 88.032 267.686 88.032 268.147C88.032 268.614 88.0999 269.024 88.2358 269.375C88.375 269.723 88.5788 269.995 88.8473 270.19C89.1191 270.383 89.4522 270.479 89.8466 270.479Z" fill="#6C757D"/>
<rect x="115.5" y="251.5" width="58" height="31" rx="5.5" fill="white"/>
<rect x="115.5" y="251.5" width="58" height="31" rx="5.5" stroke="#6C757D"/>
<path d="M128.004 272V261.818H131.902C132.638 261.818 133.249 261.934 133.737 262.166C134.227 262.395 134.593 262.708 134.835 263.106C135.08 263.504 135.203 263.954 135.203 264.458C135.203 264.872 135.124 265.227 134.964 265.522C134.805 265.814 134.592 266.051 134.323 266.233C134.055 266.415 133.755 266.546 133.423 266.626V266.725C133.785 266.745 134.131 266.856 134.462 267.058C134.797 267.257 135.071 267.539 135.283 267.903C135.495 268.268 135.601 268.709 135.601 269.226C135.601 269.753 135.473 270.227 135.218 270.648C134.963 271.065 134.578 271.395 134.065 271.637C133.551 271.879 132.905 272 132.126 272H128.004ZM129.849 270.459H131.832C132.502 270.459 132.984 270.331 133.279 270.076C133.577 269.817 133.727 269.486 133.727 269.082C133.727 268.78 133.652 268.508 133.503 268.266C133.354 268.021 133.142 267.829 132.866 267.69C132.591 267.547 132.263 267.476 131.882 267.476H129.849V270.459ZM129.849 266.148H131.673C131.991 266.148 132.278 266.09 132.533 265.974C132.789 265.855 132.989 265.688 133.135 265.472C133.284 265.254 133.359 264.995 133.359 264.697C133.359 264.302 133.219 263.978 132.941 263.722C132.666 263.467 132.257 263.339 131.713 263.339H129.849V266.148ZM140.507 272.149C139.741 272.149 139.08 271.99 138.523 271.672C137.969 271.35 137.544 270.896 137.245 270.31C136.947 269.72 136.798 269.025 136.798 268.227C136.798 267.441 136.947 266.752 137.245 266.158C137.547 265.562 137.968 265.098 138.508 264.766C139.048 264.432 139.683 264.264 140.412 264.264C140.883 264.264 141.327 264.34 141.744 264.493C142.165 264.642 142.537 264.874 142.858 265.189C143.183 265.504 143.438 265.905 143.624 266.392C143.809 266.876 143.902 267.453 143.902 268.122V268.674H137.643V267.461H142.177C142.174 267.116 142.099 266.81 141.953 266.541C141.807 266.269 141.604 266.056 141.342 265.9C141.083 265.744 140.782 265.666 140.437 265.666C140.069 265.666 139.746 265.756 139.468 265.935C139.189 266.11 138.972 266.342 138.816 266.631C138.664 266.916 138.586 267.229 138.583 267.57V268.629C138.583 269.073 138.664 269.455 138.826 269.773C138.989 270.088 139.216 270.33 139.507 270.499C139.799 270.664 140.14 270.747 140.531 270.747C140.793 270.747 141.03 270.711 141.242 270.638C141.454 270.562 141.638 270.451 141.794 270.305C141.95 270.159 142.068 269.978 142.147 269.763L143.828 269.952C143.722 270.396 143.519 270.784 143.221 271.115C142.926 271.443 142.548 271.698 142.088 271.881C141.627 272.06 141.1 272.149 140.507 272.149ZM148.259 272.134C147.659 272.134 147.122 271.98 146.648 271.672C146.174 271.364 145.799 270.916 145.524 270.33C145.249 269.743 145.112 269.03 145.112 268.192C145.112 267.343 145.251 266.627 145.529 266.044C145.811 265.457 146.19 265.015 146.668 264.717C147.145 264.415 147.677 264.264 148.263 264.264C148.711 264.264 149.079 264.34 149.367 264.493C149.656 264.642 149.884 264.823 150.053 265.035C150.222 265.244 150.353 265.441 150.446 265.626H150.521V261.818H152.325V272H150.555V270.797H150.446C150.353 270.982 150.219 271.18 150.043 271.388C149.868 271.594 149.636 271.77 149.347 271.915C149.059 272.061 148.696 272.134 148.259 272.134ZM148.761 270.658C149.142 270.658 149.467 270.555 149.735 270.349C150.004 270.141 150.207 269.851 150.347 269.479C150.486 269.108 150.555 268.676 150.555 268.182C150.555 267.688 150.486 267.259 150.347 266.894C150.211 266.53 150.009 266.246 149.74 266.044C149.475 265.842 149.148 265.741 148.761 265.741C148.36 265.741 148.025 265.845 147.756 266.054C147.488 266.263 147.286 266.551 147.15 266.919C147.014 267.287 146.946 267.708 146.946 268.182C146.946 268.659 147.014 269.085 147.15 269.46C147.289 269.831 147.493 270.124 147.761 270.339C148.033 270.552 148.366 270.658 148.761 270.658ZM160.279 266.382L158.638 266.561C158.592 266.395 158.51 266.24 158.394 266.094C158.282 265.948 158.129 265.83 157.937 265.741C157.745 265.651 157.509 265.607 157.231 265.607C156.856 265.607 156.542 265.688 156.286 265.85C156.035 266.013 155.91 266.223 155.914 266.482C155.91 266.704 155.991 266.884 156.157 267.023C156.326 267.163 156.605 267.277 156.992 267.366L158.295 267.645C159.017 267.801 159.554 268.048 159.906 268.386C160.26 268.724 160.439 269.166 160.443 269.713C160.439 270.194 160.298 270.618 160.02 270.986C159.745 271.35 159.362 271.635 158.872 271.841C158.381 272.046 157.818 272.149 157.181 272.149C156.247 272.149 155.494 271.954 154.924 271.562C154.354 271.168 154.014 270.62 153.905 269.917L155.66 269.748C155.74 270.093 155.909 270.353 156.167 270.528C156.426 270.704 156.762 270.792 157.176 270.792C157.604 270.792 157.947 270.704 158.205 270.528C158.467 270.353 158.598 270.136 158.598 269.877C158.598 269.658 158.514 269.478 158.345 269.335C158.179 269.193 157.92 269.083 157.569 269.007L156.267 268.734C155.534 268.581 154.992 268.324 154.641 267.963C154.289 267.598 154.115 267.138 154.119 266.581C154.115 266.11 154.243 265.703 154.502 265.358C154.763 265.01 155.126 264.741 155.59 264.553C156.058 264.36 156.596 264.264 157.206 264.264C158.101 264.264 158.805 264.455 159.319 264.836C159.836 265.217 160.156 265.732 160.279 266.382Z" fill="#6C757D"/>
<rect x="16.5" y="291.5" width="78" height="31" rx="5.5" fill="white"/>
<rect x="16.5" y="291.5" width="78" height="31" rx="5.5" stroke="#6C757D"/>
<path d="M37.7195 305.254H35.8601C35.8071 304.949 35.7093 304.679 35.5668 304.443C35.4242 304.205 35.2469 304.002 35.0348 303.837C34.8227 303.671 34.5807 303.547 34.3089 303.464C34.0405 303.378 33.7505 303.335 33.4389 303.335C32.8854 303.335 32.3949 303.474 31.9673 303.752C31.5398 304.027 31.205 304.432 30.9631 304.965C30.7211 305.496 30.6001 306.143 30.6001 306.909C30.6001 307.688 30.7211 308.344 30.9631 308.878C31.2083 309.408 31.5431 309.809 31.9673 310.081C32.3949 310.349 32.8838 310.484 33.4339 310.484C33.7389 310.484 34.0239 310.444 34.2891 310.364C34.5575 310.281 34.7978 310.161 35.0099 310.001C35.2254 309.842 35.406 309.647 35.5518 309.415C35.701 309.183 35.8037 308.918 35.8601 308.619L37.7195 308.629C37.6499 309.113 37.4991 309.567 37.267 309.991C37.0384 310.416 36.7384 310.79 36.3672 311.115C35.996 311.437 35.5618 311.688 35.0646 311.871C34.5675 312.05 34.0156 312.139 33.4091 312.139C32.5142 312.139 31.7154 311.932 31.0128 311.518C30.3101 311.103 29.7566 310.505 29.3523 309.723C28.9479 308.941 28.7457 308.003 28.7457 306.909C28.7457 305.812 28.9496 304.874 29.3572 304.095C29.7649 303.313 30.3201 302.715 31.0227 302.3C31.7254 301.886 32.5208 301.679 33.4091 301.679C33.9759 301.679 34.5028 301.759 34.9901 301.918C35.4773 302.077 35.9115 302.31 36.2926 302.619C36.6738 302.924 36.987 303.298 37.2322 303.742C37.4808 304.183 37.6432 304.687 37.7195 305.254ZM41.5265 312.154C41.0426 312.154 40.6067 312.068 40.2189 311.896C39.8345 311.72 39.5295 311.461 39.3042 311.12C39.0821 310.779 38.9711 310.358 38.9711 309.857C38.9711 309.426 39.0506 309.07 39.2097 308.788C39.3688 308.507 39.5859 308.281 39.861 308.112C40.1361 307.943 40.446 307.816 40.7907 307.729C41.1387 307.64 41.4983 307.575 41.8695 307.536C42.3169 307.489 42.6799 307.448 42.9583 307.411C43.2367 307.371 43.4389 307.312 43.5648 307.232C43.6941 307.149 43.7587 307.022 43.7587 306.849V306.82C43.7587 306.445 43.6477 306.155 43.4256 305.95C43.2035 305.744 42.8837 305.641 42.4661 305.641C42.0253 305.641 41.6756 305.737 41.4171 305.93C41.1619 306.122 40.9895 306.349 40.9 306.611L39.2196 306.372C39.3522 305.908 39.571 305.52 39.8759 305.209C40.1808 304.894 40.5537 304.659 40.9945 304.503C41.4353 304.344 41.9225 304.264 42.4561 304.264C42.824 304.264 43.1903 304.307 43.5549 304.393C43.9194 304.48 44.2525 304.622 44.5542 304.821C44.8558 305.017 45.0977 305.283 45.28 305.621C45.4656 305.96 45.5584 306.382 45.5584 306.889V312H43.8283V310.951H43.7686C43.6593 311.163 43.5051 311.362 43.3063 311.548C43.1107 311.73 42.8638 311.877 42.5655 311.99C42.2705 312.099 41.9242 312.154 41.5265 312.154ZM41.9938 310.832C42.3551 310.832 42.6683 310.76 42.9334 310.618C43.1986 310.472 43.4024 310.28 43.5449 310.041C43.6908 309.803 43.7637 309.542 43.7637 309.261V308.361C43.7073 308.407 43.6112 308.45 43.4753 308.49C43.3427 308.53 43.1936 308.565 43.0279 308.594C42.8622 308.624 42.6981 308.651 42.5357 308.674C42.3733 308.697 42.2324 308.717 42.1131 308.734C41.8446 308.77 41.6043 308.83 41.3922 308.913C41.1801 308.996 41.0127 309.112 40.8901 309.261C40.7675 309.406 40.7061 309.595 40.7061 309.827C40.7061 310.159 40.8271 310.409 41.0691 310.578C41.311 310.747 41.6193 310.832 41.9938 310.832ZM47.3681 312V304.364H49.1131V305.636H49.1926C49.3319 305.196 49.5705 304.856 49.9086 304.617C50.2499 304.375 50.6394 304.254 51.0769 304.254C51.1763 304.254 51.2873 304.259 51.41 304.269C51.5359 304.276 51.6403 304.287 51.7232 304.304V305.96C51.647 305.933 51.526 305.91 51.3603 305.89C51.1979 305.867 51.0404 305.855 50.888 305.855C50.5598 305.855 50.2649 305.926 50.003 306.069C49.7445 306.208 49.5407 306.402 49.3915 306.651C49.2424 306.899 49.1678 307.186 49.1678 307.511V312H47.3681ZM52.9189 312V304.364H54.6639V305.636H54.7434C54.8826 305.196 55.1213 304.856 55.4593 304.617C55.8007 304.375 56.1902 304.254 56.6277 304.254C56.7271 304.254 56.8381 304.259 56.9608 304.269C57.0867 304.276 57.1911 304.287 57.274 304.304V305.96C57.1977 305.933 57.0768 305.91 56.911 305.89C56.7486 305.867 56.5912 305.855 56.4387 305.855C56.1106 305.855 55.8156 305.926 55.5538 306.069C55.2953 306.208 55.0914 306.402 54.9423 306.651C54.7931 306.899 54.7186 307.186 54.7186 307.511V312H52.9189ZM58.4696 312V304.364H60.2694V312H58.4696ZM59.3745 303.28C59.0894 303.28 58.8442 303.185 58.6387 302.996C58.4332 302.804 58.3304 302.574 58.3304 302.305C58.3304 302.034 58.4332 301.803 58.6387 301.614C58.8442 301.422 59.0894 301.326 59.3745 301.326C59.6628 301.326 59.9081 301.422 60.1103 301.614C60.3158 301.803 60.4185 302.034 60.4185 302.305C60.4185 302.574 60.3158 302.804 60.1103 302.996C59.9081 303.185 59.6628 303.28 59.3745 303.28ZM65.5007 312.149C64.7351 312.149 64.0739 311.99 63.517 311.672C62.9635 311.35 62.5376 310.896 62.2393 310.31C61.9411 309.72 61.7919 309.025 61.7919 308.227C61.7919 307.441 61.9411 306.752 62.2393 306.158C62.541 305.562 62.9619 305.098 63.5021 304.766C64.0424 304.432 64.6771 304.264 65.4062 304.264C65.8769 304.264 66.321 304.34 66.7386 304.493C67.1596 304.642 67.5308 304.874 67.8523 305.189C68.1771 305.504 68.4323 305.905 68.6179 306.392C68.8035 306.876 68.8963 307.453 68.8963 308.122V308.674H62.6371V307.461H67.1712C67.1679 307.116 67.0933 306.81 66.9474 306.541C66.8016 306.269 66.5978 306.056 66.3359 305.9C66.0774 305.744 65.7758 305.666 65.4311 305.666C65.0632 305.666 64.7401 305.756 64.4616 305.935C64.1832 306.11 63.9661 306.342 63.8104 306.631C63.6579 306.916 63.58 307.229 63.5767 307.57V308.629C63.5767 309.073 63.6579 309.455 63.8203 309.773C63.9827 310.088 64.2098 310.33 64.5014 310.499C64.7931 310.664 65.1345 310.747 65.5256 310.747C65.7874 310.747 66.0244 310.711 66.2365 310.638C66.4486 310.562 66.6326 310.451 66.7884 310.305C66.9441 310.159 67.0618 309.978 67.1413 309.763L68.8217 309.952C68.7157 310.396 68.5135 310.784 68.2152 311.115C67.9202 311.443 67.5424 311.698 67.0817 311.881C66.621 312.06 66.094 312.149 65.5007 312.149ZM70.4189 312V304.364H72.1639V305.636H72.2434C72.3826 305.196 72.6213 304.856 72.9593 304.617C73.3007 304.375 73.6902 304.254 74.1277 304.254C74.2271 304.254 74.3381 304.259 74.4608 304.269C74.5867 304.276 74.6911 304.287 74.774 304.304V305.96C74.6977 305.933 74.5768 305.91 74.411 305.89C74.2486 305.867 74.0912 305.855 73.9387 305.855C73.6106 305.855 73.3156 305.926 73.0538 306.069C72.7953 306.208 72.5914 306.402 72.4423 306.651C72.2931 306.899 72.2186 307.186 72.2186 307.511V312H70.4189ZM82.0051 306.382L80.3645 306.561C80.3181 306.395 80.2369 306.24 80.1209 306.094C80.0082 305.948 79.8558 305.83 79.6635 305.741C79.4713 305.651 79.236 305.607 78.9576 305.607C78.583 305.607 78.2682 305.688 78.013 305.85C77.7611 306.013 77.6368 306.223 77.6401 306.482C77.6368 306.704 77.718 306.884 77.8837 307.023C78.0527 307.163 78.3311 307.277 78.7189 307.366L80.0215 307.645C80.744 307.801 81.281 308.048 81.6323 308.386C81.9869 308.724 82.1659 309.166 82.1692 309.713C82.1659 310.194 82.025 310.618 81.7466 310.986C81.4715 311.35 81.0887 311.635 80.5982 311.841C80.1077 312.046 79.5442 312.149 78.9078 312.149C77.9732 312.149 77.2208 311.954 76.6507 311.562C76.0807 311.168 75.7409 310.62 75.6316 309.917L77.3865 309.748C77.4661 310.093 77.6351 310.353 77.8936 310.528C78.1522 310.704 78.4886 310.792 78.9029 310.792C79.3304 310.792 79.6735 310.704 79.932 310.528C80.1938 310.353 80.3248 310.136 80.3248 309.877C80.3248 309.658 80.2402 309.478 80.0712 309.335C79.9055 309.193 79.647 309.083 79.2956 309.007L77.9931 308.734C77.2606 308.581 76.7187 308.324 76.3674 307.963C76.016 307.598 75.842 307.138 75.8453 306.581C75.842 306.11 75.9696 305.703 76.2282 305.358C76.49 305.01 76.8529 304.741 77.3169 304.553C77.7843 304.36 78.3229 304.264 78.9327 304.264C79.8276 304.264 80.5319 304.455 81.0456 304.836C81.5627 305.217 81.8825 305.732 82.0051 306.382Z" fill="#6C757D"/>
<rect x="103.5" y="291.5" width="67" height="31" rx="5.5" fill="white"/>
<rect x="103.5" y="291.5" width="67" height="31" rx="5.5" stroke="#6C757D"/>
<path d="M124.719 305.254H122.86C122.807 304.949 122.709 304.679 122.567 304.443C122.424 304.205 122.247 304.002 122.035 303.837C121.823 303.671 121.581 303.547 121.309 303.464C121.04 303.378 120.75 303.335 120.439 303.335C119.885 303.335 119.395 303.474 118.967 303.752C118.54 304.027 118.205 304.432 117.963 304.965C117.721 305.496 117.6 306.143 117.6 306.909C117.6 307.688 117.721 308.344 117.963 308.878C118.208 309.408 118.543 309.809 118.967 310.081C119.395 310.349 119.884 310.484 120.434 310.484C120.739 310.484 121.024 310.444 121.289 310.364C121.558 310.281 121.798 310.161 122.01 310.001C122.225 309.842 122.406 309.647 122.552 309.415C122.701 309.183 122.804 308.918 122.86 308.619L124.719 308.629C124.65 309.113 124.499 309.567 124.267 309.991C124.038 310.416 123.738 310.79 123.367 311.115C122.996 311.437 122.562 311.688 122.065 311.871C121.567 312.05 121.016 312.139 120.409 312.139C119.514 312.139 118.715 311.932 118.013 311.518C117.31 311.103 116.757 310.505 116.352 309.723C115.948 308.941 115.746 308.003 115.746 306.909C115.746 305.812 115.95 304.874 116.357 304.095C116.765 303.313 117.32 302.715 118.023 302.3C118.725 301.886 119.521 301.679 120.409 301.679C120.976 301.679 121.503 301.759 121.99 301.918C122.477 302.077 122.911 302.31 123.293 302.619C123.674 302.924 123.987 303.298 124.232 303.742C124.481 304.183 124.643 304.687 124.719 305.254ZM128.526 312.154C128.043 312.154 127.607 312.068 127.219 311.896C126.834 311.72 126.53 311.461 126.304 311.12C126.082 310.779 125.971 310.358 125.971 309.857C125.971 309.426 126.051 309.07 126.21 308.788C126.369 308.507 126.586 308.281 126.861 308.112C127.136 307.943 127.446 307.816 127.791 307.729C128.139 307.64 128.498 307.575 128.869 307.536C129.317 307.489 129.68 307.448 129.958 307.411C130.237 307.371 130.439 307.312 130.565 307.232C130.694 307.149 130.759 307.022 130.759 306.849V306.82C130.759 306.445 130.648 306.155 130.426 305.95C130.204 305.744 129.884 305.641 129.466 305.641C129.025 305.641 128.676 305.737 128.417 305.93C128.162 306.122 127.99 306.349 127.9 306.611L126.22 306.372C126.352 305.908 126.571 305.52 126.876 305.209C127.181 304.894 127.554 304.659 127.994 304.503C128.435 304.344 128.923 304.264 129.456 304.264C129.824 304.264 130.19 304.307 130.555 304.393C130.919 304.48 131.253 304.622 131.554 304.821C131.856 305.017 132.098 305.283 132.28 305.621C132.466 305.96 132.558 306.382 132.558 306.889V312H130.828V310.951H130.769C130.659 311.163 130.505 311.362 130.306 311.548C130.111 311.73 129.864 311.877 129.566 311.99C129.271 312.099 128.924 312.154 128.526 312.154ZM128.994 310.832C129.355 310.832 129.668 310.76 129.933 310.618C130.199 310.472 130.402 310.28 130.545 310.041C130.691 309.803 130.764 309.542 130.764 309.261V308.361C130.707 308.407 130.611 308.45 130.475 308.49C130.343 308.53 130.194 308.565 130.028 308.594C129.862 308.624 129.698 308.651 129.536 308.674C129.373 308.697 129.232 308.717 129.113 308.734C128.845 308.77 128.604 308.83 128.392 308.913C128.18 308.996 128.013 309.112 127.89 309.261C127.767 309.406 127.706 309.595 127.706 309.827C127.706 310.159 127.827 310.409 128.069 310.578C128.311 310.747 128.619 310.832 128.994 310.832ZM137.689 315.023C137.043 315.023 136.488 314.935 136.024 314.759C135.56 314.587 135.187 314.355 134.905 314.063C134.623 313.772 134.428 313.448 134.318 313.094L135.939 312.701C136.012 312.85 136.118 312.998 136.257 313.143C136.396 313.293 136.584 313.415 136.819 313.511C137.058 313.611 137.358 313.661 137.719 313.661C138.229 313.661 138.652 313.536 138.987 313.288C139.321 313.042 139.489 312.638 139.489 312.075V310.628H139.399C139.307 310.813 139.171 311.004 138.992 311.2C138.816 311.395 138.582 311.559 138.291 311.692C138.002 311.824 137.639 311.891 137.202 311.891C136.615 311.891 136.083 311.753 135.606 311.478C135.132 311.2 134.754 310.785 134.472 310.235C134.194 309.682 134.055 308.989 134.055 308.157C134.055 307.318 134.194 306.611 134.472 306.034C134.754 305.454 135.134 305.015 135.611 304.717C136.088 304.415 136.62 304.264 137.207 304.264C137.654 304.264 138.022 304.34 138.311 304.493C138.602 304.642 138.834 304.823 139.007 305.035C139.179 305.244 139.31 305.441 139.399 305.626H139.499V304.364H141.274V312.124C141.274 312.777 141.118 313.317 140.806 313.745C140.495 314.173 140.069 314.492 139.529 314.705C138.988 314.917 138.375 315.023 137.689 315.023ZM137.704 310.479C138.085 310.479 138.41 310.386 138.678 310.2C138.947 310.015 139.151 309.748 139.29 309.4C139.429 309.052 139.499 308.634 139.499 308.147C139.499 307.666 139.429 307.246 139.29 306.884C139.154 306.523 138.952 306.243 138.683 306.044C138.418 305.842 138.092 305.741 137.704 305.741C137.303 305.741 136.968 305.845 136.7 306.054C136.431 306.263 136.229 306.549 136.093 306.914C135.957 307.275 135.889 307.686 135.889 308.147C135.889 308.614 135.957 309.024 136.093 309.375C136.232 309.723 136.436 309.995 136.705 310.19C136.977 310.383 137.31 310.479 137.704 310.479ZM146.499 312.149C145.733 312.149 145.072 311.99 144.515 311.672C143.962 311.35 143.536 310.896 143.237 310.31C142.939 309.72 142.79 309.025 142.79 308.227C142.79 307.441 142.939 306.752 143.237 306.158C143.539 305.562 143.96 305.098 144.5 304.766C145.04 304.432 145.675 304.264 146.404 304.264C146.875 304.264 147.319 304.34 147.737 304.493C148.158 304.642 148.529 304.874 148.85 305.189C149.175 305.504 149.43 305.905 149.616 306.392C149.802 306.876 149.894 307.453 149.894 308.122V308.674H143.635V307.461H148.169C148.166 307.116 148.091 306.81 147.945 306.541C147.8 306.269 147.596 306.056 147.334 305.9C147.075 305.744 146.774 305.666 146.429 305.666C146.061 305.666 145.738 305.756 145.46 305.935C145.181 306.11 144.964 306.342 144.808 306.631C144.656 306.916 144.578 307.229 144.575 307.57V308.629C144.575 309.073 144.656 309.455 144.818 309.773C144.981 310.088 145.208 310.33 145.499 310.499C145.791 310.664 146.133 310.747 146.524 310.747C146.785 310.747 147.022 310.711 147.235 310.638C147.447 310.562 147.631 310.451 147.786 310.305C147.942 310.159 148.06 309.978 148.139 309.763L149.82 309.952C149.714 310.396 149.512 310.784 149.213 311.115C148.918 311.443 148.54 311.698 148.08 311.881C147.619 312.06 147.092 312.149 146.499 312.149ZM157.452 306.382L155.812 306.561C155.765 306.395 155.684 306.24 155.568 306.094C155.455 305.948 155.303 305.83 155.111 305.741C154.919 305.651 154.683 305.607 154.405 305.607C154.03 305.607 153.715 305.688 153.46 305.85C153.208 306.013 153.084 306.223 153.087 306.482C153.084 306.704 153.165 306.884 153.331 307.023C153.5 307.163 153.778 307.277 154.166 307.366L155.469 307.645C156.191 307.801 156.728 308.048 157.08 308.386C157.434 308.724 157.613 309.166 157.616 309.713C157.613 310.194 157.472 310.618 157.194 310.986C156.919 311.35 156.536 311.635 156.045 311.841C155.555 312.046 154.991 312.149 154.355 312.149C153.42 312.149 152.668 311.954 152.098 311.562C151.528 311.168 151.188 310.62 151.079 309.917L152.834 309.748C152.913 310.093 153.082 310.353 153.341 310.528C153.599 310.704 153.936 310.792 154.35 310.792C154.778 310.792 155.121 310.704 155.379 310.528C155.641 310.353 155.772 310.136 155.772 309.877C155.772 309.658 155.688 309.478 155.518 309.335C155.353 309.193 155.094 309.083 154.743 309.007L153.44 308.734C152.708 308.581 152.166 308.324 151.815 307.963C151.463 307.598 151.289 307.138 151.293 306.581C151.289 306.11 151.417 305.703 151.675 305.358C151.937 305.01 152.3 304.741 152.764 304.553C153.232 304.36 153.77 304.264 154.38 304.264C155.275 304.264 155.979 304.455 156.493 304.836C157.01 305.217 157.33 305.732 157.452 306.382Z" fill="#6C757D"/>
<rect x="179.5" y="291.5" width="71" height="31" rx="5.5" fill="white"/>
<rect x="179.5" y="291.5" width="71" height="31" rx="5.5" stroke="#6C757D"/>
<path d="M200.719 305.254H198.86C198.807 304.949 198.709 304.679 198.567 304.443C198.424 304.205 198.247 304.002 198.035 303.837C197.823 303.671 197.581 303.547 197.309 303.464C197.04 303.378 196.75 303.335 196.439 303.335C195.885 303.335 195.395 303.474 194.967 303.752C194.54 304.027 194.205 304.432 193.963 304.965C193.721 305.496 193.6 306.143 193.6 306.909C193.6 307.688 193.721 308.344 193.963 308.878C194.208 309.408 194.543 309.809 194.967 310.081C195.395 310.349 195.884 310.484 196.434 310.484C196.739 310.484 197.024 310.444 197.289 310.364C197.558 310.281 197.798 310.161 198.01 310.001C198.225 309.842 198.406 309.647 198.552 309.415C198.701 309.183 198.804 308.918 198.86 308.619L200.719 308.629C200.65 309.113 200.499 309.567 200.267 309.991C200.038 310.416 199.738 310.79 199.367 311.115C198.996 311.437 198.562 311.688 198.065 311.871C197.567 312.05 197.016 312.139 196.409 312.139C195.514 312.139 194.715 311.932 194.013 311.518C193.31 311.103 192.757 310.505 192.352 309.723C191.948 308.941 191.746 308.003 191.746 306.909C191.746 305.812 191.95 304.874 192.357 304.095C192.765 303.313 193.32 302.715 194.023 302.3C194.725 301.886 195.521 301.679 196.409 301.679C196.976 301.679 197.503 301.759 197.99 301.918C198.477 302.077 198.911 302.31 199.293 302.619C199.674 302.924 199.987 303.298 200.232 303.742C200.481 304.183 200.643 304.687 200.719 305.254ZM205.66 312.149C204.914 312.149 204.268 311.985 203.721 311.657C203.174 311.329 202.75 310.87 202.448 310.28C202.15 309.69 202.001 309 202.001 308.212C202.001 307.423 202.15 306.732 202.448 306.138C202.75 305.545 203.174 305.085 203.721 304.756C204.268 304.428 204.914 304.264 205.66 304.264C206.406 304.264 207.052 304.428 207.599 304.756C208.146 305.085 208.568 305.545 208.867 306.138C209.168 306.732 209.319 307.423 209.319 308.212C209.319 309 209.168 309.69 208.867 310.28C208.568 310.87 208.146 311.329 207.599 311.657C207.052 311.985 206.406 312.149 205.66 312.149ZM205.67 310.707C206.074 310.707 206.412 310.596 206.684 310.374C206.956 310.149 207.158 309.847 207.291 309.469C207.427 309.092 207.494 308.671 207.494 308.207C207.494 307.739 207.427 307.317 207.291 306.939C207.158 306.558 206.956 306.254 206.684 306.029C206.412 305.804 206.074 305.691 205.67 305.691C205.256 305.691 204.911 305.804 204.636 306.029C204.364 306.254 204.16 306.558 204.024 306.939C203.892 307.317 203.825 307.739 203.825 308.207C203.825 308.671 203.892 309.092 204.024 309.469C204.16 309.847 204.364 310.149 204.636 310.374C204.911 310.596 205.256 310.707 205.67 310.707ZM212.646 301.818V312H210.847V301.818H212.646ZM216.297 301.818V312H214.497V301.818H216.297ZM220.345 312.154C219.861 312.154 219.425 312.068 219.037 311.896C218.653 311.72 218.348 311.461 218.123 311.12C217.9 310.779 217.789 310.358 217.789 309.857C217.789 309.426 217.869 309.07 218.028 308.788C218.187 308.507 218.404 308.281 218.679 308.112C218.954 307.943 219.264 307.816 219.609 307.729C219.957 307.64 220.317 307.575 220.688 307.536C221.135 307.489 221.498 307.448 221.777 307.411C222.055 307.371 222.257 307.312 222.383 307.232C222.512 307.149 222.577 307.022 222.577 306.849V306.82C222.577 306.445 222.466 306.155 222.244 305.95C222.022 305.744 221.702 305.641 221.284 305.641C220.844 305.641 220.494 305.737 220.235 305.93C219.98 306.122 219.808 306.349 219.718 306.611L218.038 306.372C218.171 305.908 218.389 305.52 218.694 305.209C218.999 304.894 219.372 304.659 219.813 304.503C220.254 304.344 220.741 304.264 221.275 304.264C221.642 304.264 222.009 304.307 222.373 304.393C222.738 304.48 223.071 304.622 223.373 304.821C223.674 305.017 223.916 305.283 224.098 305.621C224.284 305.96 224.377 306.382 224.377 306.889V312H222.647V310.951H222.587C222.478 311.163 222.324 311.362 222.125 311.548C221.929 311.73 221.682 311.877 221.384 311.99C221.089 312.099 220.743 312.154 220.345 312.154ZM220.812 310.832C221.173 310.832 221.487 310.76 221.752 310.618C222.017 310.472 222.221 310.28 222.363 310.041C222.509 309.803 222.582 309.542 222.582 309.261V308.361C222.526 308.407 222.43 308.45 222.294 308.49C222.161 308.53 222.012 308.565 221.846 308.594C221.681 308.624 221.516 308.651 221.354 308.674C221.192 308.697 221.051 308.717 220.931 308.734C220.663 308.77 220.423 308.83 220.211 308.913C219.998 308.996 219.831 309.112 219.708 309.261C219.586 309.406 219.525 309.595 219.525 309.827C219.525 310.159 219.645 310.409 219.887 310.578C220.129 310.747 220.438 310.832 220.812 310.832ZM226.186 312V304.364H227.931V305.636H228.011C228.15 305.196 228.389 304.856 228.727 304.617C229.068 304.375 229.458 304.254 229.895 304.254C229.995 304.254 230.106 304.259 230.228 304.269C230.354 304.276 230.459 304.287 230.542 304.304V305.96C230.465 305.933 230.344 305.91 230.179 305.89C230.016 305.867 229.859 305.855 229.706 305.855C229.378 305.855 229.083 305.926 228.821 306.069C228.563 306.208 228.359 306.402 228.21 306.651C228.061 306.899 227.986 307.186 227.986 307.511V312H226.186ZM237.773 306.382L236.132 306.561C236.086 306.395 236.004 306.24 235.888 306.094C235.776 305.948 235.623 305.83 235.431 305.741C235.239 305.651 235.004 305.607 234.725 305.607C234.351 305.607 234.036 305.688 233.781 305.85C233.529 306.013 233.404 306.223 233.408 306.482C233.404 306.704 233.486 306.884 233.651 307.023C233.82 307.163 234.099 307.277 234.487 307.366L235.789 307.645C236.512 307.801 237.049 308.048 237.4 308.386C237.754 308.724 237.933 309.166 237.937 309.713C237.933 310.194 237.793 310.618 237.514 310.986C237.239 311.35 236.856 311.635 236.366 311.841C235.875 312.046 235.312 312.149 234.675 312.149C233.741 312.149 232.988 311.954 232.418 311.562C231.848 311.168 231.509 310.62 231.399 309.917L233.154 309.748C233.234 310.093 233.403 310.353 233.661 310.528C233.92 310.704 234.256 310.792 234.67 310.792C235.098 310.792 235.441 310.704 235.7 310.528C235.961 310.353 236.092 310.136 236.092 309.877C236.092 309.658 236.008 309.478 235.839 309.335C235.673 309.193 235.415 309.083 235.063 309.007L233.761 308.734C233.028 308.581 232.486 308.324 232.135 307.963C231.784 307.598 231.61 307.138 231.613 306.581C231.61 306.11 231.737 305.703 231.996 305.358C232.258 305.01 232.621 304.741 233.085 304.553C233.552 304.36 234.09 304.264 234.7 304.264C235.595 304.264 236.299 304.455 236.813 304.836C237.33 305.217 237.65 305.732 237.773 306.382Z" fill="#6C757D"/>
</g>
<path d="M270 338H0V340H270V338Z" fill="#DEE2E6" mask="url(#path-14-inside-2_5548_5512)"/>
<rect width="270" height="105" transform="translate(0 339)" fill="white"/>
<rect width="270" height="35" transform="translate(0 347)" fill="white"/>
<path d="M17.1477 370V358.364H21.5114C22.4053 358.364 23.1553 358.53 23.7614 358.864C24.3712 359.197 24.8314 359.655 25.142 360.239C25.4564 360.818 25.6136 361.477 25.6136 362.216C25.6136 362.962 25.4564 363.625 25.142 364.205C24.8277 364.784 24.3636 365.241 23.75 365.574C23.1364 365.903 22.3807 366.068 21.483 366.068H18.5909V364.335H21.1989C21.7216 364.335 22.1496 364.244 22.483 364.062C22.8163 363.881 23.0625 363.631 23.2216 363.312C23.3845 362.994 23.4659 362.629 23.4659 362.216C23.4659 361.803 23.3845 361.439 23.2216 361.125C23.0625 360.811 22.8144 360.566 22.4773 360.392C22.1439 360.214 21.714 360.125 21.1875 360.125H19.2557V370H17.1477ZM27.3537 370V361.273H29.348V362.727H29.4389C29.598 362.223 29.8707 361.835 30.2571 361.562C30.6473 361.286 31.0923 361.148 31.5923 361.148C31.706 361.148 31.8329 361.153 31.973 361.165C32.117 361.172 32.2363 361.186 32.331 361.205V363.097C32.2438 363.066 32.1056 363.04 31.9162 363.017C31.7306 362.991 31.5507 362.977 31.3764 362.977C31.0014 362.977 30.6643 363.059 30.3651 363.222C30.0696 363.381 29.8366 363.602 29.6662 363.886C29.4957 364.17 29.4105 364.498 29.4105 364.869V370H27.3537ZM33.6974 370V361.273H35.7543V370H33.6974ZM34.7315 360.034C34.4058 360.034 34.1255 359.926 33.8906 359.71C33.6558 359.491 33.5384 359.227 33.5384 358.92C33.5384 358.61 33.6558 358.347 33.8906 358.131C34.1255 357.911 34.4058 357.801 34.7315 357.801C35.0611 357.801 35.3414 357.911 35.5724 358.131C35.8073 358.347 35.9247 358.61 35.9247 358.92C35.9247 359.227 35.8073 359.491 35.5724 359.71C35.3414 359.926 35.0611 360.034 34.7315 360.034ZM41.6761 370.17C40.8049 370.17 40.0568 369.979 39.4318 369.597C38.8106 369.214 38.3314 368.686 37.9943 368.011C37.661 367.333 37.4943 366.553 37.4943 365.67C37.4943 364.784 37.6648 364.002 38.0057 363.324C38.3466 362.642 38.8277 362.112 39.4489 361.733C40.0739 361.35 40.8125 361.159 41.6648 361.159C42.3731 361.159 43 361.29 43.5455 361.551C44.0947 361.809 44.5322 362.174 44.858 362.648C45.1837 363.117 45.3693 363.667 45.4148 364.295H43.4489C43.3693 363.875 43.1799 363.525 42.8807 363.244C42.5852 362.96 42.1894 362.818 41.6932 362.818C41.2727 362.818 40.9034 362.932 40.5852 363.159C40.267 363.383 40.0189 363.705 39.8409 364.125C39.6667 364.545 39.5795 365.049 39.5795 365.636C39.5795 366.231 39.6667 366.742 39.8409 367.17C40.0152 367.595 40.2595 367.922 40.5739 368.153C40.892 368.381 41.2652 368.494 41.6932 368.494C41.9962 368.494 42.267 368.437 42.5057 368.324C42.7481 368.206 42.9508 368.038 43.1136 367.818C43.2765 367.598 43.3883 367.331 43.4489 367.017H45.4148C45.3655 367.634 45.1837 368.182 44.8693 368.659C44.5549 369.133 44.1269 369.504 43.5852 369.773C43.0436 370.038 42.4072 370.17 41.6761 370.17ZM50.9673 370.17C50.0923 370.17 49.3366 369.989 48.7003 369.625C48.0677 369.258 47.581 368.739 47.2401 368.068C46.8991 367.394 46.7287 366.6 46.7287 365.688C46.7287 364.79 46.8991 364.002 47.2401 363.324C47.5848 362.642 48.0658 362.112 48.6832 361.733C49.3007 361.35 50.026 361.159 50.8594 361.159C51.3973 361.159 51.9048 361.246 52.3821 361.42C52.8632 361.591 53.2874 361.856 53.6548 362.216C54.026 362.576 54.3177 363.034 54.5298 363.591C54.742 364.144 54.848 364.803 54.848 365.568V366.199H47.6946V364.812H52.8764C52.8726 364.419 52.7874 364.068 52.6207 363.761C52.4541 363.451 52.2211 363.206 51.9219 363.028C51.6264 362.85 51.2817 362.761 50.8878 362.761C50.4673 362.761 50.098 362.864 49.7798 363.068C49.4616 363.269 49.2135 363.534 49.0355 363.864C48.8613 364.189 48.7723 364.547 48.7685 364.938V366.148C48.7685 366.655 48.8613 367.091 49.0469 367.455C49.2325 367.814 49.492 368.091 49.8253 368.284C50.1586 368.473 50.5488 368.568 50.9957 368.568C51.295 368.568 51.5658 368.527 51.8082 368.443C52.0507 368.356 52.2609 368.229 52.4389 368.062C52.617 367.896 52.7514 367.689 52.8423 367.443L54.7628 367.659C54.6416 368.167 54.4105 368.61 54.0696 368.989C53.7325 369.364 53.3007 369.655 52.7741 369.864C52.2476 370.068 51.6454 370.17 50.9673 370.17Z" fill="#343A40"/>
<rect x="16.5" y="390.5" width="91" height="37" rx="5.5" fill="white"/>
<rect x="16.5" y="390.5" width="91" height="37" rx="5.5" stroke="#DEE2E6"/>
<path d="M33.4091 403.364H35.0909L39.0455 413.023H39.1818L43.1364 403.364H44.8182V415H43.5V406.159H43.3864L39.75 415H38.4773L34.8409 406.159H34.7273V415H33.4091V403.364ZM47.4616 415V406.273H48.8026V415H47.4616ZM48.1435 404.818C47.8821 404.818 47.6567 404.729 47.4673 404.551C47.2817 404.373 47.1889 404.159 47.1889 403.909C47.1889 403.659 47.2817 403.445 47.4673 403.267C47.6567 403.089 47.8821 403 48.1435 403C48.4048 403 48.6283 403.089 48.8139 403.267C49.0033 403.445 49.098 403.659 49.098 403.909C49.098 404.159 49.0033 404.373 48.8139 404.551C48.6283 404.729 48.4048 404.818 48.1435 404.818ZM52.5994 409.75V415H51.2585V406.273H52.554V407.636H52.6676C52.8722 407.193 53.1828 406.837 53.5994 406.568C54.0161 406.295 54.554 406.159 55.2131 406.159C55.804 406.159 56.321 406.28 56.7642 406.523C57.2074 406.761 57.5521 407.125 57.7983 407.614C58.0445 408.098 58.1676 408.712 58.1676 409.455V415H56.8267V409.545C56.8267 408.86 56.6487 408.326 56.2926 407.943C55.9366 407.557 55.4479 407.364 54.8267 407.364C54.3987 407.364 54.0161 407.456 53.679 407.642C53.3456 407.828 53.0824 408.098 52.8892 408.455C52.696 408.811 52.5994 409.242 52.5994 409.75Z" fill="#ADB5BD"/>
<rect x="116.5" y="390.5" width="91" height="37" rx="5.5" fill="white"/>
<rect x="116.5" y="390.5" width="91" height="37" rx="5.5" stroke="#DEE2E6"/>
<path d="M133.409 403.364H135.091L139.045 413.023H139.182L143.136 403.364H144.818V415H143.5V406.159H143.386L139.75 415H138.477L134.841 406.159H134.727V415H133.409V403.364ZM150.03 415.205C149.477 415.205 148.975 415.1 148.524 414.892C148.073 414.68 147.715 414.375 147.45 413.977C147.185 413.576 147.053 413.091 147.053 412.523C147.053 412.023 147.151 411.617 147.348 411.307C147.545 410.992 147.808 410.746 148.138 410.568C148.467 410.39 148.831 410.258 149.229 410.17C149.63 410.08 150.034 410.008 150.439 409.955C150.969 409.886 151.399 409.835 151.729 409.801C152.062 409.763 152.304 409.701 152.456 409.614C152.611 409.527 152.689 409.375 152.689 409.159V409.114C152.689 408.553 152.536 408.117 152.229 407.807C151.926 407.496 151.465 407.341 150.848 407.341C150.208 407.341 149.706 407.481 149.342 407.761C148.979 408.042 148.723 408.341 148.575 408.659L147.303 408.205C147.53 407.674 147.833 407.261 148.212 406.966C148.594 406.667 149.011 406.458 149.462 406.341C149.916 406.22 150.363 406.159 150.803 406.159C151.083 406.159 151.405 406.193 151.768 406.261C152.136 406.326 152.49 406.46 152.831 406.665C153.176 406.869 153.462 407.178 153.689 407.591C153.916 408.004 154.03 408.557 154.03 409.25V415H152.689V413.818H152.621C152.53 414.008 152.378 414.21 152.166 414.426C151.954 414.642 151.672 414.826 151.32 414.977C150.967 415.129 150.537 415.205 150.03 415.205ZM150.234 414C150.765 414 151.212 413.896 151.575 413.688C151.943 413.479 152.219 413.21 152.405 412.881C152.594 412.551 152.689 412.205 152.689 411.841V410.614C152.632 410.682 152.507 410.744 152.314 410.801C152.125 410.854 151.905 410.902 151.655 410.943C151.409 410.981 151.168 411.015 150.933 411.045C150.702 411.072 150.515 411.095 150.371 411.114C150.022 411.159 149.696 411.233 149.393 411.335C149.094 411.434 148.852 411.583 148.666 411.784C148.484 411.981 148.393 412.25 148.393 412.591C148.393 413.057 148.566 413.409 148.911 413.648C149.259 413.883 149.7 414 150.234 414ZM157.477 406.273L159.568 409.841L161.659 406.273H163.205L160.386 410.636L163.205 415H161.659L159.568 411.614L157.477 415H155.932L158.705 410.636L155.932 406.273H157.477Z" fill="#ADB5BD"/>
<rect x="216" y="390" width="38" height="38" rx="4" fill="#7749F8"/>
<path fill-rule="evenodd" clip-rule="evenodd" d="M224.5 409C224.5 408.801 224.579 408.611 224.72 408.47C224.86 408.329 225.051 408.25 225.25 408.25H242.94L238.219 403.531C238.078 403.39 237.999 403.199 237.999 403C237.999 402.801 238.078 402.61 238.219 402.469C238.36 402.328 238.551 402.249 238.75 402.249C238.949 402.249 239.14 402.328 239.281 402.469L245.281 408.469C245.351 408.539 245.406 408.622 245.444 408.713C245.482 408.804 245.501 408.902 245.501 409C245.501 409.099 245.482 409.197 245.444 409.288C245.406 409.379 245.351 409.462 245.281 409.531L239.281 415.531C239.14 415.672 238.949 415.751 238.75 415.751C238.551 415.751 238.36 415.672 238.219 415.531C238.078 415.39 237.999 415.199 237.999 415C237.999 414.801 238.078 414.61 238.219 414.469L242.94 409.75H225.25C225.051 409.75 224.86 409.671 224.72 409.531C224.579 409.39 224.5 409.199 224.5 409Z" fill="white"/>
</g>
<defs>
<clipPath id="clip0_5548_5512">
<rect width="270" height="444" rx="8" fill="white"/>
</clipPath>
<clipPath id="clip1_5548_5512">
<path d="M0 61H270V160H0V61Z" fill="white"/>
</clipPath>
<clipPath id="clip2_5548_5512">
<path d="M0 160H270V339H0V160Z" fill="white"/>
</clipPath>
</defs>
</svg>
