<svg width="38" height="38" viewBox="0 0 38 38" fill="none" xmlns="http://www.w3.org/2000/svg">
<path fill-rule="evenodd" clip-rule="evenodd" d="M22 14.5C22 15.2956 21.6839 16.0587 21.1213 16.6213C20.5587 17.1839 19.7956 17.5 19 17.5C18.2044 17.5 17.4413 17.1839 16.8787 16.6213C16.3161 16.0587 16 15.2956 16 14.5C16 13.7044 16.3161 12.9413 16.8787 12.3787C17.4413 11.8161 18.2044 11.5 19 11.5C19.7956 11.5 20.5587 11.8161 21.1213 12.3787C21.6839 12.9413 22 13.7044 22 14.5ZM19 19C20.1935 19 21.3381 18.5259 22.182 17.682C23.0259 16.8381 23.5 15.6935 23.5 14.5C23.5 13.3065 23.0259 12.1619 22.182 11.318C21.3381 10.4741 20.1935 10 19 10C17.8065 10 16.6619 10.4741 15.818 11.318C14.9741 12.1619 14.5 13.3065 14.5 14.5C14.5 15.6935 14.9741 16.8381 15.818 17.682C16.6619 18.5259 17.8065 19 19 19ZM28 26.5C28 28 26.5 28 26.5 28H11.5C11.5 28 10 28 10 26.5C10 25 11.5 20.5 19 20.5C26.5 20.5 28 25 28 26.5ZM26.5 26.494C26.4985 26.125 26.269 25.015 25.252 23.998C24.274 23.02 22.4335 22 19 22C15.565 22 13.726 23.02 12.748 23.998C11.731 25.015 11.503 26.125 11.5 26.494H26.5Z" fill="#343A40"/>
</svg>
