<svg width="165" height="172" viewBox="0 0 165 172" fill="none" xmlns="http://www.w3.org/2000/svg">
<g clip-path="url(#clip0_5537_2570)">
<path d="M56.837 28.0281C53.7906 30.5159 52.2456 34.1673 52.2456 38.5733C52.2456 43.7437 56.4501 47.9483 61.6206 47.9483C64.1245 47.9483 66.4775 46.9733 68.4344 44.9934L79.8786 24.7848C79.2559 24.6589 64.5365 21.7453 56.837 28.0281Z" fill="#C86E59"/>
<path d="M108.592 28.0307C100.892 21.7457 86.1728 24.6569 85.5502 24.7874L97.1797 45.2043C98.9513 46.9758 101.304 47.9508 103.808 47.9508C109.395 47.9508 113.183 43.7463 113.183 38.5758C113.183 34.1699 111.638 30.5186 108.592 28.0307Z" fill="#A34F3E"/>
<path d="M82.7144 24C69.7322 24 59.2769 39.5417 59.2769 52.2812C59.2769 63.3641 67.1536 70.1498 80.3706 70.8856L82.7144 66.3438L85.0581 70.8856C98.2751 70.1498 106.152 63.3641 106.152 52.2812C106.152 39.5417 95.6965 24 82.7144 24Z" fill="#FFE470"/>
<path d="M106.152 52.2812C106.152 39.5417 95.6965 24 82.7144 24V66.3438L85.0581 70.8856C98.2751 70.1498 106.152 63.3641 106.152 52.2812Z" fill="#F8BB5E"/>
<path d="M120.371 49.9375C116.487 49.9375 113.339 53.0855 113.339 56.9688V69.8112L103.449 85.4783L98.3332 77.8039C96.9439 75.7256 93.9067 75.1191 91.8329 76.5061C89.6837 77.9366 89.1001 80.8525 90.5329 83.0064L99.1206 95.8878V101.656C99.1206 102.952 100.169 104 101.464 104H115.683C116.979 104 118.027 102.952 118.027 101.656V97.9225C120.283 88.3777 121.478 84.0208 122.102 80.6761C122.477 78.667 122.646 77.0233 122.714 74.8398V52.2812C122.714 50.9866 121.665 49.9375 120.371 49.9375Z" fill="#FFBFAB"/>
<path d="M74.9964 48.2804C74.081 47.3649 72.5977 47.3649 71.6822 48.2804C70.7667 49.1959 69.2835 49.1959 68.368 48.2804C67.4525 47.3649 67.4525 45.8817 68.368 44.9662C71.11 42.2242 75.5686 42.2242 78.3107 44.9662C79.2261 45.8817 79.2261 47.3649 78.3107 48.2804C77.3952 49.1959 75.9121 49.1959 74.9964 48.2804Z" fill="#465A61"/>
<path d="M93.7464 48.2804C92.831 47.3649 91.3477 47.3649 90.4322 48.2804C89.5167 49.1959 88.0335 49.1959 87.118 48.2804C86.2025 47.3649 86.2025 45.8817 87.118 44.9662C89.86 42.2242 94.3186 42.2242 97.0607 44.9662C97.9761 45.8817 97.9761 47.3649 97.0607 48.2804C96.1452 49.1959 94.6621 49.1959 93.7464 48.2804Z" fill="#3B4A51"/>
<path d="M45.0581 49.9375C48.9414 49.9375 52.0894 53.0855 52.0894 56.9688V69.8112L61.98 85.4783L67.0954 77.8039C68.4848 75.7256 71.522 75.1191 73.5958 76.5061C75.745 77.9366 76.3286 80.8525 74.8958 83.0064L66.3081 95.8878V101.656C66.3081 102.952 65.2598 104 63.9644 104H49.7456C48.4501 104 47.4019 102.952 47.4019 101.656V97.9225C45.1458 88.3778 43.9504 84.0208 43.3264 80.6761C42.9515 78.6672 42.7829 77.0233 42.7144 74.8398V52.2812C42.7144 50.9866 43.7637 49.9375 45.0581 49.9375Z" fill="#FFE1BA"/>
<path d="M82.7144 50.3403C78.377 50.3403 75.6831 51.9814 75.6831 54.625C75.6831 57.6766 77.6484 60.2538 80.3706 61.2246V70.8856C81.1565 70.9294 81.8906 71.0313 82.7144 71.0313C83.5381 71.0313 84.2722 70.9294 85.0581 70.8856V61.2246C87.7803 60.2538 89.7456 57.6766 89.7456 54.625C89.7456 51.9814 87.0517 50.3403 82.7144 50.3403Z" fill="#465A61"/>
<path d="M85.0581 61.2246C87.7803 60.2538 89.7456 57.6766 89.7456 54.625C89.7456 51.9814 87.0517 50.3403 82.7144 50.3403V71.0313C83.5381 71.0313 84.2722 70.9294 85.0581 70.8856V61.2246Z" fill="#3B4A51"/>
</g>
<path d="M61.671 140H60.1937L64.4664 128.364H65.921L70.1937 140H68.7164L65.2392 130.205H65.1483L61.671 140ZM62.2164 135.455H68.171V136.705H62.2164V135.455ZM75.1198 140.182C74.3926 140.182 73.7505 139.998 73.1937 139.631C72.6369 139.259 72.2013 138.737 71.8869 138.062C71.5725 137.384 71.4153 136.583 71.4153 135.659C71.4153 134.742 71.5725 133.947 71.8869 133.273C72.2013 132.598 72.6388 132.078 73.1994 131.71C73.76 131.343 74.4077 131.159 75.1426 131.159C75.7108 131.159 76.1596 131.254 76.4892 131.443C76.8225 131.629 77.0763 131.841 77.2505 132.08C77.4286 132.314 77.5668 132.508 77.6653 132.659H77.7789V128.364H79.1199V140H77.8244V138.659H77.6653C77.5668 138.818 77.4267 139.019 77.2448 139.261C77.063 139.5 76.8036 139.714 76.4664 139.903C76.1293 140.089 75.6805 140.182 75.1198 140.182ZM75.3017 138.977C75.8395 138.977 76.2941 138.837 76.6653 138.557C77.0365 138.273 77.3187 137.881 77.5119 137.381C77.7051 136.877 77.8017 136.295 77.8017 135.636C77.8017 134.985 77.707 134.415 77.5176 133.926C77.3282 133.434 77.0479 133.051 76.6767 132.778C76.3055 132.502 75.8471 132.364 75.3017 132.364C74.7335 132.364 74.26 132.509 73.8812 132.801C73.5062 133.089 73.224 133.481 73.0346 133.977C72.849 134.47 72.7562 135.023 72.7562 135.636C72.7562 136.258 72.8509 136.822 73.0403 137.33C73.2335 137.833 73.5176 138.235 73.8926 138.534C74.2714 138.83 74.7411 138.977 75.3017 138.977ZM85.3073 140.182C84.5195 140.182 83.8282 139.994 83.2335 139.619C82.6426 139.244 82.1805 138.72 81.8471 138.045C81.5176 137.371 81.3528 136.583 81.3528 135.682C81.3528 134.773 81.5176 133.979 81.8471 133.301C82.1805 132.623 82.6426 132.097 83.2335 131.722C83.8282 131.347 84.5195 131.159 85.3073 131.159C86.0952 131.159 86.7846 131.347 87.3755 131.722C87.9702 132.097 88.4323 132.623 88.7619 133.301C89.0952 133.979 89.2619 134.773 89.2619 135.682C89.2619 136.583 89.0952 137.371 88.7619 138.045C88.4323 138.72 87.9702 139.244 87.3755 139.619C86.7846 139.994 86.0952 140.182 85.3073 140.182ZM85.3073 138.977C85.9058 138.977 86.3983 138.824 86.7846 138.517C87.171 138.21 87.457 137.807 87.6426 137.307C87.8282 136.807 87.921 136.265 87.921 135.682C87.921 135.098 87.8282 134.555 87.6426 134.051C87.457 133.547 87.171 133.14 86.7846 132.83C86.3983 132.519 85.9058 132.364 85.3073 132.364C84.7089 132.364 84.2164 132.519 83.8301 132.83C83.4437 133.14 83.1577 133.547 82.9721 134.051C82.7865 134.555 82.6937 135.098 82.6937 135.682C82.6937 136.265 82.7865 136.807 82.9721 137.307C83.1577 137.807 83.4437 138.21 83.8301 138.517C84.2164 138.824 84.7089 138.977 85.3073 138.977ZM91.3088 143.273V131.273H92.6042V132.659H92.7633C92.8618 132.508 92.9982 132.314 93.1724 132.08C93.3504 131.841 93.6042 131.629 93.9338 131.443C94.2671 131.254 94.7179 131.159 95.286 131.159C96.0209 131.159 96.6686 131.343 97.2292 131.71C97.7898 132.078 98.2273 132.598 98.5417 133.273C98.8561 133.947 99.0133 134.742 99.0133 135.659C99.0133 136.583 98.8561 137.384 98.5417 138.062C98.2273 138.737 97.7917 139.259 97.2349 139.631C96.6781 139.998 96.036 140.182 95.3088 140.182C94.7482 140.182 94.2993 140.089 93.9622 139.903C93.6251 139.714 93.3656 139.5 93.1838 139.261C93.002 139.019 92.8618 138.818 92.7633 138.659H92.6497V143.273H91.3088ZM92.627 135.636C92.627 136.295 92.7235 136.877 92.9167 137.381C93.1099 137.881 93.3921 138.273 93.7633 138.557C94.1345 138.837 94.5891 138.977 95.127 138.977C95.6876 138.977 96.1554 138.83 96.5304 138.534C96.9091 138.235 97.1932 137.833 97.3826 137.33C97.5758 136.822 97.6724 136.258 97.6724 135.636C97.6724 135.023 97.5777 134.47 97.3883 133.977C97.2027 133.481 96.9205 133.089 96.5417 132.801C96.1667 132.509 95.6951 132.364 95.127 132.364C94.5815 132.364 94.1232 132.502 93.752 132.778C93.3807 133.051 93.1004 133.434 92.911 133.926C92.7216 134.415 92.627 134.985 92.627 135.636ZM104.854 131.273V132.409H100.331V131.273H104.854ZM101.65 129.182H102.991V137.5C102.991 137.879 103.046 138.163 103.155 138.352C103.269 138.538 103.413 138.663 103.587 138.727C103.765 138.788 103.953 138.818 104.15 138.818C104.297 138.818 104.419 138.811 104.513 138.795C104.608 138.777 104.684 138.761 104.741 138.75L105.013 139.955C104.922 139.989 104.796 140.023 104.633 140.057C104.47 140.095 104.263 140.114 104.013 140.114C103.635 140.114 103.263 140.032 102.9 139.869C102.54 139.706 102.241 139.458 102.002 139.125C101.767 138.792 101.65 138.371 101.65 137.864V129.182Z" fill="black"/>
<defs>
<clipPath id="clip0_5537_2570">
<rect width="80" height="80" fill="white" transform="translate(42.7144 24)"/>
</clipPath>
</defs>
</svg>
