<svg width="81" height="80" viewBox="0 0 81 80" fill="none" xmlns="http://www.w3.org/2000/svg">
<g clip-path="url(#clip0_5537_2571)">
<path d="M14.837 4.02813C11.7906 6.51594 10.2456 10.1673 10.2456 14.5733C10.2456 19.7437 14.4501 23.9483 19.6206 23.9483C22.1245 23.9483 24.4775 22.9733 26.4344 20.9934L37.8786 0.784844C37.2559 0.658906 22.5365 -2.25469 14.837 4.02813Z" fill="#C86E59"/>
<path d="M66.5917 4.03067C58.8922 -2.25433 44.1728 0.656916 43.5502 0.787385L55.1797 21.2043C56.9513 22.9758 59.3041 23.9508 61.8081 23.9508C67.3952 23.9508 71.1831 19.7463 71.1831 14.5758C71.1831 10.1699 69.6381 6.51864 66.5917 4.03067Z" fill="#A34F3E"/>
<path d="M40.7144 0C27.7322 0 17.2769 15.5417 17.2769 28.2812C17.2769 39.3641 25.1536 46.1498 38.3706 46.8856L40.7144 42.3438L43.0581 46.8856C56.2751 46.1498 64.1519 39.3641 64.1519 28.2812C64.1519 15.5417 53.6965 0 40.7144 0Z" fill="#FFE470"/>
<path d="M64.1519 28.2812C64.1519 15.5417 53.6965 0 40.7144 0V42.3438L43.0581 46.8856C56.2751 46.1498 64.1519 39.3641 64.1519 28.2812Z" fill="#F8BB5E"/>
<path d="M78.3706 25.9375C74.4873 25.9375 71.3393 29.0855 71.3393 32.9688V45.8112L61.4487 61.4783L56.3332 53.8039C54.9439 51.7256 51.9067 51.1191 49.8329 52.5061C47.6837 53.9366 47.1001 56.8525 48.5329 59.0064L57.1206 71.8878V77.6562C57.1206 78.9517 58.1689 80 59.4643 80H73.6831C74.9785 80 76.0268 78.9517 76.0268 77.6562V73.9225C78.2829 64.3777 79.4782 60.0208 80.1023 56.6761C80.4771 54.667 80.6457 53.0233 80.7143 50.8398V28.2812C80.7143 26.9866 79.665 25.9375 78.3706 25.9375Z" fill="#FFBFAB"/>
<path d="M32.9964 24.2804C32.081 23.3649 30.5977 23.3649 29.6822 24.2804C28.7667 25.1959 27.2835 25.1959 26.368 24.2804C25.4525 23.3649 25.4525 21.8817 26.368 20.9662C29.11 18.2242 33.5686 18.2242 36.3107 20.9662C37.2261 21.8817 37.2261 23.3649 36.3107 24.2804C35.3952 25.1959 33.9121 25.1959 32.9964 24.2804Z" fill="#465A61"/>
<path d="M51.7464 24.2804C50.831 23.3649 49.3477 23.3649 48.4322 24.2804C47.5167 25.1959 46.0335 25.1959 45.118 24.2804C44.2025 23.3649 44.2025 21.8817 45.118 20.9662C47.86 18.2242 52.3186 18.2242 55.0607 20.9662C55.9761 21.8817 55.9761 23.3649 55.0607 24.2804C54.1452 25.1959 52.6621 25.1959 51.7464 24.2804Z" fill="#3B4A51"/>
<path d="M3.05811 25.9375C6.94139 25.9375 10.0894 29.0855 10.0894 32.9688V45.8112L19.98 61.4783L25.0954 53.8039C26.4848 51.7256 29.522 51.1191 31.5958 52.5061C33.745 53.9366 34.3286 56.8525 32.8958 59.0064L24.3081 71.8878V77.6562C24.3081 78.9517 23.2598 80 21.9644 80H7.74561C6.45014 80 5.40186 78.9517 5.40186 77.6562V73.9225C3.14576 64.3778 1.95045 60.0208 1.32639 56.6761C0.951543 54.6672 0.782949 53.0233 0.714355 50.8398V28.2812C0.714355 26.9866 1.76373 25.9375 3.05811 25.9375Z" fill="#FFE1BA"/>
<path d="M40.7144 26.3403C36.377 26.3403 33.6831 27.9814 33.6831 30.625C33.6831 33.6766 35.6484 36.2538 38.3706 37.2246V46.8856C39.1565 46.9294 39.8906 47.0313 40.7144 47.0313C41.5381 47.0313 42.2722 46.9294 43.0581 46.8856V37.2246C45.7803 36.2538 47.7456 33.6766 47.7456 30.625C47.7456 27.9814 45.0517 26.3403 40.7144 26.3403Z" fill="#465A61"/>
<path d="M43.0581 37.2246C45.7803 36.2538 47.7456 33.6766 47.7456 30.625C47.7456 27.9814 45.0517 26.3403 40.7144 26.3403V47.0313C41.5381 47.0313 42.2722 46.9294 43.0581 46.8856V37.2246Z" fill="#3B4A51"/>
</g>
<defs>
<clipPath id="clip0_5537_2571">
<rect width="80" height="80" fill="white" transform="translate(0.714355)"/>
</clipPath>
</defs>
</svg>
