<svg width="166" height="172" viewBox="0 0 166 172" fill="none" xmlns="http://www.w3.org/2000/svg">
<path d="M62.0492 45.0938C62.0492 46.3881 63.0986 47.4375 64.3929 47.4375H73.7679C75.0623 47.4375 76.1117 46.3881 76.1117 45.0938V33.375L62.0492 35.7188V45.0938Z" fill="#FFE6B3"/>
<path d="M90.1742 45.0938C90.1742 46.3881 91.2236 47.4375 92.5179 47.4375H101.893C103.187 47.4375 104.237 46.3881 104.237 45.0938V35.7188L90.1742 33.375V45.0938Z" fill="#FFCA80"/>
<path d="M104.237 35.7188H62.0492C62.0492 35.0969 62.2961 34.5016 62.7351 34.0609L72.1101 24.6859C72.5508 24.2469 73.1461 24 73.7679 24H92.5179C93.1398 24 93.7351 24.2469 94.1758 24.6859L103.551 34.0609C103.99 34.5016 104.237 35.0969 104.237 35.7188Z" fill="#FFF7CC"/>
<path d="M104.237 35.7188H83.1429V24H92.5179C93.1398 24 93.7351 24.2469 94.1758 24.6859L103.551 34.0609C103.99 34.5016 104.237 35.0969 104.237 35.7188Z" fill="#FFE6B3"/>
<path d="M113.612 45.0938V101.656C113.612 102.95 112.562 104 111.268 104H55.0179C53.7242 104 52.6742 102.95 52.6742 101.656V45.0938C52.6742 43.8 53.7242 42.75 55.0179 42.75H111.268C112.562 42.75 113.612 43.8 113.612 45.0938Z" fill="#FFDA2D"/>
<path d="M113.612 45.0938V101.656C113.612 102.95 112.562 104 111.268 104H83.1429V42.75H111.268C112.562 42.75 113.612 43.8 113.612 45.0938Z" fill="#FDBF00"/>
<path d="M83.1429 71.1875C76.2633 71.1875 71.4242 81.4219 71.4242 87.5938C71.4242 92.5812 74.4711 93.5219 79.3398 92.7016C80.5648 92.4953 81.832 92.2812 83.1429 92.2812C84.4539 92.2812 85.7211 92.4953 86.9461 92.7016C91.8179 93.5234 94.8617 92.5781 94.8617 87.5938C94.8617 81.4156 90.0039 71.1875 83.1429 71.1875Z" fill="#766E6E"/>
<path d="M94.8617 87.5938C94.8617 92.5781 91.8179 93.5234 86.9461 92.7016C85.7211 92.4953 84.4539 92.2812 83.1429 92.2812V71.1875C90.0039 71.1875 94.8617 81.4156 94.8617 87.5938Z" fill="#5B5555"/>
<path d="M83.1429 52.4375C79.2664 52.4375 76.1117 55.5922 76.1117 59.4688C76.1117 63.3453 79.2664 66.5 83.1429 66.5C87.0195 66.5 90.1742 63.3453 90.1742 59.4688C90.1742 55.5922 87.0195 52.4375 83.1429 52.4375Z" fill="#766E6E"/>
<path d="M90.1742 59.4688C90.1742 63.3453 87.0195 66.5 83.1429 66.5V52.4375C87.0195 52.4375 90.1742 55.5922 90.1742 59.4688Z" fill="#5B5555"/>
<path d="M69.0804 75.875C65.2034 75.875 62.0492 72.7208 62.0492 68.8438C62.0492 64.9667 65.2034 61.8125 69.0804 61.8125C72.9575 61.8125 76.1117 64.9667 76.1117 68.8438C76.1117 72.7208 72.9575 75.875 69.0804 75.875Z" fill="#766E6E"/>
<path d="M97.2054 75.875C93.3284 75.875 90.1742 72.7208 90.1742 68.8438C90.1742 64.9667 93.3284 61.8125 97.2054 61.8125C101.082 61.8125 104.237 64.9667 104.237 68.8438C104.237 72.7208 101.082 75.875 97.2054 75.875Z" fill="#5B5555"/>
<path d="M47.0754 140V128.364H51.1436C51.9542 128.364 52.6228 128.504 53.1493 128.784C53.6758 129.061 54.0679 129.434 54.3254 129.903C54.583 130.369 54.7118 130.886 54.7118 131.455C54.7118 131.955 54.6228 132.367 54.4447 132.693C54.2705 133.019 54.0394 133.277 53.7516 133.466C53.4675 133.655 53.1588 133.795 52.8254 133.886V134C53.1815 134.023 53.5394 134.148 53.8993 134.375C54.2591 134.602 54.5603 134.928 54.8027 135.352C55.0451 135.777 55.1663 136.295 55.1663 136.909C55.1663 137.492 55.0338 138.017 54.7686 138.483C54.5035 138.949 54.0849 139.318 53.5129 139.591C52.941 139.864 52.1966 140 51.28 140H47.0754ZM48.4845 138.75H51.28C52.2004 138.75 52.8538 138.572 53.2402 138.216C53.6304 137.856 53.8254 137.42 53.8254 136.909C53.8254 136.515 53.725 136.152 53.5243 135.818C53.3235 135.481 53.0375 135.212 52.6663 135.011C52.2951 134.807 51.8557 134.705 51.3482 134.705H48.4845V138.75ZM48.4845 133.477H51.0982C51.5224 133.477 51.905 133.394 52.2459 133.227C52.5906 133.061 52.8633 132.826 53.0641 132.523C53.2686 132.22 53.3709 131.864 53.3709 131.455C53.3709 130.943 53.1929 130.509 52.8368 130.153C52.4807 129.794 51.9163 129.614 51.1436 129.614H48.4845V133.477ZM62.7999 136.432V131.273H64.1408V140H62.7999V138.523H62.709C62.5044 138.966 62.1862 139.343 61.7544 139.653C61.3226 139.96 60.7771 140.114 60.118 140.114C59.5726 140.114 59.0877 139.994 58.6635 139.756C58.2393 139.513 57.9059 139.15 57.6635 138.665C57.4211 138.176 57.2999 137.561 57.2999 136.818V131.273H58.6408V136.727C58.6408 137.364 58.8188 137.871 59.1749 138.25C59.5347 138.629 59.993 138.818 60.5499 138.818C60.8832 138.818 61.2222 138.733 61.5669 138.562C61.9154 138.392 62.2071 138.131 62.4419 137.778C62.6805 137.426 62.7999 136.977 62.7999 136.432ZM67.4604 143.273C67.2331 143.273 67.0304 143.254 66.8524 143.216C66.6744 143.182 66.5513 143.148 66.4831 143.114L66.824 141.932C67.1498 142.015 67.4376 142.045 67.6876 142.023C67.9376 142 68.1592 141.888 68.3524 141.688C68.5494 141.491 68.7293 141.17 68.8922 140.727L69.1422 140.045L65.9149 131.273H67.3695L69.7786 138.227H69.8695L72.2786 131.273H73.7331L70.0286 141.273C69.8619 141.723 69.6554 142.097 69.4092 142.392C69.163 142.691 68.877 142.913 68.5513 143.057C68.2293 143.201 67.8657 143.273 67.4604 143.273ZM83.2984 140.159C82.5333 140.159 81.8742 140.019 81.3212 139.739C80.7681 139.458 80.342 139.074 80.0428 138.585C79.7435 138.097 79.5939 137.538 79.5939 136.909C79.5939 136.424 79.6962 135.994 79.9007 135.619C80.109 135.241 80.395 134.89 80.7587 134.568C81.1261 134.242 81.5484 133.917 82.0257 133.591L83.7075 132.341C84.0371 132.125 84.3003 131.894 84.4973 131.648C84.6981 131.402 84.7984 131.08 84.7984 130.682C84.7984 130.386 84.6678 130.1 84.4064 129.824C84.1488 129.547 83.8098 129.409 83.3893 129.409C83.0939 129.409 82.8325 129.485 82.6053 129.636C82.3818 129.784 82.2056 129.973 82.0768 130.205C81.9518 130.432 81.8893 130.667 81.8893 130.909C81.8893 131.182 81.9632 131.458 82.1109 131.739C82.2625 132.015 82.4537 132.299 82.6848 132.591C82.9197 132.879 83.1621 133.174 83.4121 133.477L88.753 140H87.1393L82.7303 134.682C82.3212 134.189 81.95 133.742 81.6166 133.341C81.2833 132.939 81.0181 132.544 80.8212 132.153C80.6242 131.763 80.5257 131.341 80.5257 130.886C80.5257 130.364 80.6412 129.905 80.8723 129.511C81.1072 129.114 81.4348 128.805 81.8553 128.585C82.2795 128.362 82.7757 128.25 83.3439 128.25C83.9272 128.25 84.4291 128.364 84.8496 128.591C85.27 128.814 85.5939 129.112 85.8212 129.483C86.0484 129.85 86.1621 130.25 86.1621 130.682C86.1621 131.239 86.0238 131.722 85.7473 132.131C85.4708 132.54 85.0939 132.92 84.6166 133.273L82.2984 135C81.7757 135.386 81.4215 135.761 81.2359 136.125C81.0503 136.489 80.9575 136.75 80.9575 136.909C80.9575 137.273 81.0522 137.612 81.2416 137.926C81.431 138.241 81.6981 138.494 82.0428 138.688C82.3875 138.881 82.7909 138.977 83.253 138.977C83.6924 138.977 84.1204 138.884 84.5371 138.699C84.9537 138.509 85.3306 138.237 85.6678 137.881C86.0087 137.525 86.2776 137.097 86.4746 136.597C86.6753 136.097 86.7757 135.534 86.7757 134.909H88.0712C88.0712 135.682 87.9822 136.312 87.8041 136.801C87.6261 137.29 87.4253 137.672 87.2018 137.949C86.9784 138.225 86.7984 138.432 86.6621 138.568C86.6166 138.625 86.575 138.682 86.5371 138.739C86.4992 138.795 86.4575 138.852 86.4121 138.909C86.0371 139.33 85.5636 139.644 84.9916 139.852C84.4197 140.057 83.8553 140.159 83.2984 140.159ZM101.283 131.273C101.215 130.697 100.938 130.25 100.453 129.932C99.9684 129.614 99.3737 129.455 98.6692 129.455C98.154 129.455 97.7033 129.538 97.3169 129.705C96.9343 129.871 96.6351 130.1 96.4192 130.392C96.2071 130.684 96.101 131.015 96.101 131.386C96.101 131.697 96.1749 131.964 96.3226 132.188C96.4741 132.407 96.6673 132.591 96.9021 132.739C97.137 132.883 97.3832 133.002 97.6408 133.097C97.8983 133.187 98.1351 133.261 98.351 133.318L99.5328 133.636C99.8358 133.716 100.173 133.826 100.544 133.966C100.919 134.106 101.277 134.297 101.618 134.54C101.963 134.778 102.247 135.085 102.47 135.46C102.694 135.835 102.806 136.295 102.806 136.841C102.806 137.47 102.641 138.038 102.311 138.545C101.985 139.053 101.508 139.456 100.879 139.756C100.254 140.055 99.4949 140.205 98.601 140.205C97.7677 140.205 97.0461 140.07 96.4362 139.801C95.8302 139.532 95.3529 139.157 95.0044 138.676C94.6597 138.195 94.4646 137.636 94.4192 137H95.8737C95.9116 137.439 96.0593 137.803 96.3169 138.091C96.5783 138.375 96.9078 138.587 97.3055 138.727C97.7071 138.864 98.1389 138.932 98.601 138.932C99.1389 138.932 99.6218 138.845 100.05 138.67C100.478 138.492 100.817 138.246 101.067 137.932C101.317 137.614 101.442 137.242 101.442 136.818C101.442 136.432 101.334 136.117 101.118 135.875C100.902 135.633 100.618 135.436 100.266 135.284C99.9135 135.133 99.5328 135 99.1237 134.886L97.6919 134.477C96.7828 134.216 96.0631 133.843 95.5328 133.358C95.0025 132.873 94.7374 132.239 94.7374 131.455C94.7374 130.803 94.9135 130.235 95.2658 129.75C95.6218 129.261 96.0991 128.883 96.6976 128.614C97.2999 128.341 97.9722 128.205 98.7146 128.205C99.4646 128.205 100.131 128.339 100.715 128.608C101.298 128.873 101.76 129.237 102.101 129.699C102.446 130.161 102.628 130.686 102.646 131.273H101.283ZM108.6 140.182C107.759 140.182 107.033 139.996 106.423 139.625C105.817 139.25 105.35 138.727 105.02 138.057C104.694 137.383 104.531 136.598 104.531 135.705C104.531 134.811 104.694 134.023 105.02 133.341C105.35 132.655 105.808 132.121 106.395 131.739C106.986 131.352 107.675 131.159 108.463 131.159C108.918 131.159 109.367 131.235 109.81 131.386C110.253 131.538 110.656 131.784 111.02 132.125C111.384 132.462 111.673 132.909 111.889 133.466C112.105 134.023 112.213 134.708 112.213 135.523V136.091H105.486V134.932H110.85C110.85 134.439 110.751 134 110.554 133.614C110.361 133.227 110.084 132.922 109.725 132.699C109.369 132.475 108.948 132.364 108.463 132.364C107.929 132.364 107.467 132.496 107.077 132.761C106.69 133.023 106.393 133.364 106.185 133.784C105.976 134.205 105.872 134.655 105.872 135.136V135.909C105.872 136.568 105.986 137.127 106.213 137.585C106.444 138.04 106.764 138.386 107.173 138.625C107.583 138.86 108.058 138.977 108.6 138.977C108.952 138.977 109.27 138.928 109.554 138.83C109.842 138.727 110.09 138.576 110.298 138.375C110.507 138.17 110.668 137.917 110.781 137.614L112.077 137.977C111.94 138.417 111.711 138.803 111.389 139.136C111.067 139.466 110.67 139.723 110.196 139.909C109.723 140.091 109.19 140.182 108.6 140.182ZM115.594 128.364V140H114.253V128.364H115.594ZM119.391 128.364V140H118.05V128.364H119.391Z" fill="black"/>
</svg>
