<svg width="81" height="78" viewBox="0 0 81 78" fill="none" xmlns="http://www.w3.org/2000/svg">
<path d="M7.65088 30.0188V69.0259C7.65088 72.4779 10.4749 75.3021 13.9265 75.3021H66.6449C70.0965 75.3021 72.9212 72.4779 72.9212 69.0259V30.0187L7.65088 30.0188Z" fill="#D7E9FD"/>
<path d="M40.2856 30.0188V75.3021H66.645C70.0966 75.3021 72.9211 72.4779 72.9211 69.0259V30.0187L40.2856 30.0188Z" fill="#B4DAFE"/>
<path d="M72.9212 27.6751H7.65088C6.35635 27.6751 5.30713 28.7243 5.30713 30.0188V69.0259C5.30713 73.7787 9.17369 77.6459 13.9265 77.6459H66.6449C71.3978 77.6459 75.2649 73.7787 75.2649 69.0259V30.0187C75.2649 28.7241 74.2151 27.6749 72.9212 27.6749V27.6751ZM70.5774 52.6604H54.9963V34.6385C54.9963 33.5345 54.2317 32.6104 53.2032 32.3626H70.5774V52.6604ZM9.99463 69.0259V32.3624H52.1028C51.0743 32.6102 50.309 33.5337 50.309 34.6384V72.9582H13.9263C11.7584 72.9582 9.99447 71.1942 9.99447 69.0257L9.99463 69.0259ZM66.6449 72.9584H54.9965V57.3479H70.5774V69.0259C70.5774 71.1945 68.8129 72.9584 66.6449 72.9584Z" fill="#7CC8F0"/>
<path d="M72.9211 27.6751H40.2856V32.3626H52.1027C51.0742 32.6104 50.3089 33.5338 50.3089 34.6385V72.9584H40.2856V77.6459H66.645C71.3977 77.6459 75.2649 73.7787 75.2649 69.0259V30.0187C75.2649 28.7241 74.215 27.6749 72.9211 27.6749V27.6751ZM70.5774 69.0259C70.5774 71.1945 68.8128 72.9584 66.6449 72.9584H54.9964V57.3479H70.5774V69.0259ZM70.5774 52.6604H54.9963V34.6385C54.9963 33.5345 54.2316 32.6104 53.2031 32.3626H70.5774V52.6604Z" fill="#00ABE9"/>
<path d="M30.1521 50.8734C24.2109 50.8734 19.3774 55.7073 19.3774 61.648C19.3763 62.7408 19.6948 63.81 20.2937 64.7241C21.3374 66.3189 23.0964 67.2711 24.9995 67.2711C26.3349 67.2711 27.392 66.9573 28.2417 66.7059C28.9423 66.4978 29.4965 66.3342 30.1521 66.3342C30.8076 66.3342 31.3612 66.4978 32.0618 66.7059C32.9115 66.9575 33.9685 67.2711 35.304 67.2711C37.2078 67.2711 38.9668 66.3184 40.0098 64.7247C40.609 63.8105 40.9277 62.741 40.9267 61.648C40.9267 55.7073 36.0926 50.8734 30.1521 50.8734ZM21.7842 50.0891C21.1665 50.0891 20.5623 49.8389 20.1259 49.4012C19.6882 48.9611 19.4419 48.366 19.4404 47.7453C19.4404 47.1283 19.6899 46.5234 20.1259 46.0875C20.5668 45.6495 21.1627 45.403 21.7842 45.4016C22.4052 45.4034 23.0006 45.6498 23.4412 46.0875C23.8795 46.5281 24.1263 47.1238 24.1279 47.7453C24.1279 48.3606 23.8776 48.9655 23.4412 49.4012C23.0012 49.8401 22.4056 50.0874 21.7842 50.0891ZM27.251 47.1875C26.6339 47.1875 26.0292 46.9372 25.5932 46.5016C25.1576 46.0639 24.9073 45.4609 24.9073 44.8438C24.9073 44.2261 25.1576 43.623 25.5932 43.1855C26.0292 42.7495 26.6339 42.5 27.251 42.5C27.8682 42.5 28.4712 42.7497 28.9089 43.1855C29.3446 43.623 29.5948 44.2261 29.5948 44.8438C29.5948 45.4609 29.3446 46.0656 28.9089 46.5016C28.4712 46.9372 27.8682 47.1875 27.251 47.1875ZM33.0524 47.1875C32.4353 47.1875 31.8323 46.9372 31.3946 46.5016C30.959 46.0639 30.7087 45.4609 30.7087 44.8438C30.7087 44.2261 30.959 43.623 31.3946 43.1855C31.8306 42.7495 32.4353 42.5 33.0524 42.5C33.6696 42.5 34.2743 42.7497 34.7103 43.1855C35.1459 43.623 35.3962 44.2261 35.3962 44.8438C35.3962 45.4609 35.1459 46.0656 34.7103 46.5016C34.2693 46.9392 33.6737 47.1856 33.0524 47.1875ZM38.5193 50.0891C37.8979 50.0873 37.3023 49.8401 36.8623 49.4012C36.4241 48.9614 36.1773 48.3662 36.1756 47.7453C36.1756 47.1283 36.4259 46.5234 36.8623 46.0875C37.3028 45.6497 37.8982 45.4032 38.5193 45.4016C39.1408 45.4032 39.7367 45.6496 40.1778 46.0875C40.6154 46.5284 40.8616 47.1241 40.8631 47.7453C40.8631 48.3625 40.6135 48.9655 40.1778 49.4012C39.7374 49.8404 39.1412 50.0877 38.5193 50.0891Z" fill="#005285"/>
<path d="M80.1953 19.4286L76.8988 7.8905C75.6592 3.55332 71.1553 0.156128 66.645 0.156128H13.9264C9.41596 0.156128 4.91205 3.55332 3.67252 7.8905L0.375957 19.4286C0.316138 19.638 0.285743 19.8546 0.285645 20.0724L0.285645 27.6036C0.285645 33.0493 4.71564 37.4791 10.1606 37.4791C14.7986 37.4791 18.7 34.265 19.7547 29.9474H30.6916C31.7469 34.265 35.6475 37.4791 40.2856 37.4791C44.9238 37.4791 48.8244 34.265 49.8791 29.9474H60.8166C61.8713 34.265 65.7728 37.4791 70.4102 37.4791C75.8556 37.4791 80.2856 33.0493 80.2856 27.6036V20.0724C80.2856 19.8552 80.2552 19.6386 80.1953 19.4286Z" fill="#FF5B5B"/>
<path d="M80.1953 19.4286H0.375957C0.316138 19.6379 0.285743 19.8546 0.285645 20.0723L0.285645 27.6036C0.285645 33.0492 4.71564 37.4791 10.1606 37.4791C14.7986 37.4791 18.7 34.265 19.7547 29.9473H30.6916C31.7469 34.265 35.6475 37.4791 40.2856 37.4791C44.9238 37.4791 48.8244 34.265 49.8791 29.9473H60.8166C61.8713 34.265 65.7728 37.4791 70.4102 37.4791C75.8556 37.4791 80.2856 33.0492 80.2856 27.6036V20.0723C80.2856 19.8552 80.2552 19.6386 80.1953 19.4286Z" fill="#1FBF66"/>
<path d="M80.1953 19.4286H0.375957C0.316138 19.6379 0.285743 19.8546 0.285645 20.0723L0.285645 27.6036C0.285645 33.0492 4.71564 37.4791 10.1606 37.4791C14.7986 37.4791 18.7 34.265 19.7547 29.9473H30.6916C31.7469 34.265 35.6475 37.4791 40.2856 37.4791C44.9238 37.4791 48.8244 34.265 49.8791 29.9473H60.8166C61.8713 34.265 65.7728 37.4791 70.4102 37.4791C75.8556 37.4791 80.2856 33.0492 80.2856 27.6036V20.0723C80.2856 19.8552 80.2552 19.6386 80.1953 19.4286Z" fill="#FF3980"/>
<path d="M80.1953 19.4286L76.8988 7.8905C75.6592 3.55332 71.1553 0.156128 66.645 0.156128H40.2856V37.4791C44.9238 37.4791 48.8244 34.265 49.8791 29.9474H60.8166C61.8713 34.265 65.7728 37.4791 70.4102 37.4791C75.8556 37.4791 80.2856 33.0493 80.2856 27.6036V20.0724C80.2856 19.8552 80.2552 19.6386 80.1953 19.4286Z" fill="#FF3980"/>
<path d="M80.1953 19.4287H40.2856V37.4792C44.9238 37.4792 48.8244 34.2651 49.8791 29.9475H60.8166C61.8713 34.2651 65.7728 37.4792 70.4102 37.4792C75.8556 37.4792 80.2856 33.0493 80.2856 27.6037V20.0725C80.2856 19.8553 80.2552 19.6387 80.1953 19.4287Z" fill="#DD226E"/>
<path d="M15.3479 19.4286V27.6036C15.3479 33.0492 19.7785 37.4791 25.2229 37.4791C30.6684 37.4791 35.0984 33.0492 35.0984 27.6036V19.4286H15.3479Z" fill="white"/>
<path d="M45.4731 19.4287V27.6037C45.4731 33.0493 49.9028 37.4792 55.3478 37.4792C60.7928 37.4792 65.2228 33.0493 65.2228 27.6037V19.4287H45.4731Z" fill="#D7E9FD"/>
</svg>
