<svg width="81" height="80" viewBox="0 0 81 80" fill="none" xmlns="http://www.w3.org/2000/svg">
<g clip-path="url(#clip0_5537_2553)">
<path d="M23.9822 63.2812C27.0888 63.2812 29.6072 60.7629 29.6072 57.6562C29.6072 54.5496 27.0888 52.0312 23.9822 52.0312C20.8756 52.0312 18.3572 54.5496 18.3572 57.6562C18.3572 60.7629 20.8756 63.2812 23.9822 63.2812Z" fill="#F4B860"/>
<path d="M40.8572 53.5938C43.9638 53.5938 46.4822 51.0754 46.4822 47.9688C46.4822 44.8621 43.9638 42.3438 40.8572 42.3438C37.7506 42.3438 35.2322 44.8621 35.2322 47.9688C35.2322 51.0754 37.7506 53.5938 40.8572 53.5938Z" fill="#F4B860"/>
<path d="M35.2322 63.2812C38.3388 63.2812 40.8572 60.7629 40.8572 57.6562C40.8572 54.5496 38.3388 52.0312 35.2322 52.0312C32.1256 52.0312 29.6072 54.5496 29.6072 57.6562C29.6072 60.7629 32.1256 63.2812 35.2322 63.2812Z" fill="#F4B860"/>
<path d="M46.4822 63.2812C49.5888 63.2812 52.1072 60.7629 52.1072 57.6562C52.1072 54.5496 49.5888 52.0312 46.4822 52.0312C43.3756 52.0312 40.8572 54.5496 40.8572 57.6562C40.8572 60.7629 43.3756 63.2812 46.4822 63.2812Z" fill="#F4B860"/>
<path d="M52.1072 53.5938C55.2138 53.5938 57.7322 51.0754 57.7322 47.9688C57.7322 44.8621 55.2138 42.3438 52.1072 42.3438C49.0006 42.3438 46.4822 44.8621 46.4822 47.9688C46.4822 51.0754 49.0006 53.5938 52.1072 53.5938Z" fill="#F4B860"/>
<path d="M57.7322 63.2812C60.8388 63.2812 63.3572 60.7629 63.3572 57.6562C63.3572 54.5496 60.8388 52.0312 57.7322 52.0312C54.6256 52.0312 52.1072 54.5496 52.1072 57.6562C52.1072 60.7629 54.6256 63.2812 57.7322 63.2812Z" fill="#F4B860"/>
<path d="M43.2273 53.07C43.506 52.8717 43.8021 52.6993 44.112 52.5548C45.5458 51.5355 46.4822 49.862 46.4822 47.9688C46.4822 44.8622 43.9637 42.3438 40.8572 42.3438V53.5938C41.676 53.5945 42.4851 53.4157 43.2273 53.07ZM49.737 53.07C49.427 52.9256 49.1309 52.7532 48.8523 52.5548C48.1319 52.2197 47.3292 52.0312 46.4822 52.0312C45.6351 52.0312 44.8325 52.2195 44.112 52.5548C43.8334 52.7531 43.5373 52.9255 43.2273 53.07C41.7936 54.0894 40.8572 55.763 40.8572 57.6562C40.8572 60.7628 43.3756 63.2812 46.4822 63.2812C49.5887 63.2812 52.1072 60.7628 52.1072 57.6562C52.1072 55.763 51.1708 54.0895 49.737 53.07Z" fill="#F09636"/>
<path d="M44.112 52.555C43.802 52.6994 43.5059 52.8718 43.2273 53.0702C43.5372 52.9257 43.8333 52.7532 44.112 52.555ZM48.8523 52.555C49.1623 52.6994 49.4584 52.8718 49.737 53.0702C50.4574 53.4053 51.2601 53.5938 52.1071 53.5938C52.9542 53.5938 53.7568 53.4053 54.4773 53.07C54.7559 52.8717 55.052 52.6993 55.362 52.5548C56.7957 51.5355 57.7321 49.862 57.7321 47.9688C57.7321 44.8622 55.2137 42.3438 52.1071 42.3438C49.0006 42.3438 46.4821 44.8622 46.4821 47.9688C46.4821 49.862 47.4185 51.5355 48.8523 52.555Z" fill="#F09636"/>
<path d="M49.737 53.07C49.4584 52.8717 49.1622 52.6993 48.8523 52.5548C49.1309 52.7532 49.427 52.9256 49.737 53.07ZM57.7321 52.0313C56.9133 52.0305 56.1043 52.2093 55.362 52.555C55.0834 52.7533 54.7872 52.9257 54.4773 53.0702C53.0435 54.0895 52.1071 55.763 52.1071 57.6563C52.1071 60.7628 54.6256 63.2813 57.7321 63.2813C60.8387 63.2813 63.3571 60.7628 63.3571 57.6563C63.3571 54.5497 60.8387 52.0313 57.7321 52.0313Z" fill="#F09636"/>
<path d="M55.362 52.5551C55.052 52.6994 54.7559 52.8719 54.4773 53.0702C54.7872 52.9257 55.0833 52.7533 55.362 52.5551Z" fill="#F09636"/>
<path d="M57.5759 24.6875C60.6825 24.6875 63.2009 22.1691 63.2009 19.0625C63.2009 15.9559 60.6825 13.4375 57.5759 13.4375C54.4693 13.4375 51.9509 15.9559 51.9509 19.0625C51.9509 22.1691 54.4693 24.6875 57.5759 24.6875Z" fill="#F09636"/>
<path d="M75.2322 11.25C78.3388 11.25 80.8572 8.7316 80.8572 5.625C80.8572 2.5184 78.3388 0 75.2322 0C72.1256 0 69.6072 2.5184 69.6072 5.625C69.6072 8.7316 72.1256 11.25 75.2322 11.25Z" fill="#F09636"/>
<path d="M71.5422 58.1722H10.1722C9.54775 58.1722 8.93766 58.3597 8.42096 58.7104C7.90427 59.0611 7.50479 59.5589 7.27426 60.1393L1.08051 75.7305C0.267226 77.7779 1.77566 80.0001 3.97848 80.0001H77.7358C79.9388 80.0001 81.4471 77.7779 80.6338 75.7305L74.44 60.1393C74.2095 59.5589 73.8101 59.0612 73.2934 58.7105C72.7767 58.3598 72.1667 58.1723 71.5422 58.1722Z" fill="#7B87E1"/>
<path d="M80.6339 75.7305L74.4401 60.1393C74.2096 59.5589 73.8101 59.0611 73.2934 58.7104C72.7767 58.3597 72.1667 58.1722 71.5422 58.1722H40.8572V80.0001H77.7359C79.9387 80.0001 81.4472 77.7779 80.6339 75.7305Z" fill="#6E79DE"/>
</g>
<defs>
<clipPath id="clip0_5537_2553">
<rect width="80" height="80" fill="white" transform="translate(0.857178)"/>
</clipPath>
</defs>
</svg>
