<svg width="165" height="172" viewBox="0 0 165 172" fill="none" xmlns="http://www.w3.org/2000/svg">
<g clip-path="url(#clip0_5537_2561)">
<path d="M80.4936 78.3438L73.7436 85.7967L68.3528 73.9844L52.9311 40.1874C51.1498 36.5778 51.8528 32.3594 54.4778 29.5936C54.9936 29.0311 55.7905 28.7499 56.5872 28.8906C57.3373 28.9842 57.9934 29.5 58.3216 30.203L68.3528 52L80.4936 78.3438Z" fill="#C5C9F7"/>
<path d="M80.4936 78.3437L73.7436 85.7967L68.3528 73.9844V52L80.4936 78.3437Z" fill="#A8AFF1"/>
<path d="M83.7745 40.1874L68.3528 73.9844L62.962 85.7967L56.212 78.3438L68.3528 52L78.3841 30.203C78.7122 29.5 79.3683 28.9842 80.1184 28.8906C80.9152 28.7499 81.712 29.0311 82.2278 29.5936C84.853 32.3594 85.5558 36.578 83.7745 40.1874Z" fill="#E1E4FB"/>
<path d="M110.853 33.5312H101.478C100.182 33.5312 99.134 32.483 99.134 31.1875C99.134 29.892 100.182 28.8438 101.478 28.8438H110.853C112.148 28.8438 113.197 29.892 113.197 31.1875C113.197 32.483 112.148 33.5312 110.853 33.5312ZM110.853 42.9062H101.478C100.182 42.9062 99.134 41.858 99.134 40.5625C99.134 39.267 100.182 38.2188 101.478 38.2188H110.853C112.148 38.2188 113.197 39.267 113.197 40.5625C113.197 41.858 112.148 42.9062 110.853 42.9062ZM110.853 52.2812H101.478C100.182 52.2812 99.134 51.233 99.134 49.9375C99.134 48.642 100.182 47.5938 101.478 47.5938H110.853C112.148 47.5938 113.197 48.642 113.197 49.9375C113.197 51.233 112.148 52.2812 110.853 52.2812ZM110.853 61.6562H101.478C100.182 61.6562 99.134 60.608 99.134 59.3125C99.134 58.017 100.182 56.9688 101.478 56.9688H110.853C112.148 56.9688 113.197 58.017 113.197 59.3125C113.197 60.608 112.148 61.6562 110.853 61.6562ZM110.853 71.0312H101.478C100.182 71.0312 99.134 69.983 99.134 68.6875C99.134 67.392 100.182 66.3438 101.478 66.3438H110.853C112.148 66.3438 113.197 67.392 113.197 68.6875C113.197 69.983 112.148 71.0312 110.853 71.0312ZM110.853 80.4062H101.478C100.182 80.4062 99.134 79.358 99.134 78.0625C99.134 76.767 100.182 75.7188 101.478 75.7188H110.853C112.148 75.7188 113.197 76.767 113.197 78.0625C113.197 79.358 112.148 80.4062 110.853 80.4062ZM110.853 89.7812H101.478C100.182 89.7812 99.134 88.733 99.134 87.4375C99.134 86.142 100.182 85.0938 101.478 85.0938H110.853C112.148 85.0938 113.197 86.142 113.197 87.4375C113.197 88.733 112.148 89.7812 110.853 89.7812ZM110.853 99.1562H101.478C100.182 99.1562 99.134 98.108 99.134 96.8125C99.134 95.517 100.182 94.4688 101.478 94.4688H110.853C112.148 94.4688 113.197 95.517 113.197 96.8125C113.197 98.108 112.148 99.1562 110.853 99.1562Z" fill="#00EA7D"/>
<path d="M83.7745 40.1874L68.3528 73.9844V52L78.384 30.203C78.7122 29.5 79.3683 28.9842 80.1184 28.8906C80.9151 28.7499 81.712 29.0311 82.2278 29.5936C84.8529 32.3594 85.5558 36.578 83.7745 40.1874Z" fill="#C5C9F7"/>
<path d="M115.54 99.1562H108.509V28.8438H115.54C119.424 28.8438 122.572 31.9917 122.572 35.875V92.125C122.572 96.0083 119.424 99.1562 115.54 99.1562Z" fill="#00CB7E"/>
<path d="M54.2903 99.1562C47.8289 99.1562 42.5715 93.8989 42.5715 87.4375C42.5715 80.9761 47.8289 75.7188 54.2903 75.7188C60.7517 75.7188 66.009 80.9761 66.009 87.4375C66.009 93.8989 60.7517 99.1562 54.2903 99.1562ZM54.2903 80.4062C50.4131 80.4062 47.259 83.5603 47.259 87.4375C47.259 91.3147 50.4131 94.4688 54.2903 94.4688C58.1675 94.4688 61.3215 91.3147 61.3215 87.4375C61.3215 83.5603 58.1675 80.4062 54.2903 80.4062Z" fill="#00B3B8"/>
<path d="M82.4153 99.1562C75.9539 99.1562 70.6965 93.8989 70.6965 87.4375C70.6965 80.9761 75.9539 75.7188 82.4153 75.7188C88.8767 75.7188 94.2903 80.9761 94.2903 87.4375C94.2903 93.8989 88.8767 99.1562 82.4153 99.1562ZM82.4153 80.4062C78.5381 80.4062 75.384 83.5603 75.384 87.4375C75.384 91.3147 78.5381 94.4688 82.4153 94.4688C86.2925 94.4688 89.4465 91.3147 89.4465 87.4375C89.4465 83.5603 86.2925 80.4062 82.4153 80.4062Z" fill="#00A2AF"/>
</g>
<path d="M55.1929 132C55.0679 131.617 54.9032 131.275 54.6986 130.972C54.4979 130.665 54.2573 130.403 53.977 130.188C53.7005 129.972 53.3861 129.807 53.0338 129.693C52.6816 129.58 52.2952 129.523 51.8748 129.523C51.1854 129.523 50.5585 129.701 49.9941 130.057C49.4297 130.413 48.9808 130.938 48.6475 131.631C48.3141 132.324 48.1475 133.174 48.1475 134.182C48.1475 135.189 48.316 136.04 48.6532 136.733C48.9903 137.426 49.4467 137.951 50.0225 138.307C50.5982 138.663 51.246 138.841 51.9657 138.841C52.6323 138.841 53.2195 138.699 53.727 138.415C54.2384 138.127 54.6361 137.722 54.9202 137.199C55.2081 136.672 55.352 136.053 55.352 135.341L55.7838 135.432H52.2838V134.182H56.7157V135.432C56.7157 136.39 56.5111 137.223 56.102 137.932C55.6967 138.64 55.1361 139.189 54.4202 139.58C53.7081 139.966 52.8899 140.159 51.9657 140.159C50.9354 140.159 50.0301 139.917 49.2498 139.432C48.4732 138.947 47.8672 138.258 47.4316 137.364C46.9998 136.47 46.7838 135.409 46.7838 134.182C46.7838 133.261 46.907 132.434 47.1532 131.699C47.4032 130.96 47.7554 130.331 48.21 129.812C48.6645 129.294 49.2024 128.896 49.8236 128.619C50.4448 128.343 51.1285 128.205 51.8748 128.205C52.4884 128.205 53.0604 128.297 53.5907 128.483C54.1248 128.665 54.6001 128.924 55.0168 129.261C55.4373 129.595 55.7876 129.994 56.0679 130.46C56.3482 130.922 56.5414 131.436 56.6475 132H55.1929ZM58.9472 140V131.273H60.2427V132.591H60.3336C60.4927 132.159 60.7805 131.809 61.1972 131.54C61.6139 131.271 62.0836 131.136 62.6063 131.136C62.7048 131.136 62.8279 131.138 62.9756 131.142C63.1233 131.146 63.2351 131.152 63.3108 131.159V132.523C63.2654 132.511 63.1612 132.494 62.9983 132.472C62.8392 132.445 62.6707 132.432 62.4927 132.432C62.0684 132.432 61.6896 132.521 61.3563 132.699C61.0267 132.873 60.7654 133.116 60.5722 133.426C60.3828 133.733 60.2881 134.083 60.2881 134.477V140H58.9472ZM68.1802 140.182C67.3923 140.182 66.701 139.994 66.1063 139.619C65.5154 139.244 65.0533 138.72 64.7199 138.045C64.3904 137.371 64.2256 136.583 64.2256 135.682C64.2256 134.773 64.3904 133.979 64.7199 133.301C65.0533 132.623 65.5154 132.097 66.1063 131.722C66.701 131.347 67.3923 131.159 68.1802 131.159C68.968 131.159 69.6574 131.347 70.2483 131.722C70.843 132.097 71.3052 132.623 71.6347 133.301C71.968 133.979 72.1347 134.773 72.1347 135.682C72.1347 136.583 71.968 137.371 71.6347 138.045C71.3052 138.72 70.843 139.244 70.2483 139.619C69.6574 139.994 68.968 140.182 68.1802 140.182ZM68.1802 138.977C68.7786 138.977 69.2711 138.824 69.6574 138.517C70.0438 138.21 70.3298 137.807 70.5154 137.307C70.701 136.807 70.7938 136.265 70.7938 135.682C70.7938 135.098 70.701 134.555 70.5154 134.051C70.3298 133.547 70.0438 133.14 69.6574 132.83C69.2711 132.519 68.7786 132.364 68.1802 132.364C67.5817 132.364 67.0892 132.519 66.7029 132.83C66.3165 133.14 66.0305 133.547 65.8449 134.051C65.6593 134.555 65.5665 135.098 65.5665 135.682C65.5665 136.265 65.6593 136.807 65.8449 137.307C66.0305 137.807 66.3165 138.21 66.7029 138.517C67.0892 138.824 67.5817 138.977 68.1802 138.977ZM77.727 140.182C76.9391 140.182 76.2479 139.994 75.6532 139.619C75.0623 139.244 74.6001 138.72 74.2668 138.045C73.9373 137.371 73.7725 136.583 73.7725 135.682C73.7725 134.773 73.9373 133.979 74.2668 133.301C74.6001 132.623 75.0623 132.097 75.6532 131.722C76.2479 131.347 76.9391 131.159 77.727 131.159C78.5149 131.159 79.2043 131.347 79.7952 131.722C80.3899 132.097 80.852 132.623 81.1816 133.301C81.5149 133.979 81.6816 134.773 81.6816 135.682C81.6816 136.583 81.5149 137.371 81.1816 138.045C80.852 138.72 80.3899 139.244 79.7952 139.619C79.2043 139.994 78.5149 140.182 77.727 140.182ZM77.727 138.977C78.3255 138.977 78.8179 138.824 79.2043 138.517C79.5907 138.21 79.8766 137.807 80.0623 137.307C80.2479 136.807 80.3407 136.265 80.3407 135.682C80.3407 135.098 80.2479 134.555 80.0623 134.051C79.8766 133.547 79.5907 133.14 79.2043 132.83C78.8179 132.519 78.3255 132.364 77.727 132.364C77.1285 132.364 76.6361 132.519 76.2498 132.83C75.8634 133.14 75.5774 133.547 75.3918 134.051C75.2062 134.555 75.1134 135.098 75.1134 135.682C75.1134 136.265 75.2062 136.807 75.3918 137.307C75.5774 137.807 75.8634 138.21 76.2498 138.517C76.6361 138.824 77.1285 138.977 77.727 138.977ZM83.7284 140V131.273H85.0239V132.636H85.1375C85.3194 132.17 85.6129 131.809 86.0182 131.551C86.4235 131.29 86.9103 131.159 87.4784 131.159C88.0542 131.159 88.5334 131.29 88.9159 131.551C89.3023 131.809 89.6034 132.17 89.8194 132.636H89.9103C90.1338 132.186 90.469 131.828 90.9159 131.562C91.3629 131.294 91.8989 131.159 92.5239 131.159C93.3042 131.159 93.9425 131.403 94.4387 131.892C94.9349 132.377 95.183 133.133 95.183 134.159V140H93.8421V134.159C93.8421 133.515 93.6659 133.055 93.3137 132.778C92.9614 132.502 92.5466 132.364 92.0694 132.364C91.4557 132.364 90.9803 132.549 90.6432 132.92C90.3061 133.288 90.1375 133.754 90.1375 134.318V140H88.7739V134.023C88.7739 133.527 88.6129 133.127 88.2909 132.824C87.969 132.517 87.5542 132.364 87.0466 132.364C86.6981 132.364 86.3724 132.456 86.0694 132.642C85.7701 132.828 85.5277 133.085 85.3421 133.415C85.1603 133.741 85.0694 134.117 85.0694 134.545V140H83.7284ZM97.6347 140V131.273H98.9756V140H97.6347ZM98.3165 129.818C98.0552 129.818 97.8298 129.729 97.6404 129.551C97.4548 129.373 97.362 129.159 97.362 128.909C97.362 128.659 97.4548 128.445 97.6404 128.267C97.8298 128.089 98.0552 128 98.3165 128C98.5779 128 98.8014 128.089 98.987 128.267C99.1764 128.445 99.2711 128.659 99.2711 128.909C99.2711 129.159 99.1764 129.373 98.987 129.551C98.8014 129.729 98.5779 129.818 98.3165 129.818ZM102.772 134.75V140H101.432V131.273H102.727V132.636H102.841C103.045 132.193 103.356 131.837 103.772 131.568C104.189 131.295 104.727 131.159 105.386 131.159C105.977 131.159 106.494 131.28 106.937 131.523C107.38 131.761 107.725 132.125 107.971 132.614C108.218 133.098 108.341 133.712 108.341 134.455V140H107V134.545C107 133.86 106.822 133.326 106.466 132.943C106.11 132.557 105.621 132.364 105 132.364C104.572 132.364 104.189 132.456 103.852 132.642C103.519 132.828 103.255 133.098 103.062 133.455C102.869 133.811 102.772 134.242 102.772 134.75ZM114.314 143.455C113.666 143.455 113.109 143.371 112.643 143.205C112.177 143.042 111.789 142.826 111.478 142.557C111.172 142.292 110.927 142.008 110.745 141.705L111.814 140.955C111.935 141.114 112.088 141.295 112.274 141.5C112.46 141.708 112.713 141.888 113.035 142.04C113.361 142.195 113.787 142.273 114.314 142.273C115.018 142.273 115.6 142.102 116.058 141.761C116.516 141.42 116.745 140.886 116.745 140.159V138.386H116.632C116.533 138.545 116.393 138.742 116.211 138.977C116.033 139.208 115.776 139.415 115.439 139.597C115.105 139.775 114.655 139.864 114.086 139.864C113.382 139.864 112.749 139.697 112.189 139.364C111.632 139.03 111.191 138.545 110.865 137.909C110.543 137.273 110.382 136.5 110.382 135.591C110.382 134.697 110.539 133.919 110.853 133.256C111.168 132.589 111.605 132.074 112.166 131.71C112.727 131.343 113.374 131.159 114.109 131.159C114.677 131.159 115.128 131.254 115.461 131.443C115.799 131.629 116.056 131.841 116.234 132.08C116.416 132.314 116.556 132.508 116.655 132.659H116.791V131.273H118.086V140.25C118.086 141 117.916 141.61 117.575 142.08C117.238 142.553 116.783 142.9 116.211 143.119C115.643 143.343 115.011 143.455 114.314 143.455ZM114.268 138.659C114.806 138.659 115.261 138.536 115.632 138.29C116.003 138.044 116.285 137.689 116.478 137.227C116.672 136.765 116.768 136.212 116.768 135.568C116.768 134.939 116.674 134.384 116.484 133.903C116.295 133.422 116.014 133.045 115.643 132.773C115.272 132.5 114.814 132.364 114.268 132.364C113.7 132.364 113.227 132.508 112.848 132.795C112.473 133.083 112.191 133.47 112.001 133.955C111.816 134.439 111.723 134.977 111.723 135.568C111.723 136.174 111.817 136.71 112.007 137.176C112.2 137.638 112.484 138.002 112.859 138.267C113.238 138.528 113.708 138.659 114.268 138.659Z" fill="black"/>
<defs>
<clipPath id="clip0_5537_2561">
<rect width="80" height="80" fill="white" transform="translate(42.5715 24)"/>
</clipPath>
</defs>
</svg>
