<svg width="38" height="38" viewBox="0 0 38 38" fill="none" xmlns="http://www.w3.org/2000/svg">
<rect width="38" height="38" rx="19" fill="#EBE5FC"/>
<g clip-path="url(#clip0_5587_806)">
<path fill-rule="evenodd" clip-rule="evenodd" d="M22.6612 22.6633C22.8005 22.5239 22.966 22.4132 23.148 22.3377C23.3301 22.2622 23.5253 22.2234 23.7225 22.2234C23.9196 22.2234 24.1148 22.2622 24.2969 22.3377C24.479 22.4132 24.6444 22.5239 24.7837 22.6633L30.5587 28.4383C30.8402 28.7196 30.9984 29.1011 30.9985 29.499C30.9987 29.8969 30.8407 30.2786 30.5595 30.5601C30.2782 30.8415 29.8966 30.9997 29.4987 30.9999C29.1008 31 28.7192 30.8421 28.4377 30.5608L22.6627 24.7858C22.5232 24.6465 22.4126 24.4811 22.3371 24.299C22.2616 24.1169 22.2228 23.9217 22.2228 23.7246C22.2228 23.5274 22.2616 23.3323 22.3371 23.1502C22.4126 22.9681 22.5232 22.8026 22.6627 22.6633H22.6612Z" fill="#7749F8"/>
<path fill-rule="evenodd" clip-rule="evenodd" d="M16.75 25C17.8334 25 18.9062 24.7866 19.9071 24.372C20.9081 23.9574 21.8175 23.3497 22.5836 22.5836C23.3497 21.8175 23.9574 20.9081 24.372 19.9071C24.7866 18.9062 25 17.8334 25 16.75C25 15.6666 24.7866 14.5938 24.372 13.5929C23.9574 12.5919 23.3497 11.6825 22.5836 10.9164C21.8175 10.1503 20.9081 9.5426 19.9071 9.12799C18.9062 8.71339 17.8334 8.5 16.75 8.5C14.562 8.5 12.4635 9.36919 10.9164 10.9164C9.36919 12.4635 8.5 14.562 8.5 16.75C8.5 18.938 9.36919 21.0365 10.9164 22.5836C12.4635 24.1308 14.562 25 16.75 25ZM26.5 16.75C26.5 19.3359 25.4728 21.8158 23.6443 23.6443C21.8158 25.4728 19.3359 26.5 16.75 26.5C14.1641 26.5 11.6842 25.4728 9.85571 23.6443C8.02723 21.8158 7 19.3359 7 16.75C7 14.1641 8.02723 11.6842 9.85571 9.85571C11.6842 8.02723 14.1641 7 16.75 7C19.3359 7 21.8158 8.02723 23.6443 9.85571C25.4728 11.6842 26.5 14.1641 26.5 16.75Z" fill="#7749F8"/>
</g>
<defs>
<clipPath id="clip0_5587_806">
<rect width="24" height="24" fill="white" transform="translate(7 7)"/>
</clipPath>
</defs>
</svg>
