<svg width="165" height="172" viewBox="0 0 165 172" fill="none" xmlns="http://www.w3.org/2000/svg">
<g clip-path="url(#clip0_5537_2549)">
<path d="M49.6509 54.0188V93.0259C49.6509 96.4779 52.4749 99.3021 55.9265 99.3021H108.645C112.097 99.3021 114.921 96.4779 114.921 93.0259V54.0187L49.6509 54.0188Z" fill="#D7E9FD"/>
<path d="M82.2856 54.0188V99.3021H108.645C112.097 99.3021 114.921 96.4779 114.921 93.0259V54.0187L82.2856 54.0188Z" fill="#B4DAFE"/>
<path d="M114.921 51.6751H49.6509C48.3563 51.6751 47.3071 52.7243 47.3071 54.0188V93.0259C47.3071 97.7787 51.1737 101.646 55.9265 101.646H108.645C113.398 101.646 117.265 97.7787 117.265 93.0259V54.0187C117.265 52.7241 116.215 51.6749 114.921 51.6749V51.6751ZM112.577 76.6604H96.9963V58.6385C96.9963 57.5345 96.2317 56.6104 95.2032 56.3626H112.577V76.6604ZM51.9946 93.0259V56.3624H94.1028C93.0743 56.6102 92.309 57.5337 92.309 58.6384V96.9582H55.9263C53.7584 96.9582 51.9945 95.1942 51.9945 93.0257L51.9946 93.0259ZM108.645 96.9584H96.9965V81.3479H112.577V93.0259C112.577 95.1945 110.813 96.9584 108.645 96.9584Z" fill="#7CC8F0"/>
<path d="M114.921 51.6751H82.2856V56.3626H94.1027C93.0742 56.6104 92.3089 57.5338 92.3089 58.6385V96.9584H82.2856V101.646H108.645C113.398 101.646 117.265 97.7787 117.265 93.0259V54.0187C117.265 52.7241 116.215 51.6749 114.921 51.6749V51.6751ZM112.577 93.0259C112.577 95.1945 110.813 96.9584 108.645 96.9584H96.9964V81.3479H112.577V93.0259ZM112.577 76.6604H96.9963V58.6385C96.9963 57.5345 96.2316 56.6104 95.2031 56.3626H112.577V76.6604Z" fill="#00ABE9"/>
<path d="M72.1521 74.8734C66.2109 74.8734 61.3774 79.7073 61.3774 85.648C61.3763 86.7408 61.6948 87.81 62.2937 88.7241C63.3374 90.3189 65.0964 91.2711 66.9995 91.2711C68.3349 91.2711 69.392 90.9573 70.2417 90.7059C70.9423 90.4978 71.4965 90.3342 72.1521 90.3342C72.8076 90.3342 73.3612 90.4978 74.0618 90.7059C74.9115 90.9575 75.9685 91.2711 77.304 91.2711C79.2078 91.2711 80.9668 90.3184 82.0098 88.7247C82.609 87.8105 82.9277 86.741 82.9267 85.648C82.9267 79.7073 78.0926 74.8734 72.1521 74.8734ZM63.7842 74.0891C63.1665 74.0891 62.5623 73.8389 62.1259 73.4012C61.6882 72.9611 61.4419 72.366 61.4404 71.7453C61.4404 71.1283 61.6899 70.5234 62.1259 70.0875C62.5668 69.6495 63.1627 69.403 63.7842 69.4016C64.4052 69.4034 65.0006 69.6498 65.4412 70.0875C65.8795 70.5281 66.1263 71.1238 66.1279 71.7453C66.1279 72.3606 65.8776 72.9655 65.4412 73.4012C65.0012 73.8401 64.4056 74.0874 63.7842 74.0891ZM69.251 71.1875C68.6339 71.1875 68.0292 70.9372 67.5932 70.5016C67.1576 70.0639 66.9073 69.4609 66.9073 68.8438C66.9073 68.2261 67.1576 67.623 67.5932 67.1855C68.0292 66.7495 68.6339 66.5 69.251 66.5C69.8682 66.5 70.4712 66.7497 70.9089 67.1855C71.3446 67.623 71.5948 68.2261 71.5948 68.8438C71.5948 69.4609 71.3446 70.0656 70.9089 70.5016C70.4712 70.9372 69.8682 71.1875 69.251 71.1875ZM75.0524 71.1875C74.4353 71.1875 73.8323 70.9372 73.3946 70.5016C72.959 70.0639 72.7087 69.4609 72.7087 68.8438C72.7087 68.2261 72.959 67.623 73.3946 67.1855C73.8306 66.7495 74.4353 66.5 75.0524 66.5C75.6696 66.5 76.2743 66.7497 76.7103 67.1855C77.1459 67.623 77.3962 68.2261 77.3962 68.8438C77.3962 69.4609 77.1459 70.0656 76.7103 70.5016C76.2693 70.9392 75.6737 71.1856 75.0524 71.1875ZM80.5193 74.0891C79.8979 74.0873 79.3023 73.8401 78.8623 73.4012C78.4241 72.9614 78.1773 72.3662 78.1756 71.7453C78.1756 71.1283 78.4259 70.5234 78.8623 70.0875C79.3028 69.6497 79.8982 69.4032 80.5193 69.4016C81.1408 69.4032 81.7367 69.6496 82.1778 70.0875C82.6154 70.5284 82.8616 71.1241 82.8631 71.7453C82.8631 72.3625 82.6135 72.9655 82.1778 73.4012C81.7374 73.8404 81.1412 74.0877 80.5193 74.0891Z" fill="#005285"/>
<path d="M122.195 43.4286L118.899 31.8905C117.659 27.5533 113.155 24.1561 108.645 24.1561H55.9264C51.416 24.1561 46.9121 27.5533 45.6725 31.8905L42.376 43.4286C42.3161 43.638 42.2857 43.8546 42.2856 44.0724V51.6036C42.2856 57.0493 46.7156 61.4791 52.1606 61.4791C56.7986 61.4791 60.7 58.265 61.7547 53.9474H72.6916C73.7469 58.265 77.6475 61.4791 82.2856 61.4791C86.9238 61.4791 90.8244 58.265 91.8791 53.9474H102.817C103.871 58.265 107.773 61.4791 112.41 61.4791C117.856 61.4791 122.286 57.0493 122.286 51.6036V44.0724C122.286 43.8552 122.255 43.6386 122.195 43.4286Z" fill="#FF5B5B"/>
<path d="M122.195 43.4286H42.376C42.3161 43.6379 42.2857 43.8546 42.2856 44.0723V51.6036C42.2856 57.0492 46.7156 61.4791 52.1606 61.4791C56.7986 61.4791 60.7 58.265 61.7547 53.9473H72.6916C73.7469 58.265 77.6475 61.4791 82.2856 61.4791C86.9238 61.4791 90.8244 58.265 91.8791 53.9473H102.817C103.871 58.265 107.773 61.4791 112.41 61.4791C117.856 61.4791 122.286 57.0492 122.286 51.6036V44.0723C122.286 43.8552 122.255 43.6386 122.195 43.4286Z" fill="#1FBF66"/>
<path d="M122.195 43.4286H42.376C42.3161 43.6379 42.2857 43.8546 42.2856 44.0723V51.6036C42.2856 57.0492 46.7156 61.4791 52.1606 61.4791C56.7986 61.4791 60.7 58.265 61.7547 53.9473H72.6916C73.7469 58.265 77.6475 61.4791 82.2856 61.4791C86.9238 61.4791 90.8244 58.265 91.8791 53.9473H102.817C103.871 58.265 107.773 61.4791 112.41 61.4791C117.856 61.4791 122.286 57.0492 122.286 51.6036V44.0723C122.286 43.8552 122.255 43.6386 122.195 43.4286Z" fill="#FF3980"/>
<path d="M122.195 43.4286L118.899 31.8905C117.659 27.5533 113.155 24.1561 108.645 24.1561H82.2856V61.4791C86.9238 61.4791 90.8244 58.265 91.8791 53.9474H102.817C103.871 58.265 107.773 61.4791 112.41 61.4791C117.856 61.4791 122.286 57.0493 122.286 51.6036V44.0724C122.286 43.8552 122.255 43.6386 122.195 43.4286Z" fill="#FF3980"/>
<path d="M122.195 43.4287H82.2856V61.4792C86.9238 61.4792 90.8244 58.2651 91.8791 53.9475H102.817C103.871 58.2651 107.773 61.4792 112.41 61.4792C117.856 61.4792 122.286 57.0493 122.286 51.6037V44.0725C122.286 43.8553 122.255 43.6387 122.195 43.4287Z" fill="#DD226E"/>
<path d="M57.3479 43.4286V51.6036C57.3479 57.0492 61.7785 61.4791 67.2229 61.4791C72.6684 61.4791 77.0984 57.0492 77.0984 51.6036V43.4286H57.3479Z" fill="white"/>
<path d="M87.4731 43.4287V51.6037C87.4731 57.0493 91.9028 61.4792 97.3478 61.4792C102.793 61.4792 107.223 57.0493 107.223 51.6037V43.4287H87.4731Z" fill="#D7E9FD"/>
</g>
<path d="M44.437 140V128.364H48.3688C49.2817 128.364 50.0279 128.528 50.6074 128.858C51.1908 129.184 51.6226 129.625 51.9029 130.182C52.1832 130.739 52.3234 131.36 52.3234 132.045C52.3234 132.731 52.1832 133.354 51.9029 133.915C51.6264 134.475 51.1984 134.922 50.6188 135.256C50.0393 135.585 49.2968 135.75 48.3915 135.75H45.5734V134.5H48.3461C48.9711 134.5 49.473 134.392 49.8518 134.176C50.2306 133.96 50.5052 133.669 50.6756 133.301C50.8499 132.93 50.937 132.511 50.937 132.045C50.937 131.58 50.8499 131.163 50.6756 130.795C50.5052 130.428 50.2287 130.14 49.8461 129.932C49.4635 129.72 48.9559 129.614 48.3234 129.614H45.8461V140H44.437ZM57.9768 140.182C57.1359 140.182 56.4105 139.996 55.8006 139.625C55.1946 139.25 54.7268 138.727 54.3972 138.057C54.0715 137.383 53.9086 136.598 53.9086 135.705C53.9086 134.811 54.0715 134.023 54.3972 133.341C54.7268 132.655 55.1851 132.121 55.7722 131.739C56.3631 131.352 57.0525 131.159 57.8404 131.159C58.2949 131.159 58.7438 131.235 59.187 131.386C59.6302 131.538 60.0336 131.784 60.3972 132.125C60.7609 132.462 61.0506 132.909 61.2665 133.466C61.4824 134.023 61.5904 134.708 61.5904 135.523V136.091H54.8631V134.932H60.2268C60.2268 134.439 60.1283 134 59.9313 133.614C59.7381 133.227 59.4616 132.922 59.1018 132.699C58.7457 132.475 58.3252 132.364 57.8404 132.364C57.3063 132.364 56.8442 132.496 56.454 132.761C56.0677 133.023 55.7703 133.364 55.562 133.784C55.3537 134.205 55.2495 134.655 55.2495 135.136V135.909C55.2495 136.568 55.3631 137.127 55.5904 137.585C55.8215 138.04 56.1415 138.386 56.5506 138.625C56.9597 138.86 57.4351 138.977 57.9768 138.977C58.329 138.977 58.6472 138.928 58.9313 138.83C59.2192 138.727 59.4673 138.576 59.6756 138.375C59.884 138.17 60.0449 137.917 60.1586 137.614L61.454 137.977C61.3177 138.417 61.0885 138.803 60.7665 139.136C60.4446 139.466 60.0468 139.723 59.5734 139.909C59.0999 140.091 58.5677 140.182 57.9768 140.182ZM67.4256 131.273V132.409H62.9029V131.273H67.4256ZM64.2211 129.182H65.562V137.5C65.562 137.879 65.6169 138.163 65.7268 138.352C65.8404 138.538 65.9843 138.663 66.1586 138.727C66.3366 138.788 66.5241 138.818 66.7211 138.818C66.8688 138.818 66.99 138.811 67.0847 138.795C67.1794 138.777 67.2552 138.761 67.312 138.75L67.5847 139.955C67.4938 139.989 67.3669 140.023 67.204 140.057C67.0412 140.095 66.8347 140.114 66.5847 140.114C66.2059 140.114 65.8347 140.032 65.4711 139.869C65.1112 139.706 64.812 139.458 64.5734 139.125C64.3385 138.792 64.2211 138.371 64.2211 137.864V129.182ZM80.4881 131.273C80.4199 130.697 80.1434 130.25 79.6586 129.932C79.1737 129.614 78.579 129.455 77.8745 129.455C77.3593 129.455 76.9086 129.538 76.5222 129.705C76.1396 129.871 75.8404 130.1 75.6245 130.392C75.4124 130.684 75.3063 131.015 75.3063 131.386C75.3063 131.697 75.3802 131.964 75.5279 132.188C75.6794 132.407 75.8726 132.591 76.1074 132.739C76.3423 132.883 76.5885 133.002 76.8461 133.097C77.1037 133.187 77.3404 133.261 77.5563 133.318L78.7381 133.636C79.0412 133.716 79.3783 133.826 79.7495 133.966C80.1245 134.106 80.4824 134.297 80.8234 134.54C81.1681 134.778 81.4521 135.085 81.6756 135.46C81.8991 135.835 82.0109 136.295 82.0109 136.841C82.0109 137.47 81.8461 138.038 81.5165 138.545C81.1908 139.053 80.7135 139.456 80.0847 139.756C79.4597 140.055 78.7002 140.205 77.8063 140.205C76.973 140.205 76.2514 140.07 75.6415 139.801C75.0355 139.532 74.5582 139.157 74.2097 138.676C73.865 138.195 73.6699 137.636 73.6245 137H75.079C75.1169 137.439 75.2646 137.803 75.5222 138.091C75.7836 138.375 76.1131 138.587 76.5109 138.727C76.9124 138.864 77.3442 138.932 77.8063 138.932C78.3442 138.932 78.8271 138.845 79.2552 138.67C79.6832 138.492 80.0222 138.246 80.2722 137.932C80.5222 137.614 80.6472 137.242 80.6472 136.818C80.6472 136.432 80.5393 136.117 80.3234 135.875C80.1074 135.633 79.8234 135.436 79.4711 135.284C79.1188 135.133 78.7381 135 78.329 134.886L76.8972 134.477C75.9881 134.216 75.2684 133.843 74.7381 133.358C74.2078 132.873 73.9427 132.239 73.9427 131.455C73.9427 130.803 74.1188 130.235 74.4711 129.75C74.8271 129.261 75.3044 128.883 75.9029 128.614C76.5052 128.341 77.1775 128.205 77.9199 128.205C78.6699 128.205 79.3366 128.339 79.9199 128.608C80.5033 128.873 80.9654 129.237 81.3063 129.699C81.651 130.161 81.8328 130.686 81.8518 131.273H80.4881ZM87.9413 131.273V132.409H83.4185V131.273H87.9413ZM84.7367 129.182H86.0776V137.5C86.0776 137.879 86.1325 138.163 86.2424 138.352C86.356 138.538 86.5 138.663 86.6742 138.727C86.8522 138.788 87.0397 138.818 87.2367 138.818C87.3844 138.818 87.5056 138.811 87.6003 138.795C87.695 138.777 87.7708 138.761 87.8276 138.75L88.1003 139.955C88.0094 139.989 87.8825 140.023 87.7197 140.057C87.5568 140.095 87.3503 140.114 87.1003 140.114C86.7216 140.114 86.3503 140.032 85.9867 139.869C85.6269 139.706 85.3276 139.458 85.089 139.125C84.8541 138.792 84.7367 138.371 84.7367 137.864V129.182ZM93.41 140.182C92.6221 140.182 91.9308 139.994 91.3361 139.619C90.7452 139.244 90.2831 138.72 89.9498 138.045C89.6202 137.371 89.4555 136.583 89.4555 135.682C89.4555 134.773 89.6202 133.979 89.9498 133.301C90.2831 132.623 90.7452 132.097 91.3361 131.722C91.9308 131.347 92.6221 131.159 93.41 131.159C94.1979 131.159 94.8873 131.347 95.4782 131.722C96.0729 132.097 96.535 132.623 96.8645 133.301C97.1979 133.979 97.3645 134.773 97.3645 135.682C97.3645 136.583 97.1979 137.371 96.8645 138.045C96.535 138.72 96.0729 139.244 95.4782 139.619C94.8873 139.994 94.1979 140.182 93.41 140.182ZM93.41 138.977C94.0085 138.977 94.5009 138.824 94.8873 138.517C95.2736 138.21 95.5596 137.807 95.7452 137.307C95.9308 136.807 96.0236 136.265 96.0236 135.682C96.0236 135.098 95.9308 134.555 95.7452 134.051C95.5596 133.547 95.2736 133.14 94.8873 132.83C94.5009 132.519 94.0085 132.364 93.41 132.364C92.8115 132.364 92.3191 132.519 91.9327 132.83C91.5464 133.14 91.2604 133.547 91.0748 134.051C90.8892 134.555 90.7964 135.098 90.7964 135.682C90.7964 136.265 90.8892 136.807 91.0748 137.307C91.2604 137.807 91.5464 138.21 91.9327 138.517C92.3191 138.824 92.8115 138.977 93.41 138.977ZM99.4114 140V131.273H100.707V132.591H100.798C100.957 132.159 101.245 131.809 101.661 131.54C102.078 131.271 102.548 131.136 103.071 131.136C103.169 131.136 103.292 131.138 103.44 131.142C103.588 131.146 103.699 131.152 103.775 131.159V132.523C103.73 132.511 103.625 132.494 103.463 132.472C103.303 132.445 103.135 132.432 102.957 132.432C102.533 132.432 102.154 132.521 101.821 132.699C101.491 132.873 101.23 133.116 101.036 133.426C100.847 133.733 100.752 134.083 100.752 134.477V140H99.4114ZM108.758 140.182C107.917 140.182 107.192 139.996 106.582 139.625C105.976 139.25 105.508 138.727 105.178 138.057C104.853 137.383 104.69 136.598 104.69 135.705C104.69 134.811 104.853 134.023 105.178 133.341C105.508 132.655 105.966 132.121 106.553 131.739C107.144 131.352 107.834 131.159 108.622 131.159C109.076 131.159 109.525 131.235 109.968 131.386C110.411 131.538 110.815 131.784 111.178 132.125C111.542 132.462 111.832 132.909 112.048 133.466C112.264 134.023 112.372 134.708 112.372 135.523V136.091H105.644V134.932H111.008C111.008 134.439 110.91 134 110.713 133.614C110.519 133.227 110.243 132.922 109.883 132.699C109.527 132.475 109.106 132.364 108.622 132.364C108.088 132.364 107.625 132.496 107.235 132.761C106.849 133.023 106.552 133.364 106.343 133.784C106.135 134.205 106.031 134.655 106.031 135.136V135.909C106.031 136.568 106.144 137.127 106.372 137.585C106.603 138.04 106.923 138.386 107.332 138.625C107.741 138.86 108.216 138.977 108.758 138.977C109.11 138.977 109.428 138.928 109.713 138.83C110 138.727 110.249 138.576 110.457 138.375C110.665 138.17 110.826 137.917 110.94 137.614L112.235 137.977C112.099 138.417 111.87 138.803 111.548 139.136C111.226 139.466 110.828 139.723 110.355 139.909C109.881 140.091 109.349 140.182 108.758 140.182ZM120.593 133.227L119.389 133.568C119.313 133.367 119.201 133.172 119.053 132.983C118.91 132.79 118.713 132.631 118.463 132.506C118.213 132.381 117.892 132.318 117.502 132.318C116.968 132.318 116.523 132.441 116.167 132.688C115.815 132.93 115.639 133.239 115.639 133.614C115.639 133.947 115.76 134.21 116.002 134.403C116.245 134.597 116.624 134.758 117.139 134.886L118.434 135.205C119.214 135.394 119.796 135.684 120.178 136.074C120.561 136.46 120.752 136.958 120.752 137.568C120.752 138.068 120.608 138.515 120.321 138.909C120.036 139.303 119.639 139.614 119.127 139.841C118.616 140.068 118.021 140.182 117.343 140.182C116.453 140.182 115.716 139.989 115.133 139.602C114.55 139.216 114.18 138.652 114.025 137.909L115.298 137.591C115.419 138.061 115.648 138.413 115.985 138.648C116.326 138.883 116.771 139 117.321 139C117.946 139 118.442 138.867 118.809 138.602C119.18 138.333 119.366 138.011 119.366 137.636C119.366 137.333 119.26 137.08 119.048 136.875C118.836 136.667 118.51 136.511 118.071 136.409L116.616 136.068C115.817 135.879 115.23 135.585 114.855 135.188C114.483 134.786 114.298 134.284 114.298 133.682C114.298 133.189 114.436 132.754 114.713 132.375C114.993 131.996 115.374 131.699 115.855 131.483C116.339 131.267 116.889 131.159 117.502 131.159C118.366 131.159 119.044 131.348 119.536 131.727C120.033 132.106 120.385 132.606 120.593 133.227Z" fill="black"/>
<defs>
<clipPath id="clip0_5537_2549">
<rect width="80" height="80" fill="white" transform="translate(42.2856 24)"/>
</clipPath>
</defs>
</svg>
