<svg width="166" height="172" viewBox="0 0 166 172" fill="none" xmlns="http://www.w3.org/2000/svg">
<g clip-path="url(#clip0_5537_2552)">
<path d="M65.9822 87.2812C69.0888 87.2812 71.6072 84.7629 71.6072 81.6562C71.6072 78.5496 69.0888 76.0312 65.9822 76.0312C62.8756 76.0312 60.3572 78.5496 60.3572 81.6562C60.3572 84.7629 62.8756 87.2812 65.9822 87.2812Z" fill="#F4B860"/>
<path d="M82.8572 77.5938C85.9638 77.5938 88.4822 75.0754 88.4822 71.9688C88.4822 68.8621 85.9638 66.3438 82.8572 66.3438C79.7506 66.3438 77.2322 68.8621 77.2322 71.9688C77.2322 75.0754 79.7506 77.5938 82.8572 77.5938Z" fill="#F4B860"/>
<path d="M77.2322 87.2812C80.3388 87.2812 82.8572 84.7629 82.8572 81.6562C82.8572 78.5496 80.3388 76.0312 77.2322 76.0312C74.1256 76.0312 71.6072 78.5496 71.6072 81.6562C71.6072 84.7629 74.1256 87.2812 77.2322 87.2812Z" fill="#F4B860"/>
<path d="M88.4822 87.2812C91.5888 87.2812 94.1072 84.7629 94.1072 81.6562C94.1072 78.5496 91.5888 76.0312 88.4822 76.0312C85.3756 76.0312 82.8572 78.5496 82.8572 81.6562C82.8572 84.7629 85.3756 87.2812 88.4822 87.2812Z" fill="#F4B860"/>
<path d="M94.1072 77.5938C97.2138 77.5938 99.7322 75.0754 99.7322 71.9688C99.7322 68.8621 97.2138 66.3438 94.1072 66.3438C91.0006 66.3438 88.4822 68.8621 88.4822 71.9688C88.4822 75.0754 91.0006 77.5938 94.1072 77.5938Z" fill="#F4B860"/>
<path d="M99.7322 87.2812C102.839 87.2812 105.357 84.7629 105.357 81.6562C105.357 78.5496 102.839 76.0312 99.7322 76.0312C96.6256 76.0312 94.1072 78.5496 94.1072 81.6562C94.1072 84.7629 96.6256 87.2812 99.7322 87.2812Z" fill="#F4B860"/>
<path d="M85.2273 77.07C85.506 76.8717 85.8021 76.6993 86.112 76.5548C87.5458 75.5355 88.4822 73.862 88.4822 71.9688C88.4822 68.8622 85.9637 66.3438 82.8572 66.3438V77.5938C83.676 77.5945 84.4851 77.4157 85.2273 77.07ZM91.737 77.07C91.427 76.9256 91.1309 76.7532 90.8523 76.5548C90.1319 76.2197 89.3292 76.0312 88.4822 76.0312C87.6351 76.0312 86.8325 76.2195 86.112 76.5548C85.8334 76.7531 85.5373 76.9255 85.2273 77.07C83.7936 78.0894 82.8572 79.763 82.8572 81.6562C82.8572 84.7628 85.3756 87.2812 88.4822 87.2812C91.5887 87.2812 94.1072 84.7628 94.1072 81.6562C94.1072 79.763 93.1708 78.0895 91.737 77.07Z" fill="#F09636"/>
<path d="M86.112 76.555C85.802 76.6994 85.5059 76.8718 85.2273 77.0702C85.5372 76.9257 85.8333 76.7532 86.112 76.555ZM90.8523 76.555C91.1623 76.6994 91.4584 76.8718 91.737 77.0702C92.4574 77.4053 93.2601 77.5938 94.1071 77.5938C94.9542 77.5938 95.7568 77.4053 96.4773 77.07C96.7559 76.8717 97.052 76.6993 97.362 76.5548C98.7957 75.5355 99.7321 73.862 99.7321 71.9688C99.7321 68.8622 97.2137 66.3438 94.1071 66.3438C91.0006 66.3438 88.4821 68.8622 88.4821 71.9688C88.4821 73.862 89.4185 75.5355 90.8523 76.555Z" fill="#F09636"/>
<path d="M91.737 77.07C91.4584 76.8717 91.1622 76.6993 90.8523 76.5548C91.1309 76.7532 91.427 76.9256 91.737 77.07ZM99.7321 76.0313C98.9133 76.0305 98.1043 76.2093 97.362 76.555C97.0834 76.7533 96.7872 76.9257 96.4773 77.0702C95.0435 78.0895 94.1071 79.763 94.1071 81.6563C94.1071 84.7628 96.6256 87.2813 99.7321 87.2813C102.839 87.2813 105.357 84.7628 105.357 81.6563C105.357 78.5497 102.839 76.0313 99.7321 76.0313Z" fill="#F09636"/>
<path d="M97.362 76.5551C97.052 76.6994 96.7559 76.8719 96.4773 77.0702C96.7872 76.9257 97.0833 76.7533 97.362 76.5551Z" fill="#F09636"/>
<path d="M99.5759 48.6875C102.683 48.6875 105.201 46.1691 105.201 43.0625C105.201 39.9559 102.683 37.4375 99.5759 37.4375C96.4693 37.4375 93.9509 39.9559 93.9509 43.0625C93.9509 46.1691 96.4693 48.6875 99.5759 48.6875Z" fill="#F09636"/>
<path d="M117.232 35.25C120.339 35.25 122.857 32.7316 122.857 29.625C122.857 26.5184 120.339 24 117.232 24C114.126 24 111.607 26.5184 111.607 29.625C111.607 32.7316 114.126 35.25 117.232 35.25Z" fill="#F09636"/>
<path d="M113.542 82.1722H52.1722C51.5478 82.1722 50.9377 82.3597 50.421 82.7104C49.9043 83.0611 49.5048 83.5589 49.2743 84.1393L43.0805 99.7305C42.2672 101.778 43.7757 104 45.9785 104H119.736C121.939 104 123.447 101.778 122.634 99.7305L116.44 84.1393C116.21 83.5589 115.81 83.0612 115.293 82.7105C114.777 82.3598 114.167 82.1723 113.542 82.1722Z" fill="#7B87E1"/>
<path d="M122.634 99.7305L116.44 84.1393C116.21 83.5589 115.81 83.0611 115.293 82.7104C114.777 82.3597 114.167 82.1722 113.542 82.1722H82.8572V104H119.736C121.939 104 123.447 101.778 122.634 99.7305Z" fill="#6E79DE"/>
</g>
<path d="M50.4773 140V128.364H54.4091C55.322 128.364 56.0682 128.528 56.6477 128.858C57.2311 129.184 57.6629 129.625 57.9432 130.182C58.2235 130.739 58.3636 131.36 58.3636 132.045C58.3636 132.731 58.2235 133.354 57.9432 133.915C57.6667 134.475 57.2386 134.922 56.6591 135.256C56.0795 135.585 55.3371 135.75 54.4318 135.75H51.6136V134.5H54.3864C55.0114 134.5 55.5133 134.392 55.892 134.176C56.2708 133.96 56.5455 133.669 56.7159 133.301C56.8902 132.93 56.9773 132.511 56.9773 132.045C56.9773 131.58 56.8902 131.163 56.7159 130.795C56.5455 130.428 56.2689 130.14 55.8864 129.932C55.5038 129.72 54.9962 129.614 54.3636 129.614H51.8864V140H50.4773ZM60.4517 140V131.273H61.7472V132.591H61.8381C61.9972 132.159 62.285 131.809 62.7017 131.54C63.1184 131.271 63.5881 131.136 64.1108 131.136C64.2093 131.136 64.3324 131.138 64.4801 131.142C64.6278 131.146 64.7396 131.152 64.8153 131.159V132.523C64.7699 132.511 64.6657 132.494 64.5028 132.472C64.3438 132.445 64.1752 132.432 63.9972 132.432C63.5729 132.432 63.1941 132.521 62.8608 132.699C62.5313 132.873 62.2699 133.116 62.0767 133.426C61.8873 133.733 61.7926 134.083 61.7926 134.477V140H60.4517ZM69.6847 140.182C68.8968 140.182 68.2055 139.994 67.6108 139.619C67.0199 139.244 66.5578 138.72 66.2244 138.045C65.8949 137.371 65.7301 136.583 65.7301 135.682C65.7301 134.773 65.8949 133.979 66.2244 133.301C66.5578 132.623 67.0199 132.097 67.6108 131.722C68.2055 131.347 68.8968 131.159 69.6847 131.159C70.4725 131.159 71.1619 131.347 71.7528 131.722C72.3475 132.097 72.8097 132.623 73.1392 133.301C73.4725 133.979 73.6392 134.773 73.6392 135.682C73.6392 136.583 73.4725 137.371 73.1392 138.045C72.8097 138.72 72.3475 139.244 71.7528 139.619C71.1619 139.994 70.4725 140.182 69.6847 140.182ZM69.6847 138.977C70.2831 138.977 70.7756 138.824 71.1619 138.517C71.5483 138.21 71.8343 137.807 72.0199 137.307C72.2055 136.807 72.2983 136.265 72.2983 135.682C72.2983 135.098 72.2055 134.555 72.0199 134.051C71.8343 133.547 71.5483 133.14 71.1619 132.83C70.7756 132.519 70.2831 132.364 69.6847 132.364C69.0862 132.364 68.5938 132.519 68.2074 132.83C67.821 133.14 67.535 133.547 67.3494 134.051C67.1638 134.555 67.071 135.098 67.071 135.682C67.071 136.265 67.1638 136.807 67.3494 137.307C67.535 137.807 67.821 138.21 68.2074 138.517C68.5938 138.824 69.0862 138.977 69.6847 138.977ZM78.9815 140.182C78.2543 140.182 77.6122 139.998 77.0554 139.631C76.4986 139.259 76.063 138.737 75.7486 138.062C75.4342 137.384 75.277 136.583 75.277 135.659C75.277 134.742 75.4342 133.947 75.7486 133.273C76.063 132.598 76.5005 132.078 77.0611 131.71C77.6217 131.343 78.2694 131.159 79.0043 131.159C79.5724 131.159 80.0213 131.254 80.3509 131.443C80.6842 131.629 80.938 131.841 81.1122 132.08C81.2902 132.314 81.4285 132.508 81.527 132.659H81.6406V128.364H82.9815V140H81.6861V138.659H81.527C81.4285 138.818 81.2884 139.019 81.1065 139.261C80.9247 139.5 80.6652 139.714 80.3281 139.903C79.991 140.089 79.5421 140.182 78.9815 140.182ZM79.1634 138.977C79.7012 138.977 80.1558 138.837 80.527 138.557C80.8982 138.273 81.1804 137.881 81.3736 137.381C81.5668 136.877 81.6634 136.295 81.6634 135.636C81.6634 134.985 81.5687 134.415 81.3793 133.926C81.1899 133.434 80.9096 133.051 80.5384 132.778C80.1671 132.502 79.7088 132.364 79.1634 132.364C78.5952 132.364 78.1217 132.509 77.7429 132.801C77.3679 133.089 77.0857 133.481 76.8963 133.977C76.7107 134.47 76.6179 135.023 76.6179 135.636C76.6179 136.258 76.7126 136.822 76.902 137.33C77.0952 137.833 77.3793 138.235 77.7543 138.534C78.1331 138.83 78.6027 138.977 79.1634 138.977ZM91.1236 136.432V131.273H92.4645V140H91.1236V138.523H91.0327C90.8281 138.966 90.5099 139.343 90.0781 139.653C89.6463 139.96 89.1009 140.114 88.4418 140.114C87.8963 140.114 87.4115 139.994 86.9872 139.756C86.563 139.513 86.2296 139.15 85.9872 138.665C85.7448 138.176 85.6236 137.561 85.6236 136.818V131.273H86.9645V136.727C86.9645 137.364 87.1425 137.871 87.4986 138.25C87.8584 138.629 88.3168 138.818 88.8736 138.818C89.2069 138.818 89.5459 138.733 89.8906 138.562C90.2391 138.392 90.5308 138.131 90.7656 137.778C91.0043 137.426 91.1236 136.977 91.1236 136.432ZM98.4659 140.182C97.6477 140.182 96.9432 139.989 96.3523 139.602C95.7614 139.216 95.3068 138.684 94.9886 138.006C94.6705 137.328 94.5114 136.553 94.5114 135.682C94.5114 134.795 94.6742 134.013 95 133.335C95.3295 132.653 95.7879 132.121 96.375 131.739C96.9659 131.352 97.6553 131.159 98.4432 131.159C99.0568 131.159 99.6099 131.273 100.102 131.5C100.595 131.727 100.998 132.045 101.313 132.455C101.627 132.864 101.822 133.341 101.898 133.886H100.557C100.455 133.489 100.227 133.136 99.875 132.83C99.5265 132.519 99.0568 132.364 98.4659 132.364C97.9432 132.364 97.4849 132.5 97.0909 132.773C96.7008 133.042 96.3958 133.422 96.1761 133.915C95.9602 134.403 95.8523 134.977 95.8523 135.636C95.8523 136.311 95.9583 136.898 96.1705 137.398C96.3864 137.898 96.6894 138.286 97.0795 138.562C97.4735 138.839 97.9356 138.977 98.4659 138.977C98.8144 138.977 99.1307 138.917 99.4148 138.795C99.6989 138.674 99.9394 138.5 100.136 138.273C100.333 138.045 100.473 137.773 100.557 137.455H101.898C101.822 137.97 101.634 138.434 101.335 138.847C101.04 139.256 100.648 139.581 100.159 139.824C99.6742 140.062 99.1099 140.182 98.4659 140.182ZM107.653 131.273V132.409H103.131V131.273H107.653ZM104.449 129.182H105.79V137.5C105.79 137.879 105.845 138.163 105.955 138.352C106.068 138.538 106.212 138.663 106.386 138.727C106.564 138.788 106.752 138.818 106.949 138.818C107.097 138.818 107.218 138.811 107.313 138.795C107.407 138.777 107.483 138.761 107.54 138.75L107.813 139.955C107.722 139.989 107.595 140.023 107.432 140.057C107.269 140.095 107.063 140.114 106.813 140.114C106.434 140.114 106.063 140.032 105.699 139.869C105.339 139.706 105.04 139.458 104.801 139.125C104.566 138.792 104.449 138.371 104.449 137.864V129.182ZM115.696 133.227L114.491 133.568C114.416 133.367 114.304 133.172 114.156 132.983C114.012 132.79 113.815 132.631 113.565 132.506C113.315 132.381 112.995 132.318 112.605 132.318C112.071 132.318 111.626 132.441 111.27 132.688C110.918 132.93 110.741 133.239 110.741 133.614C110.741 133.947 110.863 134.21 111.105 134.403C111.348 134.597 111.726 134.758 112.241 134.886L113.537 135.205C114.317 135.394 114.899 135.684 115.281 136.074C115.664 136.46 115.855 136.958 115.855 137.568C115.855 138.068 115.711 138.515 115.423 138.909C115.139 139.303 114.741 139.614 114.23 139.841C113.719 140.068 113.124 140.182 112.446 140.182C111.556 140.182 110.819 139.989 110.236 139.602C109.652 139.216 109.283 138.652 109.128 137.909L110.401 137.591C110.522 138.061 110.751 138.413 111.088 138.648C111.429 138.883 111.874 139 112.423 139C113.048 139 113.545 138.867 113.912 138.602C114.283 138.333 114.469 138.011 114.469 137.636C114.469 137.333 114.363 137.08 114.151 136.875C113.938 136.667 113.613 136.511 113.173 136.409L111.719 136.068C110.92 135.879 110.332 135.585 109.957 135.188C109.586 134.786 109.401 134.284 109.401 133.682C109.401 133.189 109.539 132.754 109.815 132.375C110.096 131.996 110.476 131.699 110.957 131.483C111.442 131.267 111.991 131.159 112.605 131.159C113.469 131.159 114.147 131.348 114.639 131.727C115.135 132.106 115.488 132.606 115.696 133.227Z" fill="black"/>
<defs>
<clipPath id="clip0_5537_2552">
<rect width="80" height="80" fill="white" transform="translate(42.8572 24)"/>
</clipPath>
</defs>
</svg>
