<svg width="166" height="172" viewBox="0 0 166 172" fill="none" xmlns="http://www.w3.org/2000/svg">
<g clip-path="url(#clip0_5537_2558)">
<path d="M47.6876 35.7188H43.0001V26.3438C43.0001 25.0494 44.0495 24 45.3439 24H78.1962C82.6418 24 87.0275 25.0253 91.0122 26.9963L99.9811 31.4325C103.02 32.9359 104.042 36.7713 102.152 39.587C100.661 41.8098 97.8068 42.6694 95.3359 41.6398L81.8461 36.0191C80.1323 35.3051 78.2942 34.9375 76.4376 34.9375H62.5314L47.6876 35.7188Z" fill="#FFD2AF"/>
<path d="M73.0527 24V34.9375H76.4376C78.2942 34.9375 80.1324 35.3051 81.8462 36.0192L95.336 41.64C97.807 42.6695 100.661 41.81 102.153 39.5872C104.042 36.7714 103.021 32.9361 99.9812 31.4327L91.0123 26.9964C87.0275 25.0254 82.6418 24 78.1962 24L73.0527 24Z" fill="#FAB991"/>
<path d="M62.5314 34.9375H76.4376C78.2942 34.9375 80.1324 35.3051 81.8462 36.0192L84.6636 37.1931C83.3157 33.1634 79.5086 30.25 75.0312 30.25H62.5314V34.9375Z" fill="#FAB991"/>
<path d="M75.0312 30.25H73.0527V34.9375H76.4376C78.2942 34.9375 80.1324 35.3051 81.8462 36.0192L84.6635 37.1931C83.3157 33.1634 79.5085 30.25 75.0312 30.25Z" fill="#E6A078"/>
<path d="M47.6876 33.375H43.0001V45.0938C43.0001 45.8773 43.3917 46.6091 44.0437 47.0437L45.0942 47.7442C47.8078 49.5533 50.9026 50.4492 53.9882 50.4491C57.5347 50.4491 61.0687 49.2653 63.9954 46.9239L65.3065 45.875L75.0311 45.8752C78.0515 45.8752 80.5001 43.4267 80.5001 40.4062C80.5001 37.3859 78.0517 34.9375 75.0312 34.9375H60.1876L47.6876 33.375Z" fill="#FFD2AF"/>
<path d="M75.0312 34.9375H73.0527V45.8752H75.031C78.0515 45.8752 80.5001 43.4267 80.5001 40.4062C80.5001 37.3859 78.0516 34.9375 75.0312 34.9375Z" fill="#FAB991"/>
<path d="M120.656 104H82.3751C81.8203 104 81.2835 103.803 80.8602 103.445C80.4369 103.086 80.1545 102.589 80.0633 102.042L79.1962 96.8391C78.5297 92.84 75.1033 89.9375 71.0492 89.9375C66.9334 89.9375 62.9959 88.4056 59.962 85.6244C56.9283 82.843 55.0611 79.053 54.7047 74.9527L54.3978 71.4231C54.3058 70.3658 54.6365 69.3405 55.3289 68.5363C56.0214 67.7319 56.9861 67.2523 58.0455 67.1861L66.6039 66.6512C67.0158 66.6251 67.4176 66.5133 67.7838 66.323C68.15 66.1327 68.4725 65.8681 68.7306 65.5461L70.92 62.8094C72.914 60.3167 75.5828 58.5098 78.6378 57.5842C78.7548 57.5487 78.8745 57.5225 78.9956 57.5058L82.3751 57.037V48.5312C82.3751 47.2369 83.4245 46.1875 84.7189 46.1875H84.9533C91.914 46.1875 97.604 51.7328 97.8365 58.6381L103.492 73.9113C104.734 77.2666 107.973 79.5208 111.551 79.5208H120.656C121.951 79.5208 123 80.5702 123 81.8645V101.656C123 102.951 121.951 104 120.656 104Z" fill="#CD7B28"/>
<path d="M120.656 79.5208H111.551C107.973 79.5208 104.734 77.2665 103.492 73.9113L97.8366 58.6382C97.6475 53.0219 93.8483 48.3057 88.6914 46.7404V104H120.656C121.951 104 123 102.951 123 101.656V81.8646C123 80.5702 121.951 79.5208 120.656 79.5208Z" fill="#B9641E"/>
<path d="M80.8126 73.5312C82.107 73.5312 83.1564 72.4819 83.1564 71.1875C83.1564 69.8931 82.107 68.8438 80.8126 68.8438C79.5182 68.8438 78.4689 69.8931 78.4689 71.1875C78.4689 72.4819 79.5182 73.5312 80.8126 73.5312Z" fill="#5A5A5A"/>
</g>
<path d="M53.5775 129.614V128.364H62.3048V129.614H58.6457V140H57.2366V129.614H53.5775ZM63.3914 140V131.273H64.6869V132.591H64.7778C64.9369 132.159 65.2247 131.809 65.6414 131.54C66.0581 131.271 66.5278 131.136 67.0505 131.136C67.149 131.136 67.2721 131.138 67.4198 131.142C67.5675 131.146 67.6793 131.152 67.755 131.159V132.523C67.7096 132.511 67.6054 132.494 67.4425 132.472C67.2835 132.445 67.1149 132.432 66.9369 132.432C66.5126 132.432 66.1338 132.521 65.8005 132.699C65.471 132.873 65.2096 133.116 65.0164 133.426C64.827 133.733 64.7323 134.083 64.7323 134.477V140H63.3914ZM71.9127 140.205C71.3597 140.205 70.8578 140.1 70.407 139.892C69.9563 139.68 69.5983 139.375 69.3332 138.977C69.068 138.576 68.9354 138.091 68.9354 137.523C68.9354 137.023 69.0339 136.617 69.2309 136.307C69.4279 135.992 69.6911 135.746 70.0207 135.568C70.3502 135.39 70.7139 135.258 71.1116 135.17C71.5131 135.08 71.9165 135.008 72.3218 134.955C72.8521 134.886 73.282 134.835 73.6116 134.801C73.9449 134.763 74.1873 134.701 74.3389 134.614C74.4942 134.527 74.5718 134.375 74.5718 134.159V134.114C74.5718 133.553 74.4184 133.117 74.1116 132.807C73.8086 132.496 73.3483 132.341 72.7309 132.341C72.0907 132.341 71.5889 132.481 71.2252 132.761C70.8616 133.042 70.6059 133.341 70.4582 133.659L69.1854 133.205C69.4127 132.674 69.7157 132.261 70.0945 131.966C70.4771 131.667 70.8938 131.458 71.3445 131.341C71.7991 131.22 72.2461 131.159 72.6854 131.159C72.9657 131.159 73.2877 131.193 73.6514 131.261C74.0188 131.326 74.3729 131.46 74.7139 131.665C75.0586 131.869 75.3445 132.178 75.5718 132.591C75.7991 133.004 75.9127 133.557 75.9127 134.25V140H74.5718V138.818H74.5036C74.4127 139.008 74.2612 139.21 74.0491 139.426C73.837 139.642 73.5548 139.826 73.2025 139.977C72.8502 140.129 72.4203 140.205 71.9127 140.205ZM72.1173 139C72.6476 139 73.0945 138.896 73.4582 138.688C73.8256 138.479 74.1021 138.21 74.2877 137.881C74.4771 137.551 74.5718 137.205 74.5718 136.841V135.614C74.515 135.682 74.39 135.744 74.1968 135.801C74.0074 135.854 73.7877 135.902 73.5377 135.943C73.2915 135.981 73.051 136.015 72.8161 136.045C72.5851 136.072 72.3976 136.095 72.2536 136.114C71.9051 136.159 71.5794 136.233 71.2764 136.335C70.9771 136.434 70.7347 136.583 70.5491 136.784C70.3673 136.981 70.2764 137.25 70.2764 137.591C70.2764 138.057 70.4487 138.409 70.7934 138.648C71.1419 138.883 71.5832 139 72.1173 139ZM78.3602 140V131.273H79.7011V140H78.3602ZM79.042 129.818C78.7806 129.818 78.5552 129.729 78.3658 129.551C78.1802 129.373 78.0874 129.159 78.0874 128.909C78.0874 128.659 78.1802 128.445 78.3658 128.267C78.5552 128.089 78.7806 128 79.042 128C79.3033 128 79.5268 128.089 79.7124 128.267C79.9018 128.445 79.9965 128.659 79.9965 128.909C79.9965 129.159 79.9018 129.373 79.7124 129.551C79.5268 129.729 79.3033 129.818 79.042 129.818ZM83.4979 134.75V140H82.157V131.273H83.4525V132.636H83.5661C83.7707 132.193 84.0813 131.837 84.4979 131.568C84.9146 131.295 85.4525 131.159 86.1116 131.159C86.7025 131.159 87.2195 131.28 87.6627 131.523C88.1059 131.761 88.4506 132.125 88.6968 132.614C88.943 133.098 89.0661 133.712 89.0661 134.455V140H87.7252V134.545C87.7252 133.86 87.5472 133.326 87.1911 132.943C86.8351 132.557 86.3464 132.364 85.7252 132.364C85.2972 132.364 84.9146 132.456 84.5775 132.642C84.2442 132.828 83.9809 133.098 83.7877 133.455C83.5945 133.811 83.4979 134.242 83.4979 134.75ZM91.5164 140V131.273H92.8573V140H91.5164ZM92.1982 129.818C91.9369 129.818 91.7115 129.729 91.5221 129.551C91.3365 129.373 91.2437 129.159 91.2437 128.909C91.2437 128.659 91.3365 128.445 91.5221 128.267C91.7115 128.089 91.9369 128 92.1982 128C92.4596 128 92.6831 128.089 92.8687 128.267C93.0581 128.445 93.1528 128.659 93.1528 128.909C93.1528 129.159 93.0581 129.373 92.8687 129.551C92.6831 129.729 92.4596 129.818 92.1982 129.818ZM96.6542 134.75V140H95.3133V131.273H96.6087V132.636H96.7224C96.9269 132.193 97.2375 131.837 97.6542 131.568C98.0709 131.295 98.6087 131.159 99.2678 131.159C99.8587 131.159 100.376 131.28 100.819 131.523C101.262 131.761 101.607 132.125 101.853 132.614C102.099 133.098 102.222 133.712 102.222 134.455V140H100.881V134.545C100.881 133.86 100.703 133.326 100.347 132.943C99.9913 132.557 99.5027 132.364 98.8815 132.364C98.4534 132.364 98.0709 132.456 97.7337 132.642C97.4004 132.828 97.1372 133.098 96.944 133.455C96.7508 133.811 96.6542 134.242 96.6542 134.75ZM108.195 143.455C107.548 143.455 106.991 143.371 106.525 143.205C106.059 143.042 105.671 142.826 105.36 142.557C105.053 142.292 104.809 142.008 104.627 141.705L105.695 140.955C105.817 141.114 105.97 141.295 106.156 141.5C106.341 141.708 106.595 141.888 106.917 142.04C107.243 142.195 107.669 142.273 108.195 142.273C108.9 142.273 109.481 142.102 109.94 141.761C110.398 141.42 110.627 140.886 110.627 140.159V138.386H110.514C110.415 138.545 110.275 138.742 110.093 138.977C109.915 139.208 109.658 139.415 109.32 139.597C108.987 139.775 108.536 139.864 107.968 139.864C107.264 139.864 106.631 139.697 106.07 139.364C105.514 139.03 105.072 138.545 104.747 137.909C104.425 137.273 104.264 136.5 104.264 135.591C104.264 134.697 104.421 133.919 104.735 133.256C105.05 132.589 105.487 132.074 106.048 131.71C106.608 131.343 107.256 131.159 107.991 131.159C108.559 131.159 109.01 131.254 109.343 131.443C109.68 131.629 109.938 131.841 110.116 132.08C110.298 132.314 110.438 132.508 110.536 132.659H110.673V131.273H111.968V140.25C111.968 141 111.798 141.61 111.457 142.08C111.12 142.553 110.665 142.9 110.093 143.119C109.525 143.343 108.892 143.455 108.195 143.455ZM108.15 138.659C108.688 138.659 109.142 138.536 109.514 138.29C109.885 138.044 110.167 137.689 110.36 137.227C110.553 136.765 110.65 136.212 110.65 135.568C110.65 134.939 110.555 134.384 110.366 133.903C110.176 133.422 109.896 133.045 109.525 132.773C109.154 132.5 108.695 132.364 108.15 132.364C107.582 132.364 107.108 132.508 106.729 132.795C106.354 133.083 106.072 133.47 105.883 133.955C105.697 134.439 105.604 134.977 105.604 135.568C105.604 136.174 105.699 136.71 105.889 137.176C106.082 137.638 106.366 138.002 106.741 138.267C107.12 138.528 107.589 138.659 108.15 138.659Z" fill="black"/>
<defs>
<clipPath id="clip0_5537_2558">
<rect width="80" height="80" fill="white" transform="translate(43.0001 24)"/>
</clipPath>
</defs>
</svg>
