<svg width="81" height="80" viewBox="0 0 81 80" fill="none" xmlns="http://www.w3.org/2000/svg">
<g clip-path="url(#clip0_5537_2556)">
<path d="M55.491 80H25.366C24.0716 80 23.0222 78.9506 23.0222 77.6562V57.4062H2.77222C1.47784 57.4062 0.428467 56.3569 0.428467 55.0625V24.9375C0.428467 23.6431 1.47784 22.5938 2.77222 22.5938H23.0222V2.34375C23.0222 1.04937 24.0716 0 25.366 0H55.491C56.7853 0 57.8347 1.04937 57.8347 2.34375V22.5938H78.0847C79.3791 22.5938 80.4285 23.6431 80.4285 24.9375V55.0625C80.4285 56.3569 79.3791 57.4062 78.0847 57.4062H57.8347V77.6562C57.8347 78.9506 56.7855 80 55.491 80Z" fill="#FF6D5E"/>
<path d="M78.0847 22.5938H57.8347V2.34375C57.8347 1.04937 56.7853 0 55.4909 0H40.4275V80H55.4909C56.7853 80 57.8347 78.9506 57.8347 77.6562V57.4062H78.0847C79.3791 57.4062 80.4284 56.3569 80.4284 55.0625V24.9375C80.4284 23.6431 79.3791 22.5938 78.0847 22.5938Z" fill="#FF266E"/>
<path d="M48.6665 42.7537L43.8643 38.8705C41.873 37.263 38.9824 37.263 36.9912 38.8705L36.989 38.8722L32.1902 42.7521C30.9547 43.7518 30.2746 45.0468 30.2749 46.3982C30.2752 47.7493 30.9558 49.0433 32.1904 50.0413C34.0044 51.5093 37.0838 52.3855 40.4315 52.3855C43.7735 52.3855 46.8521 51.5099 48.6676 50.0424C49.903 49.0427 50.5833 47.7479 50.5829 46.3968C50.5826 45.0462 49.9019 43.7522 48.6665 42.7537ZM40.429 33.5574C41.7233 33.5574 42.7727 32.508 42.7727 31.2137V29.9585C42.7727 28.6641 41.7233 27.6147 40.429 27.6147C39.1346 27.6147 38.0852 28.6641 38.0852 29.9585V31.2137C38.0852 32.508 39.1346 33.5574 40.429 33.5574Z" fill="#EFF7FB"/>
<path d="M53.3817 33.3218C52.4665 32.4067 50.9825 32.4067 50.0672 33.322L49.1798 34.2095C48.2645 35.1248 48.2647 36.6087 49.18 37.524C50.0954 38.4395 51.5795 38.439 52.4945 37.5239L53.3818 36.6364C54.2972 35.7211 54.2972 34.237 53.3817 33.3218Z" fill="#D3E5F2"/>
<path d="M31.6754 34.2094L30.7879 33.3219C29.8727 32.4065 28.3887 32.4065 27.4733 33.3219C26.558 34.2372 26.558 35.7211 27.4733 36.6364L28.3609 37.5239C29.2762 38.4394 30.7604 38.439 31.6754 37.5239C32.5907 36.6086 32.5907 35.1247 31.6754 34.2094Z" fill="#EFF7FB"/>
<path d="M48.6675 50.0424C49.903 49.0427 50.5833 47.7479 50.5828 46.3968C50.5825 45.046 49.9019 43.7522 48.6662 42.7537L43.8641 38.8705C42.8684 38.0668 41.648 37.6649 40.4275 37.6649V52.3854H40.4312C43.7733 52.3855 46.8519 51.5099 48.6675 50.0424ZM42.7726 31.2137V29.9585C42.7726 28.6641 41.7233 27.6147 40.4289 27.6147H40.4276V33.5572H40.4289C41.7233 33.5574 42.7726 32.508 42.7726 31.2137Z" fill="#D3E5F2"/>
</g>
<defs>
<clipPath id="clip0_5537_2556">
<rect width="80" height="80" fill="white" transform="translate(0.428467)"/>
</clipPath>
</defs>
</svg>
