<svg width="81" height="72" viewBox="0 0 81 72" fill="none" xmlns="http://www.w3.org/2000/svg">
<path d="M38.4936 50.3438L31.7436 57.7967L26.3528 45.9844L10.9311 12.1874C9.14983 8.57783 9.8528 4.35939 12.4778 1.59361C12.9936 1.03111 13.7905 0.749859 14.5872 0.89064C15.3373 0.984234 15.9934 1.50002 16.3216 2.20298L26.3528 24L38.4936 50.3438Z" fill="#C5C9F7"/>
<path d="M38.4936 50.3437L31.7436 57.7967L26.3528 45.9844V24L38.4936 50.3437Z" fill="#A8AFF1"/>
<path d="M41.7745 12.1874L26.3528 45.9844L20.962 57.7967L14.212 50.3438L26.3528 24L36.3841 2.20298C36.7122 1.50002 37.3683 0.984234 38.1184 0.89064C38.9152 0.749859 39.712 1.03111 40.2278 1.59361C42.853 4.35939 43.5558 8.57798 41.7745 12.1874Z" fill="#E1E4FB"/>
<path d="M68.8528 5.53125H59.4778C58.1823 5.53125 57.134 4.48297 57.134 3.1875C57.134 1.89203 58.1823 0.84375 59.4778 0.84375H68.8528C70.1483 0.84375 71.1965 1.89203 71.1965 3.1875C71.1965 4.48297 70.1483 5.53125 68.8528 5.53125ZM68.8528 14.9062H59.4778C58.1823 14.9062 57.134 13.858 57.134 12.5625C57.134 11.267 58.1823 10.2188 59.4778 10.2188H68.8528C70.1483 10.2188 71.1965 11.267 71.1965 12.5625C71.1965 13.858 70.1483 14.9062 68.8528 14.9062ZM68.8528 24.2812H59.4778C58.1823 24.2812 57.134 23.233 57.134 21.9375C57.134 20.642 58.1823 19.5938 59.4778 19.5938H68.8528C70.1483 19.5938 71.1965 20.642 71.1965 21.9375C71.1965 23.233 70.1483 24.2812 68.8528 24.2812ZM68.8528 33.6562H59.4778C58.1823 33.6562 57.134 32.608 57.134 31.3125C57.134 30.017 58.1823 28.9688 59.4778 28.9688H68.8528C70.1483 28.9688 71.1965 30.017 71.1965 31.3125C71.1965 32.608 70.1483 33.6562 68.8528 33.6562ZM68.8528 43.0312H59.4778C58.1823 43.0312 57.134 41.983 57.134 40.6875C57.134 39.392 58.1823 38.3438 59.4778 38.3438H68.8528C70.1483 38.3438 71.1965 39.392 71.1965 40.6875C71.1965 41.983 70.1483 43.0312 68.8528 43.0312ZM68.8528 52.4062H59.4778C58.1823 52.4062 57.134 51.358 57.134 50.0625C57.134 48.767 58.1823 47.7188 59.4778 47.7188H68.8528C70.1483 47.7188 71.1965 48.767 71.1965 50.0625C71.1965 51.358 70.1483 52.4062 68.8528 52.4062ZM68.8528 61.7812H59.4778C58.1823 61.7812 57.134 60.733 57.134 59.4375C57.134 58.142 58.1823 57.0938 59.4778 57.0938H68.8528C70.1483 57.0938 71.1965 58.142 71.1965 59.4375C71.1965 60.733 70.1483 61.7812 68.8528 61.7812ZM68.8528 71.1562H59.4778C58.1823 71.1562 57.134 70.108 57.134 68.8125C57.134 67.517 58.1823 66.4688 59.4778 66.4688H68.8528C70.1483 66.4688 71.1965 67.517 71.1965 68.8125C71.1965 70.108 70.1483 71.1562 68.8528 71.1562Z" fill="#00EA7D"/>
<path d="M41.7745 12.1874L26.3528 45.9844V24L36.384 2.20298C36.7122 1.50002 37.3683 0.984234 38.1184 0.89064C38.9151 0.749859 39.712 1.03111 40.2278 1.59361C42.8529 4.35939 43.5558 8.57798 41.7745 12.1874Z" fill="#C5C9F7"/>
<path d="M73.5403 71.1562H66.509V0.84375H73.5403C77.4236 0.84375 80.5715 3.99172 80.5715 7.875V64.125C80.5715 68.0083 77.4236 71.1562 73.5403 71.1562Z" fill="#00CB7E"/>
<path d="M12.2903 71.1562C5.82888 71.1562 0.571533 65.8989 0.571533 59.4375C0.571533 52.9761 5.82888 47.7188 12.2903 47.7188C18.7517 47.7188 24.009 52.9761 24.009 59.4375C24.009 65.8989 18.7517 71.1562 12.2903 71.1562ZM12.2903 52.4062C8.4131 52.4062 5.25903 55.5603 5.25903 59.4375C5.25903 63.3147 8.4131 66.4688 12.2903 66.4688C16.1675 66.4688 19.3215 63.3147 19.3215 59.4375C19.3215 55.5603 16.1675 52.4062 12.2903 52.4062Z" fill="#00B3B8"/>
<path d="M40.4153 71.1562C33.9539 71.1562 28.6965 65.8989 28.6965 59.4375C28.6965 52.9761 33.9539 47.7188 40.4153 47.7188C46.8767 47.7188 52.2903 52.9761 52.2903 59.4375C52.2903 65.8989 46.8767 71.1562 40.4153 71.1562ZM40.4153 52.4062C36.5381 52.4062 33.384 55.5603 33.384 59.4375C33.384 63.3147 36.5381 66.4688 40.4153 66.4688C44.2925 66.4688 47.4465 63.3147 47.4465 59.4375C47.4465 55.5603 44.2925 52.4062 40.4153 52.4062Z" fill="#00A2AF"/>
</svg>
