<svg width="80" height="80" viewBox="0 0 80 80" fill="none" xmlns="http://www.w3.org/2000/svg">
<path d="M4.68762 11.7188H0.00012207V2.34375C0.00012207 1.04937 1.0495 0 2.34387 0H35.1962C39.6418 0 44.0275 1.02531 48.0122 2.99625L56.9811 7.4325C60.0204 8.93594 61.0418 12.7713 59.1525 15.587C57.6611 17.8098 54.8068 18.6694 52.3359 17.6398L38.8461 12.0191C37.1323 11.3051 35.2942 10.9375 33.4376 10.9375H19.5314L4.68762 11.7188Z" fill="#FFD2AF"/>
<path d="M30.0527 0V10.9375H33.4376C35.2942 10.9375 37.1324 11.3051 38.8462 12.0192L52.336 17.64C54.807 18.6695 57.661 17.81 59.1526 15.5872C61.0418 12.7714 60.0205 8.93609 56.9812 7.43266L48.0123 2.99641C44.0275 1.02537 39.6418 -5.83858e-06 35.1962 0L30.0527 0Z" fill="#FAB991"/>
<path d="M19.5314 10.9375H33.4376C35.2942 10.9375 37.1324 11.3051 38.8462 12.0192L41.6636 13.1931C40.3157 9.16344 36.5086 6.25 32.0312 6.25H19.5314V10.9375Z" fill="#FAB991"/>
<path d="M32.0312 6.25H30.0527V10.9375H33.4376C35.2942 10.9375 37.1324 11.3051 38.8462 12.0192L41.6635 13.1931C40.3157 9.16344 36.5085 6.25 32.0312 6.25Z" fill="#E6A078"/>
<path d="M4.68762 9.375H0.00012207V21.0938C0.00012207 21.8773 0.391685 22.6091 1.04372 23.0437L2.09418 23.7442C4.80778 25.5533 7.90262 26.4492 10.9882 26.4491C14.5347 26.4491 18.0687 25.2653 20.9954 22.9239L22.3065 21.875L32.0311 21.8752C35.0515 21.8752 37.5001 19.4267 37.5001 16.4062C37.5001 13.3859 35.0517 10.9375 32.0312 10.9375H17.1876L4.68762 9.375Z" fill="#FFD2AF"/>
<path d="M32.0312 10.9375H30.0527V21.8752H32.031C35.0515 21.8752 37.5001 19.4267 37.5001 16.4062C37.5001 13.3859 35.0516 10.9375 32.0312 10.9375Z" fill="#FAB991"/>
<path d="M77.6564 80H39.3751C38.8203 80 38.2835 79.8032 37.8602 79.4446C37.4369 79.086 37.1545 78.5888 37.0633 78.0416L36.1962 72.8391C35.5297 68.84 32.1033 65.9375 28.0492 65.9375C23.9334 65.9375 19.9959 64.4056 16.962 61.6244C13.9283 58.843 12.0611 55.053 11.7047 50.9527L11.3978 47.4231C11.3058 46.3658 11.6365 45.3405 12.3289 44.5363C13.0214 43.7319 13.9861 43.2523 15.0455 43.1861L23.6039 42.6512C24.0158 42.6251 24.4176 42.5133 24.7838 42.323C25.15 42.1327 25.4725 41.8681 25.7306 41.5461L27.92 38.8094C29.914 36.3167 32.5828 34.5098 35.6378 33.5842C35.7548 33.5487 35.8745 33.5225 35.9956 33.5058L39.3751 33.037V24.5312C39.3751 23.2369 40.4245 22.1875 41.7189 22.1875H41.9533C48.914 22.1875 54.604 27.7328 54.8365 34.6381L60.4919 49.9113C61.7344 53.2666 64.973 55.5208 68.5509 55.5208H77.6564C78.9508 55.5208 80.0001 56.5702 80.0001 57.8645V77.6562C80.0001 78.9506 78.9508 80 77.6564 80Z" fill="#CD7B28"/>
<path d="M77.6564 55.5208H68.5509C64.973 55.5208 61.7344 53.2665 60.4919 49.9113L54.8366 34.6382C54.6475 29.0219 50.8483 24.3057 45.6914 22.7404V80H77.6564C78.9508 80 80.0002 78.9507 80.0002 77.6563V57.8646C80.0002 56.5702 78.9508 55.5208 77.6564 55.5208Z" fill="#B9641E"/>
<path d="M37.8126 49.5312C39.107 49.5312 40.1564 48.4819 40.1564 47.1875C40.1564 45.8931 39.107 44.8438 37.8126 44.8438C36.5182 44.8438 35.4689 45.8931 35.4689 47.1875C35.4689 48.4819 36.5182 49.5312 37.8126 49.5312Z" fill="#5A5A5A"/>
</svg>
