<svg width="165" height="172" viewBox="0 0 165 172" fill="none" xmlns="http://www.w3.org/2000/svg">
<g clip-path="url(#clip0_5537_2555)">
<path d="M97.491 104H67.366C66.0716 104 65.0222 102.951 65.0222 101.656V81.4062H44.7722C43.4778 81.4062 42.4285 80.3569 42.4285 79.0625V48.9375C42.4285 47.6431 43.4778 46.5938 44.7722 46.5938H65.0222V26.3438C65.0222 25.0494 66.0716 24 67.366 24H97.491C98.7853 24 99.8347 25.0494 99.8347 26.3438V46.5938H120.085C121.379 46.5938 122.428 47.6431 122.428 48.9375V79.0625C122.428 80.3569 121.379 81.4062 120.085 81.4062H99.8347V101.656C99.8347 102.951 98.7855 104 97.491 104Z" fill="#FF6D5E"/>
<path d="M120.085 46.5938H99.8347V26.3438C99.8347 25.0494 98.7853 24 97.4909 24H82.4275V104H97.4909C98.7853 104 99.8347 102.951 99.8347 101.656V81.4062H120.085C121.379 81.4062 122.428 80.3569 122.428 79.0625V48.9375C122.428 47.6431 121.379 46.5938 120.085 46.5938Z" fill="#FF266E"/>
<path d="M90.6665 66.7537L85.8643 62.8705C83.873 61.263 80.9824 61.263 78.9912 62.8705L78.989 62.8722L74.1902 66.7521C72.9547 67.7518 72.2746 69.0468 72.2749 70.3982C72.2752 71.7493 72.9558 73.0433 74.1904 74.0413C76.0044 75.5093 79.0838 76.3855 82.4315 76.3855C85.7735 76.3855 88.8521 75.5099 90.6676 74.0424C91.903 73.0427 92.5833 71.7479 92.5829 70.3968C92.5826 69.0462 91.9019 67.7522 90.6665 66.7537ZM82.429 57.5574C83.7233 57.5574 84.7727 56.508 84.7727 55.2137V53.9585C84.7727 52.6641 83.7233 51.6147 82.429 51.6147C81.1346 51.6147 80.0852 52.6641 80.0852 53.9585V55.2137C80.0852 56.508 81.1346 57.5574 82.429 57.5574Z" fill="#EFF7FB"/>
<path d="M95.3817 57.3218C94.4665 56.4067 92.9825 56.4067 92.0672 57.322L91.1798 58.2095C90.2645 59.1248 90.2647 60.6087 91.18 61.524C92.0954 62.4395 93.5795 62.439 94.4945 61.5239L95.3818 60.6364C96.2972 59.7211 96.2972 58.237 95.3817 57.3218Z" fill="#D3E5F2"/>
<path d="M73.6754 58.2094L72.7879 57.3219C71.8727 56.4065 70.3887 56.4065 69.4733 57.3219C68.558 58.2372 68.558 59.7211 69.4733 60.6364L70.3609 61.5239C71.2762 62.4394 72.7604 62.439 73.6754 61.5239C74.5907 60.6086 74.5907 59.1247 73.6754 58.2094Z" fill="#EFF7FB"/>
<path d="M90.6675 74.0424C91.903 73.0427 92.5833 71.7479 92.5828 70.3968C92.5825 69.046 91.9019 67.7522 90.6662 66.7537L85.8641 62.8705C84.8684 62.0668 83.648 61.6649 82.4275 61.6649V76.3854H82.4312C85.7733 76.3855 88.8519 75.5099 90.6675 74.0424ZM84.7726 55.2137V53.9585C84.7726 52.6641 83.7233 51.6147 82.4289 51.6147H82.4276V57.5572H82.4289C83.7233 57.5574 84.7726 56.508 84.7726 55.2137Z" fill="#D3E5F2"/>
</g>
<path d="M67.6508 128.364L71.1054 138.159H71.2418L74.6963 128.364H76.1736L71.9008 140H70.4463L66.1736 128.364H67.6508ZM80.6508 140.182C79.8099 140.182 79.0846 139.996 78.4747 139.625C77.8686 139.25 77.4008 138.727 77.0713 138.057C76.7455 137.383 76.5827 136.598 76.5827 135.705C76.5827 134.811 76.7455 134.023 77.0713 133.341C77.4008 132.655 77.8592 132.121 78.4463 131.739C79.0372 131.352 79.7266 131.159 80.5145 131.159C80.969 131.159 81.4179 131.235 81.8611 131.386C82.3043 131.538 82.7077 131.784 83.0713 132.125C83.4349 132.462 83.7247 132.909 83.9406 133.466C84.1565 134.023 84.2645 134.708 84.2645 135.523V136.091H77.5372V134.932H82.9008C82.9008 134.439 82.8024 134 82.6054 133.614C82.4122 133.227 82.1357 132.922 81.7758 132.699C81.4198 132.475 80.9993 132.364 80.5145 132.364C79.9804 132.364 79.5183 132.496 79.1281 132.761C78.7418 133.023 78.4444 133.364 78.2361 133.784C78.0277 134.205 77.9236 134.655 77.9236 135.136V135.909C77.9236 136.568 78.0372 137.127 78.2645 137.585C78.4955 138.04 78.8156 138.386 79.2247 138.625C79.6338 138.86 80.1092 138.977 80.6508 138.977C81.0031 138.977 81.3213 138.928 81.6054 138.83C81.8933 138.727 82.1414 138.576 82.3497 138.375C82.558 138.17 82.719 137.917 82.8327 137.614L84.1281 137.977C83.9918 138.417 83.7626 138.803 83.4406 139.136C83.1186 139.466 82.7209 139.723 82.2474 139.909C81.774 140.091 81.2418 140.182 80.6508 140.182ZM90.0997 131.273V132.409H85.577V131.273H90.0997ZM86.8952 129.182H88.2361V137.5C88.2361 137.879 88.291 138.163 88.4008 138.352C88.5145 138.538 88.6584 138.663 88.8327 138.727C89.0107 138.788 89.1982 138.818 89.3952 138.818C89.5429 138.818 89.6641 138.811 89.7588 138.795C89.8535 138.777 89.9293 138.761 89.9861 138.75L90.2588 139.955C90.1679 139.989 90.041 140.023 89.8781 140.057C89.7152 140.095 89.5088 140.114 89.2588 140.114C88.88 140.114 88.5088 140.032 88.1452 139.869C87.7853 139.706 87.4861 139.458 87.2474 139.125C87.0126 138.792 86.8952 138.371 86.8952 137.864V129.182ZM98.1423 133.227L96.9378 133.568C96.862 133.367 96.7503 133.172 96.6025 132.983C96.4586 132.79 96.2616 132.631 96.0116 132.506C95.7616 132.381 95.4416 132.318 95.0514 132.318C94.5173 132.318 94.0722 132.441 93.7162 132.688C93.3639 132.93 93.1878 133.239 93.1878 133.614C93.1878 133.947 93.309 134.21 93.5514 134.403C93.7938 134.597 94.1726 134.758 94.6878 134.886L95.9832 135.205C96.7635 135.394 97.345 135.684 97.7275 136.074C98.1101 136.46 98.3014 136.958 98.3014 137.568C98.3014 138.068 98.1575 138.515 97.8696 138.909C97.5855 139.303 97.1878 139.614 96.6764 139.841C96.165 140.068 95.5704 140.182 94.8923 140.182C94.0022 140.182 93.2654 139.989 92.6821 139.602C92.0988 139.216 91.7294 138.652 91.5741 137.909L92.8469 137.591C92.9681 138.061 93.1972 138.413 93.5344 138.648C93.8753 138.883 94.3204 139 94.8696 139C95.4946 139 95.9908 138.867 96.3582 138.602C96.7294 138.333 96.915 138.011 96.915 137.636C96.915 137.333 96.809 137.08 96.5969 136.875C96.3847 136.667 96.059 136.511 95.6196 136.409L94.165 136.068C93.3658 135.879 92.7787 135.585 92.4037 135.188C92.0325 134.786 91.8469 134.284 91.8469 133.682C91.8469 133.189 91.9851 132.754 92.2616 132.375C92.5419 131.996 92.9226 131.699 93.4037 131.483C93.8885 131.267 94.4378 131.159 95.0514 131.159C95.915 131.159 96.5931 131.348 97.0855 131.727C97.5817 132.106 97.934 132.606 98.1423 133.227Z" fill="black"/>
<defs>
<clipPath id="clip0_5537_2555">
<rect width="80" height="80" fill="white" transform="translate(42.4285 24)"/>
</clipPath>
</defs>
</svg>
