<svg width="62" height="80" viewBox="0 0 62 80" fill="none" xmlns="http://www.w3.org/2000/svg">
<path d="M10.0492 21.0938C10.0492 22.3881 11.0986 23.4375 12.3929 23.4375H21.7679C23.0623 23.4375 24.1117 22.3881 24.1117 21.0938V9.375L10.0492 11.7188V21.0938Z" fill="#FFE6B3"/>
<path d="M38.1742 21.0938C38.1742 22.3881 39.2236 23.4375 40.5179 23.4375H49.8929C51.1873 23.4375 52.2367 22.3881 52.2367 21.0938V11.7188L38.1742 9.375V21.0938Z" fill="#FFCA80"/>
<path d="M52.2367 11.7188H10.0492C10.0492 11.0969 10.2961 10.5016 10.7351 10.0609L20.1101 0.685937C20.5508 0.246875 21.1461 0 21.7679 0H40.5179C41.1398 0 41.7351 0.246875 42.1758 0.685937L51.5508 10.0609C51.9898 10.5016 52.2367 11.0969 52.2367 11.7188Z" fill="#FFF7CC"/>
<path d="M52.2367 11.7188H31.1429V0H40.5179C41.1398 0 41.7351 0.246875 42.1758 0.685937L51.5508 10.0609C51.9898 10.5016 52.2367 11.0969 52.2367 11.7188Z" fill="#FFE6B3"/>
<path d="M61.6117 21.0938V77.6562C61.6117 78.95 60.5617 80 59.2679 80H3.01794C1.72419 80 0.674194 78.95 0.674194 77.6562V21.0938C0.674194 19.8 1.72419 18.75 3.01794 18.75H59.2679C60.5617 18.75 61.6117 19.8 61.6117 21.0938Z" fill="#FFDA2D"/>
<path d="M61.6117 21.0938V77.6562C61.6117 78.95 60.5617 80 59.2679 80H31.1429V18.75H59.2679C60.5617 18.75 61.6117 19.8 61.6117 21.0938Z" fill="#FDBF00"/>
<path d="M31.1429 47.1875C24.2633 47.1875 19.4242 57.4219 19.4242 63.5938C19.4242 68.5812 22.4711 69.5219 27.3398 68.7016C28.5648 68.4953 29.832 68.2812 31.1429 68.2812C32.4539 68.2812 33.7211 68.4953 34.9461 68.7016C39.8179 69.5234 42.8617 68.5781 42.8617 63.5938C42.8617 57.4156 38.0039 47.1875 31.1429 47.1875Z" fill="#766E6E"/>
<path d="M42.8617 63.5938C42.8617 68.5781 39.8179 69.5234 34.9461 68.7016C33.7211 68.4953 32.4539 68.2812 31.1429 68.2812V47.1875C38.0039 47.1875 42.8617 57.4156 42.8617 63.5938Z" fill="#5B5555"/>
<path d="M31.1429 28.4375C27.2664 28.4375 24.1117 31.5922 24.1117 35.4688C24.1117 39.3453 27.2664 42.5 31.1429 42.5C35.0195 42.5 38.1742 39.3453 38.1742 35.4688C38.1742 31.5922 35.0195 28.4375 31.1429 28.4375Z" fill="#766E6E"/>
<path d="M38.1742 35.4688C38.1742 39.3453 35.0195 42.5 31.1429 42.5V28.4375C35.0195 28.4375 38.1742 31.5922 38.1742 35.4688Z" fill="#5B5555"/>
<path d="M17.0804 51.875C13.2034 51.875 10.0492 48.7208 10.0492 44.8438C10.0492 40.9667 13.2034 37.8125 17.0804 37.8125C20.9575 37.8125 24.1117 40.9667 24.1117 44.8438C24.1117 48.7208 20.9575 51.875 17.0804 51.875Z" fill="#766E6E"/>
<path d="M45.2054 51.875C41.3284 51.875 38.1742 48.7208 38.1742 44.8438C38.1742 40.9667 41.3284 37.8125 45.2054 37.8125C49.0825 37.8125 52.2367 40.9667 52.2367 44.8438C52.2367 48.7208 49.0825 51.875 45.2054 51.875Z" fill="#5B5555"/>
</svg>
