<svg width="171" height="40" viewBox="0 0 171 40" fill="none" xmlns="http://www.w3.org/2000/svg">
<path d="M4.62034 21.0525C0.682221 16.999 0.682218 10.4269 4.62033 6.37344C8.55845 2.31994 14.9434 2.31994 18.8815 6.37344L19.4034 6.9106C19.7305 7.24726 20.2698 7.24726 20.5969 6.9106L21.1186 6.37358C25.0568 2.32007 31.4417 2.32007 35.3798 6.37357C39.3179 10.4271 39.3179 16.9991 35.3798 21.0526C35.3798 21.0526 22.5001 36.6666 20 36.6666C18.4873 36.6666 13.1745 30.9501 9.21406 26.4348C11.371 26.2845 13.3736 23.4829 13.3736 19.3807C13.3736 16.7937 13.6487 15.9402 14.4827 15.9402C17.0448 15.9402 15.0513 26.6839 12.3022 27.693C10.2748 28.437 11.897 29.3769 15.2088 29.3769C17.5727 29.3769 19.0241 28.9038 20.6331 27.6089C22.205 26.3437 23.7038 25.8409 25.9021 25.8409C29.8608 25.8409 33.0085 24.2575 34.4873 21.522C36.1945 18.3651 35.4936 17.5688 30.527 17.0172C26.8049 16.6042 25.8806 16.2061 24.5031 14.4246C23.6084 13.267 21.8198 11.7034 20.5281 10.9502C12.9203 6.51335 3.53872 13.8912 4.78703 21.2537C4.67824 21.1227 4.62034 21.0525 4.62034 21.0525Z" fill="#7749F8"/>
<path d="M21.3106 17.9005C21.3106 18.6266 20.7239 19.2153 20.0001 19.2153C19.2763 19.2153 18.6895 18.6266 18.6895 17.9005C18.6895 17.1743 19.2763 16.5857 20.0001 16.5857C20.7239 16.5857 21.3106 17.1743 21.3106 17.9005Z" fill="#7749F8"/>
<path d="M49.7699 30V9.63636H57.804C59.3485 9.63636 60.6643 9.93134 61.7514 10.5213C62.8385 11.1046 63.6671 11.9167 64.2372 12.9574C64.8139 13.9915 65.1023 15.1847 65.1023 16.5369C65.1023 17.8892 64.8106 19.0824 64.2273 20.1165C63.6439 21.1506 62.7988 21.956 61.6918 22.5327C60.5914 23.1094 59.259 23.3977 57.6946 23.3977H52.5739V19.9474H56.9986C57.8272 19.9474 58.5099 19.8049 59.0469 19.5199C59.5904 19.2282 59.9948 18.8272 60.2599 18.3168C60.5317 17.7997 60.6676 17.2064 60.6676 16.5369C60.6676 15.8608 60.5317 15.2708 60.2599 14.767C59.9948 14.2566 59.5904 13.8622 59.0469 13.5838C58.5033 13.2988 57.8139 13.1562 56.9787 13.1562H54.0753V30H49.7699ZM74.5334 30.2983C72.9624 30.2983 71.6101 29.9801 70.4766 29.3438C69.3497 28.7008 68.4813 27.7926 67.8714 26.6193C67.2616 25.4394 66.9567 24.044 66.9567 22.4332C66.9567 20.8622 67.2616 19.4834 67.8714 18.2969C68.4813 17.1103 69.3397 16.1856 70.4467 15.5227C71.5604 14.8598 72.8662 14.5284 74.3643 14.5284C75.3719 14.5284 76.3099 14.6908 77.1783 15.0156C78.0533 15.3338 78.8156 15.8144 79.4652 16.4574C80.1214 17.1004 80.6319 17.9091 80.9964 18.8835C81.361 19.8513 81.5433 20.9848 81.5433 22.2841V23.4474H68.647V20.8224H77.5561C77.5561 20.2126 77.4235 19.6723 77.1584 19.2017C76.8932 18.7311 76.5253 18.3632 76.0547 18.098C75.5907 17.8262 75.0504 17.6903 74.4339 17.6903C73.791 17.6903 73.2209 17.8395 72.7237 18.1378C72.2332 18.4295 71.8487 18.8239 71.5703 19.321C71.2919 19.8116 71.1494 20.3584 71.1428 20.9616V23.4574C71.1428 24.2131 71.282 24.866 71.5604 25.4162C71.8454 25.9664 72.2464 26.3906 72.7635 26.6889C73.2805 26.9872 73.8937 27.1364 74.603 27.1364C75.0736 27.1364 75.5045 27.0701 75.8956 26.9375C76.2867 26.8049 76.6214 26.6061 76.8999 26.3409C77.1783 26.0758 77.3904 25.7509 77.5362 25.3665L81.4538 25.625C81.255 26.5663 80.8473 27.3883 80.2308 28.0909C79.621 28.7869 78.8321 29.3305 77.8643 29.7216C76.9032 30.1061 75.7929 30.2983 74.5334 30.2983ZM92.4311 14.7273V17.9091H83.2337V14.7273H92.4311ZM85.3217 11.0682H89.5575V25.3068C89.5575 25.6979 89.6172 26.0028 89.7365 26.2216C89.8558 26.4337 90.0215 26.5829 90.2337 26.669C90.4524 26.7552 90.7043 26.7983 90.9893 26.7983C91.1882 26.7983 91.3871 26.7817 91.5859 26.7486C91.7848 26.7088 91.9373 26.679 92.0433 26.6591L92.7095 29.8111C92.4974 29.8774 92.1991 29.9536 91.8146 30.0398C91.4302 30.1326 90.9628 30.1889 90.4126 30.2088C89.3918 30.2486 88.4969 30.1127 87.728 29.8011C86.9657 29.4896 86.3724 29.0057 85.9482 28.3494C85.5239 27.6932 85.3151 26.8646 85.3217 25.8636V11.0682ZM105.907 21.1705V30H101.671V14.7273H105.708V17.4219H105.887C106.225 16.5336 106.792 15.831 107.587 15.3139C108.382 14.7902 109.347 14.5284 110.48 14.5284C111.541 14.5284 112.466 14.7604 113.255 15.2244C114.043 15.6884 114.657 16.3513 115.094 17.2131C115.532 18.0682 115.75 19.089 115.75 20.2756V30H111.515V21.0312C111.521 20.0966 111.283 19.3674 110.799 18.8438C110.315 18.3134 109.649 18.0483 108.8 18.0483C108.23 18.0483 107.726 18.1709 107.289 18.4162C106.858 18.6615 106.52 19.0194 106.275 19.4901C106.036 19.9541 105.913 20.5142 105.907 21.1705ZM129.328 9.63636L134.25 25.108H134.439L139.37 9.63636H144.143L137.123 30H131.575L124.545 9.63636H129.328ZM151.752 30.2983C150.181 30.2983 148.829 29.9801 147.695 29.3438C146.568 28.7008 145.7 27.7926 145.09 26.6193C144.48 25.4394 144.175 24.044 144.175 22.4332C144.175 20.8622 144.48 19.4834 145.09 18.2969C145.7 17.1103 146.558 16.1856 147.665 15.5227C148.779 14.8598 150.085 14.5284 151.583 14.5284C152.591 14.5284 153.529 14.6908 154.397 15.0156C155.272 15.3338 156.034 15.8144 156.684 16.4574C157.34 17.1004 157.851 17.9091 158.215 18.8835C158.58 19.8513 158.762 20.9848 158.762 22.2841V23.4474H145.866V20.8224H154.775C154.775 20.2126 154.642 19.6723 154.377 19.2017C154.112 18.7311 153.744 18.3632 153.273 18.098C152.809 17.8262 152.269 17.6903 151.653 17.6903C151.01 17.6903 150.44 17.8395 149.942 18.1378C149.452 18.4295 149.067 18.8239 148.789 19.321C148.511 19.8116 148.368 20.3584 148.362 20.9616V23.4574C148.362 24.2131 148.501 24.866 148.779 25.4162C149.064 25.9664 149.465 26.3906 149.982 26.6889C150.499 26.9872 151.112 27.1364 151.822 27.1364C152.292 27.1364 152.723 27.0701 153.114 26.9375C153.505 26.8049 153.84 26.6061 154.119 26.3409C154.397 26.0758 154.609 25.7509 154.755 25.3665L158.673 25.625C158.474 26.5663 158.066 27.3883 157.45 28.0909C156.84 28.7869 156.051 29.3305 155.083 29.7216C154.122 30.1061 153.012 30.2983 151.752 30.2983ZM169.65 14.7273V17.9091H160.452V14.7273H169.65ZM162.54 11.0682H166.776V25.3068C166.776 25.6979 166.836 26.0028 166.955 26.2216C167.075 26.4337 167.24 26.5829 167.452 26.669C167.671 26.7552 167.923 26.7983 168.208 26.7983C168.407 26.7983 168.606 26.7817 168.805 26.7486C169.004 26.7088 169.156 26.679 169.262 26.6591L169.928 29.8111C169.716 29.8774 169.418 29.9536 169.033 30.0398C168.649 30.1326 168.182 30.1889 167.631 30.2088C166.611 30.2486 165.716 30.1127 164.947 29.8011C164.184 29.4896 163.591 29.0057 163.167 28.3494C162.743 27.6932 162.534 26.8646 162.54 25.8636V11.0682Z" fill="black"/>
</svg>
