<svg width="386" height="90" viewBox="0 0 386 90" fill="none" xmlns="http://www.w3.org/2000/svg">
<path d="M10.8951 47.3681C2.03433 38.2477 2.03432 23.4607 10.8951 14.3403C19.7558 5.21991 34.122 5.2199 42.9827 14.3403L44.1569 15.5489C44.8929 16.3064 46.1064 16.3064 46.8424 15.5489L48.0163 14.3406C56.877 5.22021 71.2432 5.2202 80.1039 14.3406C88.9647 23.461 88.9647 38.248 80.1039 47.3684C80.1039 47.3684 51.1245 82.5 45.4994 82.5C42.0957 82.5 30.1419 69.6377 21.231 59.4784C26.0842 59.1401 30.59 52.8365 30.59 43.6065C30.59 37.786 31.2089 35.8654 33.0855 35.8654C38.85 35.8654 34.3648 60.0388 28.1793 62.3094C23.6176 63.9833 27.2677 66.098 34.7192 66.098C40.0379 66.098 43.3036 65.0335 46.9237 62.12C50.4607 59.2734 53.8329 58.1421 58.779 58.1421C67.6862 58.1421 74.7683 54.5794 78.0957 48.4247C81.937 41.3216 80.3599 39.5299 69.1851 38.2888C60.8103 37.3595 58.7307 36.4637 55.6313 32.4555C53.6183 29.8507 49.5939 26.3326 46.6875 24.638C29.5701 14.6551 8.46145 31.2552 11.2702 47.8208C11.0254 47.5261 10.8951 47.3681 10.8951 47.3681Z" fill="white"/>
<path d="M48.4482 40.2761C48.4482 41.9099 47.128 43.2344 45.4995 43.2344C43.871 43.2344 42.5508 41.9099 42.5508 40.2761C42.5508 38.6423 43.871 37.3179 45.4995 37.3179C47.128 37.3179 48.4482 38.6423 48.4482 40.2761Z" fill="white"/>
<path d="M112.482 68V22.1818H130.559C134.034 22.1818 136.995 22.8455 139.441 24.1729C141.887 25.4854 143.751 27.3125 145.034 29.6541C146.331 31.9808 146.98 34.6655 146.98 37.7081C146.98 40.7507 146.324 43.4354 145.011 45.7621C143.699 48.0888 141.797 49.9009 139.306 51.1985C136.831 52.4961 133.833 53.1449 130.313 53.1449H118.791V45.3817H128.747C130.611 45.3817 132.147 45.0611 133.355 44.4197C134.578 43.7635 135.488 42.8612 136.085 41.7127C136.696 40.5494 137.002 39.2145 137.002 37.7081C137.002 36.1868 136.696 34.8594 136.085 33.7259C135.488 32.5774 134.578 31.69 133.355 31.0636C132.132 30.4222 130.581 30.1016 128.702 30.1016H122.169V68H112.482ZM168.2 68.6712C164.665 68.6712 161.623 67.9553 159.072 66.5234C156.537 65.0767 154.583 63.0334 153.211 60.3935C151.839 57.7386 151.153 54.5991 151.153 50.9748C151.153 47.44 151.839 44.3377 153.211 41.668C154.583 38.9982 156.514 36.9176 159.005 35.4261C161.511 33.9347 164.449 33.1889 167.82 33.1889C170.087 33.1889 172.197 33.5543 174.151 34.2852C176.12 35.0011 177.835 36.0824 179.297 37.5291C180.773 38.9759 181.922 40.7955 182.742 42.9879C183.562 45.1655 183.972 47.7159 183.972 50.6392V53.2567H154.956V47.3505H175.001C175.001 45.9783 174.703 44.7628 174.106 43.7038C173.51 42.6449 172.682 41.8171 171.623 41.2205C170.579 40.609 169.363 40.3033 167.976 40.3033C166.53 40.3033 165.247 40.6388 164.128 41.31C163.025 41.9663 162.16 42.8537 161.533 43.9723C160.907 45.076 160.586 46.3065 160.571 47.6637V53.2791C160.571 54.9794 160.884 56.4485 161.511 57.6864C162.152 58.9244 163.055 59.8789 164.218 60.5501C165.381 61.2212 166.761 61.5568 168.357 61.5568C169.416 61.5568 170.385 61.4077 171.265 61.1094C172.145 60.8111 172.898 60.3636 173.525 59.767C174.151 59.1705 174.628 58.4396 174.956 57.5746L183.771 58.1562C183.324 60.2741 182.406 62.1236 181.019 63.7045C179.647 65.2706 177.872 66.4936 175.695 67.3736C173.532 68.2386 171.034 68.6712 168.2 68.6712ZM208.47 33.6364V40.7955H187.776V33.6364H208.47ZM192.474 25.4034H202.004V57.4403C202.004 58.3203 202.139 59.0064 202.407 59.4986C202.676 59.9759 203.048 60.3114 203.526 60.5053C204.018 60.6992 204.585 60.7962 205.226 60.7962C205.673 60.7962 206.121 60.7589 206.568 60.6843C207.016 60.5948 207.359 60.5277 207.597 60.483L209.096 67.5749C208.619 67.7241 207.948 67.8956 207.083 68.0895C206.218 68.2983 205.166 68.4251 203.928 68.4698C201.632 68.5593 199.618 68.2536 197.888 67.5526C196.173 66.8516 194.838 65.7628 193.883 64.2862C192.929 62.8097 192.459 60.9453 192.474 58.6932V25.4034ZM238.79 48.1335V68H229.259V33.6364H238.342V39.6992H238.745C239.506 37.7006 240.781 36.1197 242.571 34.9563C244.361 33.7781 246.531 33.1889 249.081 33.1889C251.467 33.1889 253.548 33.7109 255.323 34.755C257.098 35.799 258.477 37.2905 259.462 39.2294C260.446 41.1534 260.938 43.4503 260.938 46.12V68H251.408V47.8203C251.423 45.7173 250.886 44.0767 249.797 42.8984C248.708 41.7053 247.209 41.1087 245.3 41.1087C244.017 41.1087 242.884 41.3846 241.9 41.9364C240.93 42.4883 240.169 43.2937 239.618 44.3526C239.081 45.3967 238.805 46.657 238.79 48.1335ZM291.487 22.1818L302.562 56.9929H302.987L314.083 22.1818H324.822L309.027 68H296.544L280.726 22.1818H291.487ZM341.942 68.6712C338.407 68.6712 335.365 67.9553 332.814 66.5234C330.279 65.0767 328.325 63.0334 326.953 60.3935C325.581 57.7386 324.895 54.5991 324.895 50.9748C324.895 47.44 325.581 44.3377 326.953 41.668C328.325 38.9982 330.257 36.9176 332.747 35.4261C335.253 33.9347 338.191 33.1889 341.562 33.1889C343.829 33.1889 345.939 33.5543 347.893 34.2852C349.862 35.0011 351.577 36.0824 353.039 37.5291C354.515 38.9759 355.664 40.7955 356.484 42.9879C357.305 45.1655 357.715 47.7159 357.715 50.6392V53.2567H328.698V47.3505H348.743C348.743 45.9783 348.445 44.7628 347.849 43.7038C347.252 42.6449 346.424 41.8171 345.365 41.2205C344.321 40.609 343.106 40.3033 341.719 40.3033C340.272 40.3033 338.989 40.6388 337.871 41.31C336.767 41.9663 335.902 42.8537 335.275 43.9723C334.649 45.076 334.328 46.3065 334.313 47.6637V53.2791C334.313 54.9794 334.627 56.4485 335.253 57.6864C335.894 58.9244 336.797 59.8789 337.96 60.5501C339.123 61.2212 340.503 61.5568 342.099 61.5568C343.158 61.5568 344.127 61.4077 345.007 61.1094C345.887 60.8111 346.64 60.3636 347.267 59.767C347.893 59.1705 348.371 58.4396 348.699 57.5746L357.513 58.1562C357.066 60.2741 356.149 62.1236 354.762 63.7045C353.389 65.2706 351.615 66.4936 349.437 67.3736C347.274 68.2386 344.776 68.6712 341.942 68.6712ZM382.212 33.6364V40.7955H361.518V33.6364H382.212ZM366.216 25.4034H375.747V57.4403C375.747 58.3203 375.881 59.0064 376.149 59.4986C376.418 59.9759 376.791 60.3114 377.268 60.5053C377.76 60.6992 378.327 60.7962 378.968 60.7962C379.416 60.7962 379.863 60.7589 380.311 60.6843C380.758 60.5948 381.101 60.5277 381.34 60.483L382.839 67.5749C382.361 67.7241 381.69 67.8956 380.825 68.0895C379.96 68.2983 378.909 68.4251 377.671 68.4698C375.374 68.5593 373.36 68.2536 371.63 67.5526C369.915 66.8516 368.58 65.7628 367.626 64.2862C366.671 62.8097 366.201 60.9453 366.216 58.6932V25.4034Z" fill="white"/>
</svg>
