<svg width="328" height="40" viewBox="0 0 328 40" fill="none" xmlns="http://www.w3.org/2000/svg">
<rect x="0.5" y="0.5" width="39" height="39" rx="3.5" fill="white"/>
<rect x="0.5" y="0.5" width="39" height="39" rx="3.5" stroke="#E9ECEF"/>
<path fill-rule="evenodd" clip-rule="evenodd" d="M23.3539 13.6459C23.4005 13.6924 23.4374 13.7475 23.4626 13.8083C23.4878 13.869 23.5008 13.9341 23.5008 13.9999C23.5008 14.0657 23.4878 14.1308 23.4626 14.1916C23.4374 14.2523 23.4005 14.3075 23.3539 14.3539L17.7069 19.9999L23.3539 25.6459C23.4478 25.7398 23.5005 25.8671 23.5005 25.9999C23.5005 26.1327 23.4478 26.26 23.3539 26.3539C23.26 26.4478 23.1327 26.5005 22.9999 26.5005C22.8671 26.5005 22.7398 26.4478 22.6459 26.3539L16.6459 20.3539C16.5994 20.3075 16.5624 20.2523 16.5372 20.1915C16.512 20.1308 16.499 20.0657 16.499 19.9999C16.499 19.9341 16.512 19.869 16.5372 19.8083C16.5624 19.7475 16.5994 19.6924 16.6459 19.6459L22.6459 13.6459C22.6924 13.5994 22.7475 13.5624 22.8083 13.5372C22.869 13.512 22.9342 13.499 22.9999 13.499C23.0657 13.499 23.1308 13.512 23.1916 13.5372C23.2523 13.5624 23.3075 13.5994 23.3539 13.6459Z" fill="#ADB5BD"/>
<rect x="48.5" y="0.5" width="39" height="39" rx="3.5" fill="#7749F8"/>
<rect x="48.5" y="0.5" width="39" height="39" rx="3.5" stroke="#7749F8"/>
<path d="M69.5767 14.3636V26H68.1676V15.8409H68.0994L65.2585 17.7273V16.2955L68.1676 14.3636H69.5767Z" fill="white"/>
<rect x="96.5" y="0.5" width="39" height="39" rx="3.5" fill="white"/>
<rect x="96.5" y="0.5" width="39" height="39" rx="3.5" stroke="#E9ECEF"/>
<path d="M112.361 26V24.9773L116.202 20.7727C116.652 20.2803 117.024 19.8523 117.315 19.4886C117.607 19.1212 117.823 18.7765 117.963 18.4545C118.107 18.1288 118.179 17.7879 118.179 17.4318C118.179 17.0227 118.08 16.6686 117.884 16.3693C117.69 16.0701 117.425 15.839 117.088 15.6761C116.751 15.5133 116.372 15.4318 115.952 15.4318C115.505 15.4318 115.115 15.5246 114.781 15.7102C114.452 15.892 114.196 16.1477 114.014 16.4773C113.836 16.8068 113.747 17.1932 113.747 17.6364H112.406C112.406 16.9545 112.563 16.3561 112.878 15.8409C113.192 15.3258 113.62 14.9242 114.162 14.6364C114.707 14.3485 115.319 14.2045 115.997 14.2045C116.679 14.2045 117.283 14.3485 117.81 14.6364C118.336 14.9242 118.749 15.3125 119.048 15.8011C119.348 16.2898 119.497 16.8333 119.497 17.4318C119.497 17.8598 119.42 18.2784 119.264 18.6875C119.113 19.0928 118.848 19.5455 118.469 20.0455C118.094 20.5417 117.573 21.1477 116.906 21.8636L114.293 24.6591V24.75H119.702V26H112.361Z" fill="#6C757D"/>
<rect x="144.5" y="0.5" width="39" height="39" rx="3.5" fill="white"/>
<rect x="144.5" y="0.5" width="39" height="39" rx="3.5" stroke="#E9ECEF"/>
<path d="M164.043 26.1591C163.293 26.1591 162.624 26.0303 162.037 25.7727C161.454 25.5152 160.99 25.1572 160.645 24.6989C160.304 24.2367 160.118 23.7008 160.088 23.0909H161.52C161.55 23.4659 161.679 23.7898 161.906 24.0625C162.134 24.3314 162.431 24.5398 162.798 24.6875C163.166 24.8352 163.573 24.9091 164.02 24.9091C164.52 24.9091 164.963 24.822 165.349 24.6477C165.736 24.4735 166.039 24.2311 166.259 23.9205C166.478 23.6098 166.588 23.25 166.588 22.8409C166.588 22.4129 166.482 22.036 166.27 21.7102C166.058 21.3807 165.747 21.1231 165.338 20.9375C164.929 20.7519 164.429 20.6591 163.838 20.6591H162.906V19.4091H163.838C164.3 19.4091 164.705 19.3258 165.054 19.1591C165.406 18.9924 165.681 18.7576 165.878 18.4545C166.079 18.1515 166.179 17.7955 166.179 17.3864C166.179 16.9924 166.092 16.6496 165.918 16.358C165.743 16.0663 165.497 15.839 165.179 15.6761C164.865 15.5133 164.493 15.4318 164.065 15.4318C163.664 15.4318 163.285 15.5057 162.929 15.6534C162.577 15.7973 162.289 16.0076 162.065 16.2841C161.842 16.5568 161.721 16.8864 161.702 17.2727H160.338C160.361 16.6629 160.545 16.1288 160.889 15.6705C161.234 15.2083 161.685 14.8485 162.241 14.5909C162.802 14.3333 163.418 14.2045 164.088 14.2045C164.808 14.2045 165.425 14.3504 165.94 14.642C166.455 14.9299 166.851 15.3106 167.128 15.7841C167.404 16.2576 167.543 16.7689 167.543 17.3182C167.543 17.9735 167.37 18.5322 167.026 18.9943C166.685 19.4564 166.221 19.7765 165.634 19.9545V20.0455C166.368 20.1667 166.942 20.4792 167.355 20.983C167.768 21.483 167.974 22.1023 167.974 22.8409C167.974 23.4735 167.802 24.0417 167.457 24.5455C167.116 25.0455 166.651 25.4394 166.06 25.7273C165.469 26.0152 164.796 26.1591 164.043 26.1591Z" fill="#6C757D"/>
<rect x="192.5" y="0.5" width="39" height="39" rx="3.5" fill="white"/>
<rect x="192.5" y="0.5" width="39" height="39" rx="3.5" stroke="#E9ECEF"/>
<path d="M207.595 26.0909C207.315 26.0909 207.074 25.9905 206.874 25.7898C206.673 25.589 206.572 25.3485 206.572 25.0682C206.572 24.7879 206.673 24.5473 206.874 24.3466C207.074 24.1458 207.315 24.0455 207.595 24.0455C207.875 24.0455 208.116 24.1458 208.317 24.3466C208.518 24.5473 208.618 24.7879 208.618 25.0682C208.618 25.2538 208.571 25.4242 208.476 25.5795C208.385 25.7348 208.262 25.8598 208.107 25.9545C207.955 26.0455 207.785 26.0909 207.595 26.0909ZM212.001 26.0909C211.721 26.0909 211.481 25.9905 211.28 25.7898C211.079 25.589 210.979 25.3485 210.979 25.0682C210.979 24.7879 211.079 24.5473 211.28 24.3466C211.481 24.1458 211.721 24.0455 212.001 24.0455C212.282 24.0455 212.522 24.1458 212.723 24.3466C212.924 24.5473 213.024 24.7879 213.024 25.0682C213.024 25.2538 212.977 25.4242 212.882 25.5795C212.791 25.7348 212.668 25.8598 212.513 25.9545C212.361 26.0455 212.191 26.0909 212.001 26.0909ZM216.408 26.0909C216.127 26.0909 215.887 25.9905 215.686 25.7898C215.485 25.589 215.385 25.3485 215.385 25.0682C215.385 24.7879 215.485 24.5473 215.686 24.3466C215.887 24.1458 216.127 24.0455 216.408 24.0455C216.688 24.0455 216.929 24.1458 217.129 24.3466C217.33 24.5473 217.43 24.7879 217.43 25.0682C217.43 25.2538 217.383 25.4242 217.288 25.5795C217.197 25.7348 217.074 25.8598 216.919 25.9545C216.768 26.0455 216.597 26.0909 216.408 26.0909Z" fill="#6C757D"/>
<rect x="240.5" y="0.5" width="39" height="39" rx="3.5" fill="white"/>
<rect x="240.5" y="0.5" width="39" height="39" rx="3.5" stroke="#E9ECEF"/>
<path d="M260.002 26.1591C259.222 26.1591 258.532 26.0208 257.934 25.7443C257.339 25.464 256.875 25.0795 256.542 24.5909C256.209 24.0985 256.044 23.5379 256.048 22.9091C256.044 22.4167 256.14 21.9621 256.337 21.5455C256.534 21.125 256.803 20.7746 257.144 20.4943C257.489 20.2102 257.873 20.0303 258.298 19.9545V19.8864C257.741 19.7424 257.298 19.4299 256.968 18.9489C256.638 18.464 256.476 17.9129 256.479 17.2955C256.476 16.7045 256.625 16.1761 256.928 15.7102C257.231 15.2443 257.648 14.8769 258.178 14.608C258.712 14.339 259.32 14.2045 260.002 14.2045C260.676 14.2045 261.279 14.339 261.809 14.608C262.339 14.8769 262.756 15.2443 263.059 15.7102C263.366 16.1761 263.521 16.7045 263.525 17.2955C263.521 17.9129 263.353 18.464 263.019 18.9489C262.69 19.4299 262.252 19.7424 261.707 19.8864V19.9545C262.127 20.0303 262.506 20.2102 262.843 20.4943C263.18 20.7746 263.449 21.125 263.65 21.5455C263.851 21.9621 263.953 22.4167 263.957 22.9091C263.953 23.5379 263.782 24.0985 263.445 24.5909C263.112 25.0795 262.648 25.464 262.053 25.7443C261.462 26.0208 260.779 26.1591 260.002 26.1591ZM260.002 24.9091C260.529 24.9091 260.983 24.8239 261.366 24.6534C261.748 24.483 262.044 24.2424 262.252 23.9318C262.46 23.6212 262.567 23.2576 262.57 22.8409C262.567 22.4015 262.453 22.0133 262.229 21.6761C262.006 21.339 261.701 21.0739 261.315 20.8807C260.932 20.6875 260.495 20.5909 260.002 20.5909C259.506 20.5909 259.063 20.6875 258.673 20.8807C258.286 21.0739 257.981 21.339 257.758 21.6761C257.538 22.0133 257.43 22.4015 257.434 22.8409C257.43 23.2576 257.531 23.6212 257.735 23.9318C257.943 24.2424 258.241 24.483 258.627 24.6534C259.013 24.8239 259.472 24.9091 260.002 24.9091ZM260.002 19.3864C260.419 19.3864 260.788 19.303 261.11 19.1364C261.436 18.9697 261.692 18.7367 261.877 18.4375C262.063 18.1383 262.157 17.7879 262.161 17.3864C262.157 16.9924 262.065 16.6496 261.883 16.358C261.701 16.0625 261.449 15.8352 261.127 15.6761C260.805 15.5133 260.43 15.4318 260.002 15.4318C259.567 15.4318 259.186 15.5133 258.86 15.6761C258.534 15.8352 258.282 16.0625 258.104 16.358C257.926 16.6496 257.839 16.9924 257.843 17.3864C257.839 17.7879 257.928 18.1383 258.11 18.4375C258.296 18.7367 258.551 18.9697 258.877 19.1364C259.203 19.303 259.578 19.3864 260.002 19.3864Z" fill="#6C757D"/>
<rect x="288.5" y="0.5" width="39" height="39" rx="3.5" fill="white"/>
<rect x="288.5" y="0.5" width="39" height="39" rx="3.5" stroke="#E9ECEF"/>
<path fill-rule="evenodd" clip-rule="evenodd" d="M304.646 13.6459C304.692 13.5994 304.748 13.5624 304.808 13.5372C304.869 13.512 304.934 13.499 305 13.499C305.066 13.499 305.131 13.512 305.192 13.5372C305.252 13.5624 305.307 13.5994 305.354 13.6459L311.354 19.6459C311.4 19.6924 311.437 19.7475 311.463 19.8083C311.488 19.869 311.501 19.9341 311.501 19.9999C311.501 20.0657 311.488 20.1308 311.463 20.1915C311.437 20.2523 311.4 20.3075 311.354 20.3539L305.354 26.3539C305.26 26.4478 305.133 26.5005 305 26.5005C304.867 26.5005 304.74 26.4478 304.646 26.3539C304.552 26.26 304.499 26.1327 304.499 25.9999C304.499 25.8671 304.552 25.7398 304.646 25.6459L310.293 19.9999L304.646 14.3539C304.599 14.3075 304.562 14.2523 304.537 14.1916C304.512 14.1308 304.499 14.0657 304.499 13.9999C304.499 13.9341 304.512 13.869 304.537 13.8083C304.562 13.7475 304.599 13.6924 304.646 13.6459Z" fill="#ADB5BD"/>
</svg>
