<svg width="169" height="31" viewBox="0 0 169 31" fill="none" xmlns="http://www.w3.org/2000/svg">
<path d="M0.528409 30V0.90909H12.0057C14.2121 0.90909 16.0919 1.33049 17.6449 2.1733C19.1979 3.00663 20.3816 4.16667 21.196 5.65341C22.0199 7.13068 22.4318 8.83523 22.4318 10.767C22.4318 12.6989 22.0152 14.4034 21.1818 15.8807C20.3485 17.358 19.1411 18.5085 17.5597 19.3324C15.9877 20.1562 14.0843 20.5682 11.8494 20.5682H4.53409V15.6392H10.8551C12.0388 15.6392 13.0142 15.4356 13.7812 15.0284C14.5578 14.6117 15.1354 14.0388 15.5142 13.3097C15.9025 12.571 16.0966 11.7235 16.0966 10.767C16.0966 9.80114 15.9025 8.95833 15.5142 8.23864C15.1354 7.50947 14.5578 6.94602 13.7812 6.5483C13.0047 6.1411 12.0199 5.9375 10.8267 5.9375H6.67898V30H0.528409ZM25.5132 30V8.18182H31.3797V11.9886H31.607C32.0047 10.6345 32.6723 9.61174 33.6098 8.92045C34.5473 8.2197 35.6268 7.86932 36.8484 7.86932C37.1515 7.86932 37.4782 7.88826 37.8286 7.92614C38.1789 7.96402 38.4867 8.0161 38.7518 8.08239V13.4517C38.4678 13.3665 38.0748 13.2907 37.5729 13.2244C37.071 13.1581 36.6117 13.125 36.195 13.125C35.3049 13.125 34.5094 13.3191 33.8087 13.7074C33.1174 14.0862 32.5681 14.6165 32.1609 15.2983C31.7632 15.9801 31.5643 16.7661 31.5643 17.6562V30H25.5132ZM49.9227 30.4261C47.7163 30.4261 45.8081 29.9574 44.1983 29.0199C42.5979 28.0729 41.3621 26.7566 40.4909 25.071C39.6197 23.3759 39.1841 21.411 39.1841 19.1761C39.1841 16.9223 39.6197 14.9527 40.4909 13.267C41.3621 11.572 42.5979 10.2557 44.1983 9.31818C45.8081 8.37121 47.7163 7.89773 49.9227 7.89773C52.1292 7.89773 54.0326 8.37121 55.633 9.31818C57.2428 10.2557 58.4833 11.572 59.3545 13.267C60.2258 14.9527 60.6614 16.9223 60.6614 19.1761C60.6614 21.411 60.2258 23.3759 59.3545 25.071C58.4833 26.7566 57.2428 28.0729 55.633 29.0199C54.0326 29.9574 52.1292 30.4261 49.9227 30.4261ZM49.9511 25.7386C50.9549 25.7386 51.793 25.4545 52.4653 24.8864C53.1377 24.3087 53.6443 23.5227 53.9852 22.5284C54.3356 21.5341 54.5108 20.4025 54.5108 19.1335C54.5108 17.8646 54.3356 16.733 53.9852 15.7386C53.6443 14.7443 53.1377 13.9583 52.4653 13.3807C51.793 12.803 50.9549 12.5142 49.9511 12.5142C48.9379 12.5142 48.0856 12.803 47.3943 13.3807C46.7125 13.9583 46.1964 14.7443 45.846 15.7386C45.5051 16.733 45.3347 17.8646 45.3347 19.1335C45.3347 20.4025 45.5051 21.5341 45.846 22.5284C46.1964 23.5227 46.7125 24.3087 47.3943 24.8864C48.0856 25.4545 48.9379 25.7386 49.9511 25.7386ZM71.8358 30.3551C70.1786 30.3551 68.6777 29.929 67.333 29.0767C65.9977 28.215 64.9371 26.9508 64.1511 25.2841C63.3746 23.608 62.9864 21.553 62.9864 19.1193C62.9864 16.6193 63.3888 14.5407 64.1937 12.8835C64.9987 11.2169 66.0687 9.97159 67.404 9.14773C68.7487 8.31439 70.2212 7.89773 71.8216 7.89773C73.0432 7.89773 74.0612 8.10606 74.8756 8.52273C75.6994 8.92992 76.3623 9.44129 76.8642 10.0568C77.3756 10.6629 77.7638 11.2595 78.029 11.8466H78.2136V0.90909H84.2506V30H78.2847V26.5057H78.029C77.7449 27.1117 77.3424 27.7131 76.8216 28.3097C76.3102 28.8968 75.6426 29.3845 74.8187 29.7727C74.0044 30.161 73.01 30.3551 71.8358 30.3551ZM73.7534 25.5398C74.7288 25.5398 75.5527 25.2746 76.225 24.7443C76.9068 24.2045 77.4277 23.4517 77.7875 22.4858C78.1568 21.5199 78.3415 20.3883 78.3415 19.0909C78.3415 17.7936 78.1616 16.6667 77.8017 15.7102C77.4419 14.7538 76.921 14.0152 76.2392 13.4943C75.5574 12.9735 74.7288 12.7131 73.7534 12.7131C72.7591 12.7131 71.921 12.983 71.2392 13.5227C70.5574 14.0625 70.0413 14.8106 69.6909 15.767C69.3405 16.7235 69.1653 17.8314 69.1653 19.0909C69.1653 20.3598 69.3405 21.482 69.6909 22.4574C70.0508 23.4233 70.5669 24.1809 71.2392 24.7301C71.921 25.2699 72.7591 25.5398 73.7534 25.5398ZM102.417 20.7102V8.18182H108.468V30H102.659V26.0369H102.431C101.939 27.3153 101.12 28.3428 99.974 29.1193C98.8376 29.8958 97.4503 30.2841 95.8121 30.2841C94.3537 30.2841 93.0706 29.9527 91.9626 29.2898C90.8547 28.6269 89.9882 27.6847 89.3632 26.4631C88.7477 25.2415 88.4352 23.7784 88.4257 22.0739V8.18182H94.4768V20.9943C94.4863 22.2822 94.832 23.3002 95.5138 24.0483C96.1956 24.7964 97.1094 25.1705 98.2553 25.1705C98.9844 25.1705 99.6662 25.0047 100.301 24.6733C100.935 24.3324 101.447 23.8305 101.835 23.1676C102.233 22.5047 102.427 21.6856 102.417 20.7102ZM122.366 30.4261C120.132 30.4261 118.209 29.9527 116.599 29.0057C114.999 28.0492 113.768 26.7235 112.906 25.0284C112.054 23.3333 111.628 21.3826 111.628 19.1761C111.628 16.9413 112.059 14.9811 112.92 13.2955C113.792 11.6004 115.027 10.2794 116.628 9.33239C118.228 8.37595 120.132 7.89773 122.338 7.89773C124.241 7.89773 125.908 8.24337 127.338 8.93466C128.768 9.62595 129.9 10.5966 130.733 11.8466C131.566 13.0966 132.026 14.5644 132.111 16.25H126.401C126.24 15.161 125.813 14.285 125.122 13.6222C124.44 12.9498 123.545 12.6136 122.438 12.6136C121.5 12.6136 120.681 12.8693 119.98 13.3807C119.289 13.8826 118.749 14.6165 118.361 15.5824C117.973 16.5483 117.778 17.7178 117.778 19.0909C117.778 20.483 117.968 21.6667 118.347 22.642C118.735 23.6174 119.279 24.3608 119.98 24.8722C120.681 25.3835 121.5 25.6392 122.438 25.6392C123.129 25.6392 123.749 25.4972 124.298 25.2131C124.857 24.929 125.316 24.517 125.676 23.9773C126.045 23.428 126.287 22.7699 126.401 22.0028H132.111C132.016 23.6695 131.562 25.1373 130.747 26.4062C129.942 27.6657 128.83 28.6506 127.409 29.3608C125.989 30.071 124.308 30.4261 122.366 30.4261ZM146.79 8.18182V12.7273H133.651V8.18182H146.79ZM136.634 2.95455H142.685V23.2955C142.685 23.8542 142.77 24.2898 142.941 24.6023C143.111 24.9053 143.348 25.1184 143.651 25.2415C143.963 25.3646 144.323 25.4261 144.731 25.4261C145.015 25.4261 145.299 25.4025 145.583 25.3551C145.867 25.2983 146.085 25.2557 146.236 25.2273L147.188 29.7301C146.885 29.8248 146.459 29.9337 145.91 30.0568C145.36 30.1894 144.693 30.2699 143.907 30.2983C142.448 30.3551 141.17 30.161 140.071 29.7159C138.982 29.2708 138.135 28.5795 137.529 27.642C136.923 26.7045 136.624 25.5208 136.634 24.0909V2.95455ZM167.812 14.4034L162.272 14.7443C162.177 14.2708 161.974 13.8447 161.661 13.4659C161.349 13.0777 160.937 12.7699 160.426 12.5426C159.924 12.3059 159.322 12.1875 158.622 12.1875C157.684 12.1875 156.893 12.3864 156.249 12.7841C155.605 13.1723 155.284 13.6932 155.284 14.3466C155.284 14.8674 155.492 15.3078 155.909 15.6676C156.325 16.0275 157.04 16.3163 158.053 16.5341L162.002 17.3295C164.123 17.7652 165.705 18.4659 166.747 19.4318C167.788 20.3977 168.309 21.6667 168.309 23.2386C168.309 24.6686 167.888 25.9233 167.045 27.0028C166.212 28.0824 165.066 28.9252 163.607 29.5312C162.159 30.1278 160.487 30.4261 158.593 30.4261C155.705 30.4261 153.404 29.8248 151.69 28.6222C149.985 27.41 148.986 25.7623 148.693 23.679L154.644 23.3665C154.824 24.2472 155.26 24.9195 155.951 25.3835C156.642 25.8381 157.528 26.0653 158.607 26.0653C159.668 26.0653 160.52 25.8617 161.164 25.4545C161.818 25.0379 162.149 24.5028 162.159 23.8494C162.149 23.3002 161.917 22.8504 161.462 22.5C161.008 22.1402 160.307 21.8655 159.36 21.6761L155.582 20.9233C153.451 20.4972 151.865 19.7585 150.823 18.7074C149.791 17.6562 149.275 16.3163 149.275 14.6875C149.275 13.286 149.654 12.0786 150.411 11.0653C151.178 10.0521 152.253 9.27083 153.636 8.72159C155.028 8.17235 156.657 7.89773 158.522 7.89773C161.278 7.89773 163.446 8.48011 165.028 9.64489C166.619 10.8097 167.547 12.3958 167.812 14.4034Z" fill="#212529"/>
</svg>
