<svg width="466" height="56" viewBox="0 0 466 56" fill="none" xmlns="http://www.w3.org/2000/svg">
<rect x="0.5" y="0.5" width="465" height="55" rx="27.5" fill="white"/>
<rect x="0.5" y="0.5" width="465" height="55" rx="27.5" stroke="#DEE2E6"/>
<path d="M23.7727 25.2727C23.7045 24.697 23.428 24.25 22.9432 23.9318C22.4583 23.6136 21.8636 23.4545 21.1591 23.4545C20.6439 23.4545 20.1932 23.5379 19.8068 23.7045C19.4242 23.8712 19.125 24.1004 18.9091 24.392C18.697 24.6837 18.5909 25.0152 18.5909 25.3864C18.5909 25.697 18.6648 25.964 18.8125 26.1875C18.964 26.4072 19.1572 26.5909 19.392 26.7386C19.6269 26.8826 19.8731 27.0019 20.1307 27.0966C20.3883 27.1875 20.625 27.2614 20.8409 27.3182L22.0227 27.6364C22.3258 27.7159 22.6629 27.8258 23.0341 27.9659C23.4091 28.1061 23.767 28.2973 24.108 28.5398C24.4527 28.7784 24.7367 29.0852 24.9602 29.4602C25.1837 29.8352 25.2955 30.2955 25.2955 30.8409C25.2955 31.4697 25.1307 32.0379 24.8011 32.5455C24.4754 33.053 23.9981 33.4564 23.3693 33.7557C22.7443 34.0549 21.9848 34.2045 21.0909 34.2045C20.2576 34.2045 19.536 34.0701 18.9261 33.8011C18.3201 33.5322 17.8428 33.1572 17.4943 32.6761C17.1496 32.1951 16.9545 31.6364 16.9091 31H18.3636C18.4015 31.4394 18.5492 31.803 18.8068 32.0909C19.0682 32.375 19.3977 32.5871 19.7955 32.7273C20.197 32.8636 20.6288 32.9318 21.0909 32.9318C21.6288 32.9318 22.1117 32.8447 22.5398 32.6705C22.9678 32.4924 23.3068 32.2462 23.5568 31.9318C23.8068 31.6136 23.9318 31.2424 23.9318 30.8182C23.9318 30.4318 23.8239 30.1174 23.608 29.875C23.392 29.6326 23.108 29.4356 22.7557 29.2841C22.4034 29.1326 22.0227 29 21.6136 28.8864L20.1818 28.4773C19.2727 28.2159 18.553 27.8428 18.0227 27.358C17.4924 26.8731 17.2273 26.2386 17.2273 25.4545C17.2273 24.803 17.4034 24.2348 17.7557 23.75C18.1117 23.2614 18.589 22.8826 19.1875 22.6136C19.7898 22.3409 20.4621 22.2045 21.2045 22.2045C21.9545 22.2045 22.6212 22.339 23.2045 22.608C23.7879 22.8731 24.25 23.2367 24.5909 23.6989C24.9356 24.161 25.1174 24.6856 25.1364 25.2727H23.7727ZM31.0895 34.1818C30.2486 34.1818 29.5232 33.9962 28.9134 33.625C28.3073 33.25 27.8395 32.7273 27.5099 32.0568C27.1842 31.3826 27.0213 30.5985 27.0213 29.7045C27.0213 28.8106 27.1842 28.0227 27.5099 27.3409C27.8395 26.6553 28.2978 26.1212 28.8849 25.7386C29.4759 25.3523 30.1652 25.1591 30.9531 25.1591C31.4077 25.1591 31.8565 25.2348 32.2997 25.3864C32.7429 25.5379 33.1463 25.7841 33.5099 26.125C33.8736 26.4621 34.1634 26.9091 34.3793 27.4659C34.5952 28.0227 34.7031 28.7083 34.7031 29.5227V30.0909H27.9759V28.9318H33.3395C33.3395 28.4394 33.241 28 33.044 27.6136C32.8509 27.2273 32.5743 26.9223 32.2145 26.6989C31.8584 26.4754 31.438 26.3636 30.9531 26.3636C30.419 26.3636 29.9569 26.4962 29.5668 26.7614C29.1804 27.0227 28.883 27.3636 28.6747 27.7841C28.4664 28.2045 28.3622 28.6553 28.3622 29.1364V29.9091C28.3622 30.5682 28.4759 31.1269 28.7031 31.5852C28.9342 32.0398 29.2543 32.3864 29.6634 32.625C30.0724 32.8598 30.5478 32.9773 31.0895 32.9773C31.4418 32.9773 31.7599 32.928 32.044 32.8295C32.3319 32.7273 32.58 32.5758 32.7884 32.375C32.9967 32.1705 33.1577 31.9167 33.2713 31.6136L34.5668 31.9773C34.4304 32.4167 34.2012 32.803 33.8793 33.1364C33.5573 33.4659 33.1596 33.7235 32.6861 33.9091C32.2126 34.0909 31.6804 34.1818 31.0895 34.1818ZM39.3111 34.2045C38.758 34.2045 38.2562 34.1004 37.8054 33.892C37.3546 33.6799 36.9967 33.375 36.7315 32.9773C36.4664 32.5758 36.3338 32.0909 36.3338 31.5227C36.3338 31.0227 36.4323 30.6174 36.6293 30.3068C36.8262 29.9924 37.0895 29.7462 37.419 29.5682C37.7486 29.3902 38.1122 29.2576 38.5099 29.1705C38.9115 29.0795 39.3149 29.0076 39.7202 28.9545C40.2505 28.8864 40.6804 28.8352 41.0099 28.8011C41.3433 28.7633 41.5857 28.7008 41.7372 28.6136C41.8925 28.5265 41.9702 28.375 41.9702 28.1591V28.1136C41.9702 27.553 41.8168 27.1174 41.5099 26.8068C41.2069 26.4962 40.7467 26.3409 40.1293 26.3409C39.4891 26.3409 38.9872 26.4811 38.6236 26.7614C38.2599 27.0417 38.0043 27.3409 37.8565 27.6591L36.5838 27.2045C36.8111 26.6742 37.1141 26.2614 37.4929 25.9659C37.8755 25.6667 38.2921 25.4583 38.7429 25.3409C39.1974 25.2197 39.6444 25.1591 40.0838 25.1591C40.3641 25.1591 40.6861 25.1932 41.0497 25.2614C41.4171 25.3258 41.7713 25.4602 42.1122 25.6648C42.4569 25.8693 42.7429 26.178 42.9702 26.5909C43.1974 27.0038 43.3111 27.5568 43.3111 28.25V34H41.9702V32.8182H41.902C41.8111 33.0076 41.6596 33.2102 41.4474 33.4261C41.2353 33.642 40.9531 33.8258 40.6009 33.9773C40.2486 34.1288 39.8187 34.2045 39.3111 34.2045ZM39.5156 33C40.0459 33 40.4929 32.8958 40.8565 32.6875C41.224 32.4792 41.5005 32.2102 41.6861 31.8807C41.8755 31.5511 41.9702 31.2045 41.9702 30.8409V29.6136C41.9134 29.6818 41.7884 29.7443 41.5952 29.8011C41.4058 29.8542 41.1861 29.9015 40.9361 29.9432C40.6899 29.9811 40.4493 30.0152 40.2145 30.0455C39.9834 30.072 39.7959 30.0947 39.652 30.1136C39.3035 30.1591 38.9777 30.233 38.6747 30.3352C38.3755 30.4337 38.133 30.5833 37.9474 30.7841C37.7656 30.9811 37.6747 31.25 37.6747 31.5909C37.6747 32.0568 37.8471 32.4091 38.1918 32.6477C38.5402 32.8826 38.9815 33 39.5156 33ZM45.7585 34V25.2727H47.054V26.5909H47.1449C47.304 26.1591 47.5919 25.8087 48.0085 25.5398C48.4252 25.2708 48.8949 25.1364 49.4176 25.1364C49.5161 25.1364 49.6392 25.1383 49.7869 25.142C49.9347 25.1458 50.0464 25.1515 50.1222 25.1591V26.5227C50.0767 26.5114 49.9725 26.4943 49.8097 26.4716C49.6506 26.4451 49.482 26.4318 49.304 26.4318C48.8797 26.4318 48.5009 26.5208 48.1676 26.6989C47.8381 26.8731 47.5767 27.1155 47.3835 27.4261C47.1941 27.733 47.0994 28.0833 47.0994 28.4773V34H45.7585ZM54.9915 34.1818C54.1733 34.1818 53.4688 33.9886 52.8778 33.6023C52.2869 33.2159 51.8324 32.6837 51.5142 32.0057C51.196 31.3277 51.0369 30.553 51.0369 29.6818C51.0369 28.7955 51.1998 28.0133 51.5256 27.3352C51.8551 26.6534 52.3134 26.1212 52.9006 25.7386C53.4915 25.3523 54.1809 25.1591 54.9688 25.1591C55.5824 25.1591 56.1354 25.2727 56.6278 25.5C57.1203 25.7273 57.5237 26.0455 57.8381 26.4545C58.1525 26.8636 58.3475 27.3409 58.4233 27.8864H57.0824C56.9801 27.4886 56.7528 27.1364 56.4006 26.8295C56.0521 26.5189 55.5824 26.3636 54.9915 26.3636C54.4688 26.3636 54.0104 26.5 53.6165 26.7727C53.2263 27.0417 52.9214 27.4223 52.7017 27.9148C52.4858 28.4034 52.3778 28.9773 52.3778 29.6364C52.3778 30.3106 52.4839 30.8977 52.696 31.3977C52.9119 31.8977 53.215 32.286 53.6051 32.5625C53.9991 32.839 54.4612 32.9773 54.9915 32.9773C55.34 32.9773 55.6562 32.9167 55.9403 32.7955C56.2244 32.6742 56.465 32.5 56.6619 32.2727C56.8589 32.0455 56.9991 31.7727 57.0824 31.4545H58.4233C58.3475 31.9697 58.16 32.4337 57.8608 32.8466C57.5653 33.2557 57.1733 33.5814 56.6847 33.8239C56.1998 34.0625 55.6354 34.1818 54.9915 34.1818ZM61.7244 28.75V34H60.3835V22.3636H61.7244V26.6364H61.8381C62.0426 26.1856 62.3494 25.8277 62.7585 25.5625C63.1714 25.2936 63.7206 25.1591 64.4062 25.1591C65.0009 25.1591 65.5218 25.2784 65.9688 25.517C66.4157 25.7519 66.7623 26.1136 67.0085 26.6023C67.2585 27.0871 67.3835 27.7045 67.3835 28.4545V34H66.0426V28.5455C66.0426 27.8523 65.8627 27.3163 65.5028 26.9375C65.1468 26.5549 64.6525 26.3636 64.0199 26.3636C63.5805 26.3636 63.1866 26.4564 62.8381 26.642C62.4934 26.8277 62.2206 27.0985 62.0199 27.4545C61.8229 27.8106 61.7244 28.2424 61.7244 28.75Z" fill="#ADB5BD"/>
<rect x="419" y="9" width="38" height="38" rx="19" fill="#EBE5FC"/>
<g clip-path="url(#clip0_5576_738)">
<path fill-rule="evenodd" clip-rule="evenodd" d="M441.661 31.6633C441.801 31.5239 441.966 31.4132 442.148 31.3377C442.33 31.2622 442.525 31.2234 442.722 31.2234C442.92 31.2234 443.115 31.2622 443.297 31.3377C443.479 31.4132 443.644 31.5239 443.784 31.6633L449.559 37.4383C449.84 37.7196 449.998 38.1011 449.999 38.499C449.999 38.8969 449.841 39.2786 449.559 39.5601C449.278 39.8415 448.897 39.9997 448.499 39.9999C448.101 40 447.719 39.8421 447.438 39.5608L441.663 33.7858C441.523 33.6465 441.413 33.4811 441.337 33.299C441.262 33.1169 441.223 32.9217 441.223 32.7246C441.223 32.5274 441.262 32.3323 441.337 32.1502C441.413 31.9681 441.523 31.8026 441.663 31.6633H441.661Z" fill="#7749F8"/>
<path fill-rule="evenodd" clip-rule="evenodd" d="M435.75 34C436.833 34 437.906 33.7866 438.907 33.372C439.908 32.9574 440.818 32.3497 441.584 31.5836C442.35 30.8175 442.957 29.9081 443.372 28.9071C443.787 27.9062 444 26.8334 444 25.75C444 24.6666 443.787 23.5938 443.372 22.5929C442.957 21.5919 442.35 20.6825 441.584 19.9164C440.818 19.1503 439.908 18.5426 438.907 18.128C437.906 17.7134 436.833 17.5 435.75 17.5C433.562 17.5 431.464 18.3692 429.916 19.9164C428.369 21.4635 427.5 23.562 427.5 25.75C427.5 27.938 428.369 30.0365 429.916 31.5836C431.464 33.1308 433.562 34 435.75 34ZM445.5 25.75C445.5 28.3359 444.473 30.8158 442.644 32.6443C440.816 34.4728 438.336 35.5 435.75 35.5C433.164 35.5 430.684 34.4728 428.856 32.6443C427.027 30.8158 426 28.3359 426 25.75C426 23.1641 427.027 20.6842 428.856 18.8557C430.684 17.0272 433.164 16 435.75 16C438.336 16 440.816 17.0272 442.644 18.8557C444.473 20.6842 445.5 23.1641 445.5 25.75Z" fill="#7749F8"/>
</g>
<defs>
<clipPath id="clip0_5576_738">
<rect width="24" height="24" fill="white" transform="translate(426 16)"/>
</clipPath>
</defs>
</svg>
