<svg width="273" height="21" viewBox="0 0 273 21" fill="none" xmlns="http://www.w3.org/2000/svg">
<path d="M9.2017 4.54545C9.11222 3.78977 8.74929 3.20312 8.11293 2.78551C7.47656 2.3679 6.69602 2.15909 5.77131 2.15909C5.09517 2.15909 4.50355 2.26847 3.99645 2.48722C3.49432 2.70597 3.10156 3.00675 2.81818 3.38956C2.53977 3.77237 2.40057 4.20739 2.40057 4.6946C2.40057 5.10227 2.49751 5.45277 2.69141 5.74609C2.89027 6.03445 3.14382 6.27557 3.45206 6.46946C3.7603 6.65838 4.08345 6.81499 4.42152 6.93928C4.75959 7.05859 5.07031 7.15554 5.35369 7.23011L6.90483 7.64773C7.30256 7.75213 7.74503 7.89631 8.23224 8.08026C8.72443 8.2642 9.19425 8.51527 9.64169 8.83345C10.0941 9.14666 10.467 9.54936 10.7603 10.0415C11.0536 10.5337 11.2003 11.1378 11.2003 11.8537C11.2003 12.679 10.984 13.4247 10.5515 14.0909C10.1239 14.7571 9.49751 15.2866 8.67223 15.6793C7.85192 16.0721 6.85511 16.2685 5.68182 16.2685C4.58807 16.2685 3.64098 16.092 2.84055 15.739C2.0451 15.386 1.41868 14.8938 0.961293 14.2624C0.508878 13.631 0.252841 12.8977 0.193182 12.0625H2.10227C2.15199 12.6392 2.34588 13.1165 2.68395 13.4943C3.02699 13.8672 3.45952 14.1456 3.98153 14.3295C4.50852 14.5085 5.07528 14.598 5.68182 14.598C6.38778 14.598 7.02166 14.4837 7.58345 14.255C8.14524 14.0213 8.5902 13.6982 8.91832 13.2855C9.24645 12.8679 9.41051 12.3807 9.41051 11.8239C9.41051 11.3168 9.26882 10.9041 8.98544 10.5859C8.70206 10.2678 8.32919 10.0092 7.86683 9.81037C7.40447 9.61151 6.90483 9.4375 6.3679 9.28835L4.48864 8.75142C3.29545 8.40838 2.35085 7.91868 1.65483 7.28232C0.958807 6.64595 0.610795 5.81321 0.610795 4.78409C0.610795 3.92898 0.841974 3.18324 1.30433 2.54688C1.77166 1.90554 2.39808 1.40838 3.18359 1.0554C3.97408 0.697443 4.85653 0.518465 5.83097 0.518465C6.81534 0.518465 7.69034 0.694957 8.45597 1.04794C9.22159 1.39595 9.82813 1.87322 10.2756 2.47976C10.728 3.08629 10.9666 3.77486 10.9915 4.54545H9.2017ZM15.7623 9.10938V16H14.0024V0.727272H15.7623V6.33523H15.9115C16.18 5.74361 16.5827 5.27379 17.1196 4.92578C17.6615 4.5728 18.3824 4.39631 19.2822 4.39631C20.0628 4.39631 20.7464 4.55291 21.333 4.86612C21.9197 5.17436 22.3746 5.64915 22.6977 6.29048C23.0258 6.92685 23.1899 7.73722 23.1899 8.72159V16H21.43V8.84091C21.43 7.93111 21.1938 7.22763 20.7215 6.73047C20.2542 6.22834 19.6054 5.97727 18.7751 5.97727C18.1984 5.97727 17.6814 6.09908 17.224 6.34268C16.7716 6.58629 16.4136 6.94176 16.1501 7.40909C15.8916 7.87642 15.7623 8.44318 15.7623 9.10938ZM31.063 16.2386C30.0289 16.2386 29.1216 15.9925 28.3411 15.5004C27.5655 15.0082 26.959 14.3196 26.5215 13.4347C26.089 12.5497 25.8727 11.5156 25.8727 10.3324C25.8727 9.1392 26.089 8.09766 26.5215 7.20774C26.959 6.31783 27.5655 5.62678 28.3411 5.13459C29.1216 4.6424 30.0289 4.39631 31.063 4.39631C32.0971 4.39631 33.002 4.6424 33.7775 5.13459C34.5581 5.62678 35.1646 6.31783 35.5971 7.20774C36.0346 8.09766 36.2534 9.1392 36.2534 10.3324C36.2534 11.5156 36.0346 12.5497 35.5971 13.4347C35.1646 14.3196 34.5581 15.0082 33.7775 15.5004C33.002 15.9925 32.0971 16.2386 31.063 16.2386ZM31.063 14.6577C31.8485 14.6577 32.4949 14.4563 33.002 14.0536C33.5091 13.6509 33.8844 13.1214 34.128 12.4652C34.3716 11.8089 34.4934 11.098 34.4934 10.3324C34.4934 9.56676 34.3716 8.85334 34.128 8.19212C33.8844 7.53089 33.5091 6.99645 33.002 6.58878C32.4949 6.18111 31.8485 5.97727 31.063 5.97727C30.2775 5.97727 29.6312 6.18111 29.1241 6.58878C28.617 6.99645 28.2417 7.53089 27.998 8.19212C27.7544 8.85334 27.6326 9.56676 27.6326 10.3324C27.6326 11.098 27.7544 11.8089 27.998 12.4652C28.2417 13.1214 28.617 13.6509 29.1241 14.0536C29.6312 14.4563 30.2775 14.6577 31.063 14.6577ZM41.1454 16L37.6554 4.54545H39.5048L41.9806 13.3153H42.1L44.546 4.54545H46.4252L48.8414 13.2855H48.9608L51.4366 4.54545H53.286L49.796 16H48.0659L45.5602 7.20028H45.3812L42.8755 16H41.1454ZM55.6127 16V4.54545H57.3727V16H55.6127ZM56.5076 2.63636C56.1646 2.63636 55.8688 2.51953 55.6202 2.28587C55.3766 2.0522 55.2548 1.77131 55.2548 1.44318C55.2548 1.11506 55.3766 0.834162 55.6202 0.600497C55.8688 0.366832 56.1646 0.25 56.5076 0.25C56.8507 0.25 57.144 0.366832 57.3876 0.600497C57.6362 0.834162 57.7605 1.11506 57.7605 1.44318C57.7605 1.77131 57.6362 2.0522 57.3876 2.28587C57.144 2.51953 56.8507 2.63636 56.5076 2.63636ZM62.3561 9.10938V16H60.5961V4.54545H62.2964V6.33523H62.4456C62.714 5.75355 63.1217 5.28622 63.6686 4.93324C64.2155 4.57528 64.9214 4.39631 65.7865 4.39631C66.5621 4.39631 67.2407 4.5554 67.8224 4.87358C68.404 5.18679 68.8564 5.66406 69.1796 6.3054C69.5028 6.94176 69.6643 7.74716 69.6643 8.72159V16H67.9044V8.84091C67.9044 7.94105 67.6707 7.24006 67.2034 6.73793C66.7361 6.23082 66.0947 5.97727 65.2794 5.97727C64.7176 5.97727 64.2155 6.09908 63.773 6.34268C63.3355 6.58629 62.99 6.94176 62.7364 7.40909C62.4829 7.87642 62.3561 8.44318 62.3561 9.10938ZM77.5039 20.5341C76.6538 20.5341 75.9229 20.4247 75.3114 20.206C74.6999 19.9922 74.1903 19.7088 73.7827 19.3558C73.38 19.0078 73.0593 18.6349 72.8207 18.2372L74.2227 17.2528C74.3817 17.4616 74.5831 17.7003 74.8267 17.9688C75.0703 18.2422 75.4034 18.4783 75.826 18.6772C76.2536 18.881 76.8129 18.983 77.5039 18.983C78.4286 18.983 79.1918 18.7592 79.7933 18.3118C80.3949 17.8643 80.6957 17.1634 80.6957 16.2088V13.8821H80.5465C80.4173 14.0909 80.2333 14.3494 79.9947 14.6577C79.761 14.9609 79.4229 15.2319 78.9805 15.4705C78.543 15.7042 77.9513 15.821 77.2056 15.821C76.2809 15.821 75.4506 15.6023 74.7148 15.1648C73.984 14.7273 73.4048 14.0909 72.9773 13.2557C72.5547 12.4205 72.3434 11.4062 72.3434 10.2131C72.3434 9.03977 72.5497 8.01811 72.9624 7.14808C73.375 6.27308 73.9492 5.59695 74.685 5.11967C75.4208 4.63743 76.271 4.39631 77.2354 4.39631C77.9812 4.39631 78.5728 4.5206 79.0103 4.76918C79.4528 5.01278 79.7908 5.29119 80.0245 5.6044C80.2631 5.91264 80.4471 6.16619 80.5763 6.36506H80.7553V4.54545H82.4556V16.3281C82.4556 17.3125 82.2319 18.1129 81.7844 18.7294C81.342 19.3509 80.7454 19.8058 79.9947 20.0941C79.2489 20.3874 78.4187 20.5341 77.5039 20.5341ZM77.4442 14.2401C78.1502 14.2401 78.7468 14.0785 79.234 13.7553C79.7212 13.4322 80.0916 12.9673 80.3452 12.3608C80.5987 11.7543 80.7255 11.0284 80.7255 10.1832C80.7255 9.35795 80.6012 8.62962 80.3526 7.99822C80.104 7.36683 79.7362 6.87216 79.2489 6.5142C78.7617 6.15625 78.1602 5.97727 77.4442 5.97727C76.6985 5.97727 76.0771 6.16619 75.5799 6.54403C75.0877 6.92187 74.7173 7.42898 74.4688 8.06534C74.2251 8.7017 74.1033 9.40767 74.1033 10.1832C74.1033 10.9787 74.2276 11.6822 74.4762 12.2937C74.7298 12.9002 75.1026 13.3775 75.5948 13.7255C76.092 14.0685 76.7085 14.2401 77.4442 14.2401ZM96.9229 0.727272V16H95.0735V2.66619H94.984L91.2553 5.14204V3.26278L95.0735 0.727272H96.9229ZM107.908 7.54332V9.18395H101.226V7.54332H107.908ZM110.257 16V14.6577L115.298 9.1392C115.89 8.4929 116.377 7.93111 116.76 7.45383C117.142 6.97159 117.426 6.51918 117.61 6.09659C117.799 5.66903 117.893 5.22159 117.893 4.75426C117.893 4.21733 117.764 3.75249 117.505 3.35973C117.252 2.96697 116.904 2.66371 116.461 2.44993C116.019 2.23615 115.522 2.12926 114.97 2.12926C114.383 2.12926 113.871 2.25107 113.434 2.49467C113.001 2.73331 112.665 3.06889 112.427 3.50142C112.193 3.93395 112.076 4.44105 112.076 5.02273H110.316C110.316 4.12784 110.523 3.34233 110.935 2.66619C111.348 1.99006 111.91 1.46307 112.621 1.08523C113.337 0.707386 114.14 0.518465 115.029 0.518465C115.924 0.518465 116.717 0.707386 117.408 1.08523C118.099 1.46307 118.641 1.97266 119.034 2.61399C119.427 3.25533 119.623 3.96875 119.623 4.75426C119.623 5.31605 119.521 5.86541 119.317 6.40234C119.119 6.9343 118.771 7.52841 118.273 8.18466C117.781 8.83594 117.098 9.63139 116.223 10.571L112.792 14.2401V14.3594H119.892V16H110.257ZM127.953 16.2088C126.83 16.2088 125.873 15.9031 125.082 15.2915C124.292 14.6751 123.688 13.7827 123.27 12.6143C122.852 11.4411 122.643 10.0241 122.643 8.36364C122.643 6.71307 122.852 5.30362 123.27 4.1353C123.692 2.962 124.299 2.06712 125.089 1.45064C125.885 0.82919 126.839 0.518465 127.953 0.518465C129.067 0.518465 130.019 0.82919 130.809 1.45064C131.605 2.06712 132.211 2.962 132.629 4.1353C133.051 5.30362 133.263 6.71307 133.263 8.36364C133.263 10.0241 133.054 11.4411 132.636 12.6143C132.219 13.7827 131.615 14.6751 130.824 15.2915C130.034 15.9031 129.077 16.2088 127.953 16.2088ZM127.953 14.5682C129.067 14.5682 129.932 14.0312 130.548 12.9574C131.165 11.8835 131.473 10.3523 131.473 8.36364C131.473 7.04119 131.331 5.91513 131.048 4.98544C130.77 4.05575 130.367 3.3473 129.84 2.86008C129.318 2.37287 128.689 2.12926 127.953 2.12926C126.849 2.12926 125.987 2.67365 125.365 3.76243C124.744 4.84624 124.433 6.37997 124.433 8.36364C124.433 9.68608 124.572 10.8097 124.851 11.7344C125.129 12.6591 125.529 13.3626 126.051 13.8448C126.578 14.3271 127.212 14.5682 127.953 14.5682ZM146.686 16.2386C145.652 16.2386 144.745 15.9925 143.964 15.5004C143.189 15.0082 142.582 14.3196 142.145 13.4347C141.712 12.5497 141.496 11.5156 141.496 10.3324C141.496 9.1392 141.712 8.09766 142.145 7.20774C142.582 6.31783 143.189 5.62678 143.964 5.13459C144.745 4.6424 145.652 4.39631 146.686 4.39631C147.72 4.39631 148.625 4.6424 149.401 5.13459C150.181 5.62678 150.788 6.31783 151.22 7.20774C151.658 8.09766 151.876 9.1392 151.876 10.3324C151.876 11.5156 151.658 12.5497 151.22 13.4347C150.788 14.3196 150.181 15.0082 149.401 15.5004C148.625 15.9925 147.72 16.2386 146.686 16.2386ZM146.686 14.6577C147.472 14.6577 148.118 14.4563 148.625 14.0536C149.132 13.6509 149.507 13.1214 149.751 12.4652C149.995 11.8089 150.116 11.098 150.116 10.3324C150.116 9.56676 149.995 8.85334 149.751 8.19212C149.507 7.53089 149.132 6.99645 148.625 6.58878C148.118 6.18111 147.472 5.97727 146.686 5.97727C145.901 5.97727 145.254 6.18111 144.747 6.58878C144.24 6.99645 143.865 7.53089 143.621 8.19212C143.377 8.85334 143.256 9.56676 143.256 10.3324C143.256 11.098 143.377 11.8089 143.621 12.4652C143.865 13.1214 144.24 13.6509 144.747 14.0536C145.254 14.4563 145.901 14.6577 146.686 14.6577ZM159.664 4.54545V6.03693H153.489V4.54545H159.664ZM155.339 16V2.96449C155.339 2.30824 155.493 1.76136 155.801 1.32386C156.109 0.886363 156.509 0.558238 157.002 0.339488C157.494 0.120738 158.013 0.0113626 158.56 0.0113626C158.993 0.0113626 159.346 0.046164 159.619 0.115767C159.892 0.185369 160.096 0.249999 160.231 0.309658L159.723 1.83097C159.634 1.80114 159.51 1.76385 159.351 1.7191C159.196 1.67436 158.993 1.65199 158.739 1.65199C158.157 1.65199 157.737 1.79865 157.479 2.09197C157.225 2.3853 157.098 2.81534 157.098 3.3821V16H155.339ZM173.376 0.727272V16H171.527V2.66619H171.437L167.708 5.14204V3.26278L171.527 0.727272H173.376ZM182.541 16.2088C181.666 16.2088 180.878 16.0348 180.177 15.6868C179.476 15.3388 178.914 14.8615 178.492 14.255C178.069 13.6484 177.838 12.9574 177.798 12.1818H179.588C179.658 12.8729 179.971 13.4446 180.528 13.897C181.089 14.3445 181.761 14.5682 182.541 14.5682C183.168 14.5682 183.724 14.4215 184.212 14.1282C184.704 13.8349 185.089 13.4322 185.368 12.9201C185.651 12.4031 185.793 11.8189 185.793 11.1676C185.793 10.5014 185.646 9.90732 185.353 9.3853C185.064 8.85831 184.667 8.44318 184.159 8.13991C183.652 7.83665 183.073 7.68253 182.422 7.67756C181.955 7.67258 181.475 7.74467 180.983 7.89382C180.49 8.038 180.085 8.22443 179.767 8.45312L178.037 8.24432L178.962 0.727272H186.896V2.3679H180.513L179.976 6.87216H180.065C180.379 6.62358 180.771 6.41726 181.244 6.2532C181.716 6.08913 182.208 6.0071 182.72 6.0071C183.655 6.0071 184.488 6.23082 185.218 6.67827C185.954 7.12074 186.531 7.72727 186.949 8.49787C187.371 9.26847 187.582 10.1484 187.582 11.1378C187.582 12.1122 187.364 12.9822 186.926 13.7479C186.494 14.5085 185.897 15.1101 185.136 15.5526C184.376 15.9901 183.511 16.2088 182.541 16.2088ZM195.318 16.2088C194.443 16.2088 193.655 16.0348 192.954 15.6868C192.253 15.3388 191.691 14.8615 191.268 14.255C190.846 13.6484 190.614 12.9574 190.575 12.1818H192.364C192.434 12.8729 192.747 13.4446 193.304 13.897C193.866 14.3445 194.537 14.5682 195.318 14.5682C195.944 14.5682 196.501 14.4215 196.988 14.1282C197.48 13.8349 197.866 13.4322 198.144 12.9201C198.427 12.4031 198.569 11.8189 198.569 11.1676C198.569 10.5014 198.422 9.90732 198.129 9.3853C197.841 8.85831 197.443 8.44318 196.936 8.13991C196.429 7.83665 195.85 7.68253 195.198 7.67756C194.731 7.67258 194.251 7.74467 193.759 7.89382C193.267 8.038 192.862 8.22443 192.543 8.45312L190.813 8.24432L191.738 0.727272H199.673V2.3679H193.289L192.752 6.87216H192.842C193.155 6.62358 193.548 6.41726 194.02 6.2532C194.492 6.08913 194.984 6.0071 195.497 6.0071C196.431 6.0071 197.264 6.23082 197.995 6.67827C198.731 7.12074 199.307 7.72727 199.725 8.49787C200.147 9.26847 200.359 10.1484 200.359 11.1378C200.359 12.1122 200.14 12.9822 199.703 13.7479C199.27 14.5085 198.673 15.1101 197.913 15.5526C197.152 15.9901 196.287 16.2088 195.318 16.2088ZM209.257 16V4.54545H210.958V6.27557H211.077C211.286 5.70881 211.664 5.24893 212.21 4.89595C212.757 4.54297 213.374 4.36648 214.06 4.36648C214.189 4.36648 214.351 4.36896 214.545 4.37393C214.738 4.37891 214.885 4.38636 214.985 4.39631V6.18608C214.925 6.17116 214.788 6.14879 214.574 6.11896C214.366 6.08416 214.144 6.06676 213.911 6.06676C213.354 6.06676 212.857 6.18359 212.419 6.41726C211.987 6.64595 211.644 6.96413 211.39 7.3718C211.142 7.7745 211.017 8.23437 211.017 8.75142V16H209.257ZM221.525 16.2386C220.421 16.2386 219.469 15.995 218.669 15.5078C217.873 15.0156 217.259 14.3295 216.827 13.4496C216.399 12.5646 216.185 11.5355 216.185 10.3622C216.185 9.18892 216.399 8.15483 216.827 7.25994C217.259 6.36009 217.861 5.65909 218.631 5.15696C219.407 4.64986 220.312 4.39631 221.346 4.39631C221.942 4.39631 222.531 4.49574 223.113 4.6946C223.695 4.89347 224.224 5.21662 224.702 5.66406C225.179 6.10653 225.559 6.69318 225.843 7.42401C226.126 8.15483 226.268 9.05469 226.268 10.1236V10.8693H217.438V9.34801H224.478C224.478 8.7017 224.349 8.125 224.09 7.6179C223.836 7.11079 223.474 6.71058 223.001 6.41726C222.534 6.12393 221.982 5.97727 221.346 5.97727C220.645 5.97727 220.038 6.15128 219.526 6.49929C219.019 6.84233 218.629 7.28977 218.355 7.84162C218.082 8.39347 217.945 8.98508 217.945 9.61648V10.6307C217.945 11.4957 218.094 12.229 218.393 12.8306C218.696 13.4272 219.116 13.8821 219.653 14.1953C220.19 14.5036 220.814 14.6577 221.525 14.6577C221.987 14.6577 222.405 14.593 222.778 14.4638C223.155 14.3295 223.481 14.1307 223.754 13.8672C224.028 13.5987 224.239 13.2656 224.388 12.8679L226.089 13.3452C225.91 13.9219 225.609 14.429 225.186 14.8665C224.764 15.299 224.242 15.6371 223.62 15.8807C222.999 16.1193 222.3 16.2386 221.525 16.2386ZM237.058 7.1108L235.477 7.55824C235.378 7.29474 235.231 7.03871 235.037 6.79013C234.849 6.53658 234.59 6.32777 234.262 6.16371C233.934 5.99964 233.514 5.91761 233.002 5.91761C232.301 5.91761 231.716 6.07919 231.249 6.40234C230.787 6.72053 230.556 7.12571 230.556 7.6179C230.556 8.0554 230.715 8.40092 231.033 8.65447C231.351 8.90803 231.848 9.11932 232.524 9.28835L234.225 9.70597C235.249 9.95455 236.012 10.3349 236.514 10.8469C237.016 11.354 237.267 12.0078 237.267 12.8082C237.267 13.4645 237.078 14.0511 236.7 14.5682C236.328 15.0852 235.806 15.4929 235.134 15.7912C234.463 16.0895 233.683 16.2386 232.793 16.2386C231.624 16.2386 230.657 15.9851 229.892 15.478C229.126 14.9709 228.642 14.2301 228.438 13.2557L230.108 12.8381C230.267 13.4545 230.568 13.9169 231.01 14.2251C231.458 14.5334 232.042 14.6875 232.763 14.6875C233.583 14.6875 234.235 14.5135 234.717 14.1655C235.204 13.8125 235.448 13.3899 235.448 12.8977C235.448 12.5 235.308 12.1669 235.03 11.8984C234.752 11.625 234.324 11.4212 233.747 11.2869L231.838 10.8395C230.789 10.5909 230.019 10.2056 229.526 9.68359C229.039 9.1566 228.796 8.49787 228.796 7.70739C228.796 7.06108 228.977 6.48935 229.34 5.99219C229.708 5.49503 230.208 5.10476 230.839 4.82138C231.475 4.538 232.196 4.39631 233.002 4.39631C234.135 4.39631 235.025 4.64489 235.671 5.14204C236.323 5.6392 236.785 6.29545 237.058 7.1108ZM247.135 11.3168V4.54545H248.895V16H247.135V14.0611H247.016C246.747 14.6428 246.33 15.1374 245.763 15.5451C245.196 15.9478 244.48 16.1491 243.615 16.1491C242.899 16.1491 242.263 15.9925 241.706 15.6793C241.149 15.3612 240.712 14.8839 240.394 14.2475C240.076 13.6062 239.916 12.7983 239.916 11.8239V4.54545H241.676V11.7045C241.676 12.5398 241.91 13.206 242.377 13.7031C242.85 14.2003 243.451 14.4489 244.182 14.4489C244.62 14.4489 245.065 14.337 245.517 14.1133C245.974 13.8896 246.357 13.5465 246.665 13.0842C246.979 12.6218 247.135 12.0327 247.135 11.3168ZM253.879 0.727272V16H252.119V0.727272H253.879ZM262.084 4.54545V6.03693H256.147V4.54545H262.084ZM257.878 1.80114H259.638V12.7188C259.638 13.2159 259.71 13.5888 259.854 13.8374C260.003 14.081 260.192 14.245 260.421 14.3295C260.654 14.4091 260.9 14.4489 261.159 14.4489C261.353 14.4489 261.512 14.4389 261.636 14.419C261.76 14.3942 261.86 14.3743 261.934 14.3594L262.292 15.9403C262.173 15.9851 262.006 16.0298 261.793 16.0746C261.579 16.1243 261.308 16.1491 260.98 16.1491C260.483 16.1491 259.995 16.0423 259.518 15.8285C259.046 15.6147 258.653 15.2891 258.34 14.8516C258.032 14.4141 257.878 13.8622 257.878 13.196V1.80114ZM272.639 7.1108L271.059 7.55824C270.959 7.29474 270.812 7.03871 270.619 6.79013C270.43 6.53658 270.171 6.32777 269.843 6.16371C269.515 5.99964 269.095 5.91761 268.583 5.91761C267.882 5.91761 267.297 6.07919 266.83 6.40234C266.368 6.72053 266.137 7.12571 266.137 7.6179C266.137 8.0554 266.296 8.40092 266.614 8.65447C266.932 8.90803 267.429 9.11932 268.105 9.28835L269.806 9.70597C270.83 9.95455 271.593 10.3349 272.095 10.8469C272.597 11.354 272.848 12.0078 272.848 12.8082C272.848 13.4645 272.659 14.0511 272.282 14.5682C271.909 15.0852 271.387 15.4929 270.715 15.7912C270.044 16.0895 269.264 16.2386 268.374 16.2386C267.206 16.2386 266.239 15.9851 265.473 15.478C264.707 14.9709 264.223 14.2301 264.019 13.2557L265.689 12.8381C265.848 13.4545 266.149 13.9169 266.592 14.2251C267.039 14.5334 267.623 14.6875 268.344 14.6875C269.164 14.6875 269.816 14.5135 270.298 14.1655C270.785 13.8125 271.029 13.3899 271.029 12.8977C271.029 12.5 270.889 12.1669 270.611 11.8984C270.333 11.625 269.905 11.4212 269.328 11.2869L267.419 10.8395C266.37 10.5909 265.6 10.2056 265.108 9.68359C264.62 9.1566 264.377 8.49787 264.377 7.70739C264.377 7.06108 264.558 6.48935 264.921 5.99219C265.289 5.49503 265.789 5.10476 266.42 4.82138C267.056 4.538 267.777 4.39631 268.583 4.39631C269.716 4.39631 270.606 4.64489 271.252 5.14204C271.904 5.6392 272.366 6.29545 272.639 7.1108Z" fill="#212529"/>
</svg>
